<?xml version="1.0" encoding="UTF-8"?>
<svg width="3296px" height="598px" viewBox="0 0 3296 598" version="1.1" xmlns="http://www.w3.org/2000/svg" xmlns:xlink="http://www.w3.org/1999/xlink">
    <!-- Generator: Sketch 63.1 (92452) - https://sketch.com -->
    <title>Logo</title>
    <desc>Created with Sketch.</desc>
    <g id="Page-1" stroke="none" stroke-width="1" fill="none" fill-rule="evenodd">
        <g id="Logo" transform="translate(0.020000, 0.610000)" fill="#FFFFFF">
            <polygon id="Path" fill-rule="nonzero" points="74.5 522.66 298.01 522.66 298.01 149.33 372.51 149.33 372.51 597.32 74.5 597.32"></polygon>
            <polygon id="Path" fill-rule="nonzero" points="298.01 74.66 298.01 -5.68434189e-14 372.51 -5.68434189e-14 372.51 74.66"></polygon>
            <polygon id="Path" fill-rule="nonzero" points="447.02 597.32 447.02 149.33 521.52 149.33 521.52 224 819.53 224 819.53 373.33 819.53 447.99 745.03 447.99 521.52 447.99 521.52 597.32"></polygon>
            <polygon id="Path" fill-rule="nonzero" points="968.54 522.66 968.54 447.99 1266.55 447.99 1266.55 522.66"></polygon>
            <polygon id="Path" fill-rule="nonzero" points="894.03 447.99 894.03 224 1266.55 224 1266.55 373.33 968.54 373.33 968.54 447.99"></polygon>
            <polygon id="Path" fill-rule="nonzero" points="1639.06 522.66 1639.06 447.99 1415.55 447.99 1341.05 447.99 1341.05 373.33 1341.05 224 1415.55 224 1713.57 224 1713.57 522.66"></polygon>
            <polygon id="Path" fill-rule="nonzero" points="1788.07 522.66 1788.07 373.33 1862.57 373.33 1862.57 522.66"></polygon>
            <polygon id="Path" fill-rule="nonzero" points="0 522.66 0 447.98 74.5 447.98 74.5 522.66"></polygon>
            <g id="Group" stroke-width="1" fill-rule="evenodd" transform="translate(1984.885180, 174.790000)" font-family="Helvetica" font-size="193.1" font-weight="normal">
                <text id="КРЕАТИВНОЕ">
                    <tspan x="0.9738202" y="188.63">КРЕАТИВНОЕ</tspan>
                </text>
            </g>
            <g id="Group" stroke-width="1" fill-rule="evenodd" transform="translate(1984.885180, 393.790000)" font-family="Helvetica" font-size="193.1" font-weight="normal">
                <text id="АГЕНТСТВО">
                    <tspan x="0.9738202" y="188.58">АГЕНТСТВО</tspan>
                </text>
            </g>
            <polygon id="Path" fill-rule="nonzero" points="1341.05 597.32 1341.05 522.66 1639.06 522.66 1639.06 597.32"></polygon>
        </g>
    </g>
</svg>