<?xml version="1.0" encoding="UTF-8"?>
<svg width="11591px" height="8577px" viewBox="0 0 11591 8577" version="1.1" xmlns="http://www.w3.org/2000/svg" xmlns:xlink="http://www.w3.org/1999/xlink">
    <!-- Generator: Sketch 63.1 (92452) - https://sketch.com -->
    <title>Group</title>
    <desc>Created with Sketch.</desc>
    <g id="Page-1" stroke="none" stroke-width="1" fill="none" fill-rule="evenodd">
        <g id="Group">
            <path d="M1091.29,6058.43 L1159.46,6058.43 L1159.46,5990.36 L1432.16,5990.36 L1432.16,6058.43 L1500.34,6058.43 L1500.34,6126.5 L1432.16,6126.5 L1432.16,6194.57 L1159.46,6194.57 L1159.46,6126.5 L1091.29,6126.5 L1091.29,6058.43 Z M3068.36,5445.81 L3068.36,5513.89 L2659.31,5513.89 L2659.31,5445.81 L2454.79,5445.81 L2454.79,5377.75 L2386.61,5377.75 L2386.61,5173.54 L2454.79,5173.54 L2454.79,5105.48 L2659.31,5105.48 L2659.31,5037.41 L3068.36,5037.41 L3068.36,5105.48 L3272.88,5105.48 L3272.88,5173.54 L3341.05,5173.54 L3341.05,5377.75 L3272.88,5377.75 L3272.88,5445.81 L3068.36,5445.81 Z M3954.62,4901.28 L4159.15,4901.28 L4159.15,5037.41 L3954.62,5037.41 L3954.62,4901.28 Z M3409.23,4901.28 L3409.23,4969.34 L3136.52,4969.34 L3136.52,4901.28 L3000.18,4901.28 L3000.18,4765.14 L3136.52,4765.14 L3136.52,4697.06 L3409.23,4697.06 L3409.23,4765.14 L3545.58,4765.14 L3545.58,4901.28 L3409.23,4901.28 Z M4227.32,4765.14 L4295.5,4765.14 L4295.5,4697.06 L4568.2,4697.06 L4568.2,4765.14 L4636.37,4765.14 L4636.37,4833.2 L4568.2,4833.2 L4568.2,4901.28 L4295.5,4901.28 L4295.5,4833.2 L4227.32,4833.2 L4227.32,4765.14 Z M6545.26,4492.87 L6545.26,4560.93 L6272.56,4560.93 L6272.56,4492.87 L6136.22,4492.87 L6136.22,4356.72 L6272.56,4356.72 L6272.56,4288.66 L6545.26,4288.66 L6545.26,4356.72 L6681.61,4356.72 L6681.61,4492.87 L6545.26,4492.87 Z M8045.1,4220.58 L8317.79,4220.58 L8317.79,4288.66 L8385.97,4288.66 L8385.97,4356.72 L8317.79,4356.72 L8317.79,4424.8 L8045.1,4424.8 L8045.1,4356.72 L7976.93,4356.72 L7976.93,4288.66 L8045.1,4288.66 L8045.1,4220.58 Z M8454.15,4084.45 L8658.67,4084.45 L8658.67,4220.58 L8454.15,4220.58 L8454.15,4084.45 Z M4840.89,3948.32 L4840.89,4016.39 L4568.2,4016.39 L4568.2,3948.32 L4431.85,3948.32 L4431.85,3812.18 L4568.2,3812.18 L4568.2,3744.11 L4840.89,3744.11 L4840.89,3812.18 L4977.24,3812.18 L4977.24,3948.32 L4840.89,3948.32 Z M8045.1,4152.52 L8045.1,4220.58 L7908.75,4220.58 L7908.75,4288.66 L7704.22,4288.66 L7704.22,4356.72 L7090.65,4356.72 L7090.65,4288.66 L6886.13,4288.66 L6886.13,4220.58 L6749.79,4220.58 L6749.79,4152.52 L6681.61,4152.52 L6681.61,4084.45 L6613.44,4084.45 L6613.44,3812.18 L6681.61,3812.18 L6681.61,3744.11 L6749.79,3744.11 L6749.79,3676.04 L6886.13,3676.04 L6886.13,3607.97 L7022.48,3607.97 L7022.48,3539.91 L6954.3,3539.91 L6954.3,3471.84 L7022.48,3471.84 L7022.48,3403.77 L7295.18,3403.77 L7295.18,3471.84 L7363.36,3471.84 L7363.36,3539.91 L7704.22,3539.91 L7704.22,3607.97 L7908.75,3607.97 L7908.75,3676.04 L8045.1,3676.04 L8045.1,3744.11 L8113.28,3744.11 L8113.28,3812.18 L8181.44,3812.18 L8181.44,4084.45 L8113.28,4084.45 L8113.28,4152.52 L8045.1,4152.52 L8045.1,4152.52 Z M5181.77,3403.77 L5386.29,3403.77 L5386.29,3539.91 L5181.77,3539.91 L5181.77,3403.77 Z M6204.39,3267.64 L6272.56,3267.64 L6272.56,3199.57 L6545.26,3199.57 L6545.26,3267.64 L6613.44,3267.64 L6613.44,3335.7 L6545.26,3335.7 L6545.26,3403.77 L6272.56,3403.77 L6272.56,3335.7 L6204.39,3335.7 L6204.39,3267.64 Z M5590.81,2586.95 L5590.81,2927.29 L5522.64,2927.29 L5522.64,2995.36 L5454.46,2995.36 L5454.46,3063.43 L5318.11,3063.43 L5318.11,3131.49 L5181.77,3131.49 L5181.77,3199.57 L4909.07,3199.57 L4909.07,3267.64 L4431.85,3267.64 L4431.85,3335.7 L4159.15,3335.7 L4159.15,3403.77 L4022.8,3403.77 L4022.8,3471.84 L3954.62,3471.84 L3954.62,3539.91 L3886.45,3539.91 L3886.45,3744.11 L3818.28,3744.11 L3818.28,3812.18 L4159.15,3812.18 L4159.15,3880.25 L4295.5,3880.25 L4295.5,3948.32 L4431.85,3948.32 L4431.85,4016.39 L4500.02,4016.39 L4500.02,4288.66 L4431.85,4288.66 L4431.85,4356.72 L4295.5,4356.72 L4295.5,4424.8 L4159.15,4424.8 L4159.15,4492.87 L3545.58,4492.87 L3545.58,4424.8 L3409.23,4424.8 L3409.23,4356.72 L3272.88,4356.72 L3272.88,4424.8 L3068.36,4424.8 L3068.36,4492.87 L2863.83,4492.87 L2863.83,4560.93 L2659.31,4560.93 L2659.31,4629 L2454.79,4629 L2454.79,4697.06 L2250.26,4697.06 L2250.26,4765.14 L1977.56,4765.14 L1977.56,4833.2 L1773.04,4833.2 L1773.04,4901.28 L1704.86,4901.28 L1704.86,4969.34 L1636.68,4969.34 L1636.68,5037.41 L1568.52,5037.41 L1568.52,5105.48 L1500.34,5105.48 L1500.34,5173.54 L1432.16,5173.54 L1432.16,5241.62 L1363.99,5241.62 L1363.99,5309.68 L1295.81,5309.68 L1295.81,5377.75 L1227.64,5377.75 L1227.64,5445.81 L1159.46,5445.81 L1159.46,5513.89 L1091.29,5513.89 L1091.29,5581.95 L1023.11,5581.95 L1023.11,5650.02 L954.95,5650.02 L954.95,5718.1 L886.77,5718.1 L886.77,5786.16 L818.58,5786.16 L818.58,5854.23 L750.42,5854.23 L750.42,5922.29 L682.24,5922.29 L682.24,5990.36 L614.07,5990.36 L614.07,6058.43 L545.89,6058.43 L545.89,6126.5 L477.72,6126.5 L477.72,6194.57 L409.54,6194.57 L409.54,6262.64 L341.38,6262.64 L341.38,6330.71 L273.19,6330.71 L273.19,6398.78 L205.01,6398.78 L205.01,6466.84 L614.07,6466.84 L614.07,6398.78 L1023.11,6398.78 L1023.11,6330.71 L1432.16,6330.71 L1432.16,6262.64 L1841.21,6262.64 L1841.21,6194.57 L2250.26,6194.57 L2250.26,6126.5 L2386.61,6126.5 L2386.61,6058.43 L2659.31,6058.43 L2659.31,5990.36 L2932.01,5990.36 L2932.01,5922.29 L3204.71,5922.29 L3204.71,5854.23 L3477.4,5854.23 L3477.4,5786.16 L3750.09,5786.16 L3750.09,5718.1 L4022.8,5718.1 L4022.8,5650.02 L4227.32,5650.02 L4227.32,5581.95 L4363.67,5581.95 L4363.67,5513.89 L4431.85,5513.89 L4431.85,5445.81 L4568.2,5445.81 L4568.2,5377.75 L4636.37,5377.75 L4636.37,5309.68 L4772.72,5309.68 L4772.72,5241.62 L4840.89,5241.62 L4840.89,5173.54 L4977.24,5173.54 L4977.24,5105.48 L5113.59,5105.48 L5113.59,5037.41 L5318.11,5037.41 L5318.11,4969.34 L5522.64,4969.34 L5522.64,4901.28 L5727.16,4901.28 L5727.16,4833.2 L5999.87,4833.2 L5999.87,4765.14 L5863.51,4765.14 L5863.51,4629 L5999.87,4629 L5999.87,4560.93 L6272.56,4560.93 L6272.56,4629 L6408.91,4629 L6408.91,4697.06 L6817.96,4697.06 L6817.96,4765.14 L7090.65,4765.14 L7090.65,4833.2 L7227.01,4833.2 L7227.01,4629 L7295.18,4629 L7295.18,4560.93 L7499.71,4560.93 L7499.71,4492.87 L7908.75,4492.87 L7908.75,4560.93 L8113.28,4560.93 L8113.28,4629 L8181.44,4629 L8181.44,4765.14 L8249.62,4765.14 L8249.62,4697.06 L8385.97,4697.06 L8385.97,4629 L8454.15,4629 L8454.15,4560.93 L8522.32,4560.93 L8522.32,4492.87 L8658.67,4492.87 L8658.67,4424.8 L8795.01,4424.8 L8795.01,4356.72 L9204.07,4356.72 L9204.07,4424.8 L9408.58,4424.8 L9408.58,4492.87 L9476.76,4492.87 L9476.76,4697.06 L9408.58,4697.06 L9408.58,4765.14 L9749.47,4765.14 L9749.47,4833.2 L10431.22,4833.2 L10431.22,4765.14 L10363.04,4765.14 L10363.04,4629 L10294.87,4629 L10294.87,4560.93 L10226.69,4560.93 L10226.69,4492.87 L10158.51,4492.87 L10158.51,4424.8 L10022.16,4424.8 L10022.16,4560.93 L9953.99,4560.93 L9953.99,4492.87 L9885.81,4492.87 L9885.81,4424.8 L9817.64,4424.8 L9817.64,4356.72 L9749.47,4356.72 L9749.47,4288.66 L9613.11,4288.66 L9613.11,4220.58 L9544.94,4220.58 L9544.94,4152.52 L9476.76,4152.52 L9476.76,4084.45 L9408.58,4084.45 L9408.58,4016.39 L9340.42,4016.39 L9340.42,3880.25 L9408.58,3880.25 L9408.58,3812.18 L9272.24,3812.18 L9272.24,3744.11 L9204.07,3744.11 L9204.07,3676.04 L9067.72,3676.04 L9067.72,3607.97 L8931.37,3607.97 L8931.37,3539.91 L8863.19,3539.91 L8863.19,3471.84 L8726.85,3471.84 L8726.85,3403.77 L8590.5,3403.77 L8590.5,3335.7 L8522.32,3335.7 L8522.32,3267.64 L8385.97,3267.64 L8385.97,3199.57 L8249.62,3199.57 L8249.62,3131.49 L8181.44,3131.49 L8181.44,3335.7 L8249.62,3335.7 L8249.62,3403.77 L8181.44,3403.77 L8181.44,3471.84 L7976.93,3471.84 L7976.93,3403.77 L7908.75,3403.77 L7908.75,3335.7 L7976.93,3335.7 L7976.93,2995.36 L7840.58,2995.36 L7840.58,2927.29 L7636.05,2927.29 L7636.05,2859.22 L7499.71,2859.22 L7499.71,2791.16 L7363.36,2791.16 L7363.36,2723.09 L7158.83,2723.09 L7158.83,2655.02 L7022.48,2655.02 L7022.48,2586.95 L6817.96,2586.95 L6817.96,2518.88 L6613.44,2518.88 L6613.44,2450.81 L6408.91,2450.81 L6408.91,2382.74 L6204.39,2382.74 L6204.39,2450.81 L6068.04,2450.81 L6068.04,2382.74 L5727.16,2382.74 L5727.16,2450.81 L5658.99,2450.81 L5658.99,2518.88 L5727.16,2518.88 L5727.16,2586.95 L5590.81,2586.95 L5590.81,2586.95 Z M10090.34,4424.8 L10090.34,4356.72 L10022.16,4356.72 L10022.16,4288.66 L9953.99,4288.66 L9953.99,4220.58 L9817.64,4220.58 L9817.64,4152.52 L9749.47,4152.52 L9749.47,4084.45 L9681.29,4084.45 L9681.29,4016.39 L9544.94,4016.39 L9544.94,3948.32 L9476.76,3948.32 L9476.76,3880.25 L9340.42,3880.25 L9340.42,4016.39 L9408.58,4016.39 L9408.58,4084.45 L9476.76,4084.45 L9476.76,4152.52 L9544.94,4152.52 L9544.94,4220.58 L9613.11,4220.58 L9613.11,4288.66 L9749.47,4288.66 L9749.47,4356.72 L9817.64,4356.72 L9817.64,4424.8 L9885.81,4424.8 L9885.81,4492.87 L9953.99,4492.87 L9953.99,4560.93 L10022.16,4560.93 L10022.16,4424.8 L10090.34,4424.8 L10090.34,4424.8 Z M4568.2,2042.41 L4568.2,2110.47 L4500.02,2110.47 L4500.02,2178.54 L4840.89,2178.54 L4840.89,2246.6 L5181.77,2246.6 L5181.77,2314.67 L5386.29,2314.67 L5386.29,2382.74 L5454.46,2382.74 L5454.46,2450.81 L5522.64,2450.81 L5522.64,2518.88 L5590.81,2518.88 L5590.81,2586.95 L5727.16,2586.95 L5727.16,2518.88 L5658.99,2518.88 L5658.99,2450.81 L5727.16,2450.81 L5727.16,2382.74 L6068.04,2382.74 L6068.04,2450.81 L6204.39,2450.81 L6204.39,2314.67 L5999.87,2314.67 L5999.87,2246.6 L5795.34,2246.6 L5795.34,2178.54 L5590.81,2178.54 L5590.81,2110.47 L5318.11,2110.47 L5318.11,2042.41 L5045.42,2042.41 L5045.42,1974.33 L4636.37,1974.33 L4636.37,2042.41 L4568.2,2042.41 L4568.2,2042.41 Z M8181.44,3403.77 L8181.44,3335.7 L8113.28,3335.7 L8113.28,3403.77 L8181.44,3403.77 Z M8045.1,3403.77 L8045.1,3335.7 L7976.93,3335.7 L7976.93,3403.77 L8045.1,3403.77 Z" id="1" fill="#C7392C"></path>
            <path d="M6817.96,6398.78 L6886.13,6398.78 L6886.13,6330.71 L7090.65,6330.71 L7090.65,6262.64 L7499.71,6262.64 L7499.71,6330.71 L7704.22,6330.71 L7704.22,6398.78 L7772.4,6398.78 L7772.4,6602.98 L7704.22,6602.98 L7704.22,6671.05 L7499.71,6671.05 L7499.71,6739.12 L7090.65,6739.12 L7090.65,6671.05 L6886.13,6671.05 L6886.13,6602.98 L6817.96,6602.98 L6817.96,6398.78 Z M7431.53,5990.36 L7567.87,5990.36 L7567.87,5922.29 L7840.58,5922.29 L7840.58,5990.36 L7976.93,5990.36 L7976.93,6126.5 L7840.58,6126.5 L7840.58,6194.57 L7567.87,6194.57 L7567.87,6126.5 L7431.53,6126.5 L7431.53,5990.36 Z M8658.67,5990.36 L8726.85,5990.36 L8726.85,5922.29 L8999.54,5922.29 L8999.54,5990.36 L9067.72,5990.36 L9067.72,6058.43 L8999.54,6058.43 L8999.54,6126.5 L8726.85,6126.5 L8726.85,6058.43 L8658.67,6058.43 L8658.67,5990.36 Z M2113.91,6739.12 L2113.91,6807.19 L2250.26,6807.19 L2250.26,6875.26 L2386.61,6875.26 L2386.61,6943.33 L2522.95,6943.33 L2522.95,7011.39 L2727.48,7011.39 L2727.48,7079.46 L2932.01,7079.46 L2932.01,7147.53 L3136.52,7147.53 L3136.52,7215.6 L3341.05,7215.6 L3341.05,7283.67 L3613.75,7283.67 L3613.75,7351.74 L3954.62,7351.74 L3954.62,7419.8 L4363.67,7419.8 L4363.67,7487.87 L4977.24,7487.87 L4977.24,7555.93 L6613.44,7555.93 L6613.44,7487.87 L7227.01,7487.87 L7227.01,7419.8 L7636.05,7419.8 L7636.05,7351.74 L7976.93,7351.74 L7976.93,7283.67 L8249.62,7283.67 L8249.62,7215.6 L8454.15,7215.6 L8454.15,7147.53 L8658.67,7147.53 L8658.67,7079.46 L8863.19,7079.46 L8863.19,7011.39 L9067.72,7011.39 L9067.72,6943.33 L9204.07,6943.33 L9204.07,6875.26 L9340.42,6875.26 L9340.42,6807.19 L9476.76,6807.19 L9476.76,6739.12 L9613.11,6739.12 L9613.11,6671.05 L9749.47,6671.05 L9749.47,6602.98 L9817.64,6602.98 L9817.64,6534.91 L9953.99,6534.91 L9953.99,6466.84 L10022.16,6466.84 L10022.16,6398.78 L10090.34,6398.78 L10090.34,6330.71 L10226.69,6330.71 L10226.69,6262.64 L10294.87,6262.64 L10294.87,6194.57 L10363.04,6194.57 L10363.04,6126.5 L10431.22,6126.5 L10431.22,6058.43 L10499.38,6058.43 L10499.38,5922.29 L10567.56,5922.29 L10567.56,5854.23 L10635.73,5854.23 L10635.73,5718.1 L10703.91,5718.1 L10703.91,5581.95 L10772.08,5581.95 L10772.08,5377.75 L10840.26,5377.75 L10840.26,5309.68 L10431.22,5309.68 L10431.22,5377.75 L10022.16,5377.75 L10022.16,5445.81 L9613.11,5445.81 L9613.11,5513.89 L9204.07,5513.89 L9204.07,5581.95 L8795.01,5581.95 L8795.01,5650.02 L8385.97,5650.02 L8385.97,5718.1 L7976.93,5718.1 L7976.93,5786.16 L7567.87,5786.16 L7567.87,5854.23 L7158.83,5854.23 L7158.83,5922.29 L6749.79,5922.29 L6749.79,5990.36 L6340.73,5990.36 L6340.73,6058.43 L5931.69,6058.43 L5931.69,6126.5 L5522.64,6126.5 L5522.64,6194.57 L5113.59,6194.57 L5113.59,6262.64 L4704.54,6262.64 L4704.54,6330.71 L4295.5,6330.71 L4295.5,6398.78 L3886.45,6398.78 L3886.45,6466.84 L3477.4,6466.84 L3477.4,6534.91 L3068.36,6534.91 L3068.36,6602.98 L2659.31,6602.98 L2659.31,6671.05 L2250.26,6671.05 L2250.26,6739.12 L2113.91,6739.12 L2113.91,6739.12 Z M3341.05,2859.22 L3341.05,2927.29 L3136.52,2927.29 L3136.52,2995.36 L2932.01,2995.36 L2932.01,3063.43 L2727.48,3063.43 L2727.48,3131.49 L2522.95,3131.49 L2522.95,3199.57 L2386.61,3199.57 L2386.61,3267.64 L2250.26,3267.64 L2250.26,3335.7 L2113.91,3335.7 L2113.91,3403.77 L1977.56,3403.77 L1977.56,3471.84 L1841.21,3471.84 L1841.21,3539.91 L1773.04,3539.91 L1773.04,3607.97 L1636.68,3607.97 L1636.68,3676.04 L1568.52,3676.04 L1568.52,3744.11 L1500.34,3744.11 L1500.34,3812.18 L1363.99,3812.18 L1363.99,3880.25 L1295.81,3880.25 L1295.81,3948.32 L1227.64,3948.32 L1227.64,4016.39 L1159.46,4016.39 L1159.46,4084.45 L1091.29,4084.45 L1091.29,4220.58 L1023.11,4220.58 L1023.11,4288.66 L954.95,4288.66 L954.95,4424.8 L886.77,4424.8 L886.77,4560.93 L818.58,4560.93 L818.58,4765.14 L750.42,4765.14 L750.42,5377.75 L818.58,5377.75 L818.58,5581.95 L886.77,5581.95 L886.77,5650.02 L954.95,5650.02 L954.95,5581.95 L1023.11,5581.95 L1023.11,5513.89 L1091.29,5513.89 L1091.29,5445.81 L1159.46,5445.81 L1159.46,5377.75 L1227.64,5377.75 L1227.64,5309.68 L1295.81,5309.68 L1295.81,5241.62 L1363.99,5241.62 L1363.99,5173.54 L1432.16,5173.54 L1432.16,5105.48 L1500.34,5105.48 L1500.34,5037.41 L1568.52,5037.41 L1568.52,4969.34 L1636.68,4969.34 L1636.68,4901.28 L1704.86,4901.28 L1704.86,4833.2 L1773.04,4833.2 L1773.04,4765.14 L1841.21,4765.14 L1841.21,4697.06 L1909.38,4697.06 L1909.38,4629 L1977.56,4629 L1977.56,4560.93 L2045.74,4560.93 L2045.74,4492.87 L2113.91,4492.87 L2113.91,4424.8 L2182.09,4424.8 L2182.09,4356.72 L2250.26,4356.72 L2250.26,4288.66 L2318.44,4288.66 L2318.44,4220.58 L2386.61,4220.58 L2386.61,4152.52 L2454.79,4152.52 L2454.79,4084.45 L2522.95,4084.45 L2522.95,4016.39 L2591.14,4016.39 L2591.14,3948.32 L2659.31,3948.32 L2659.31,3880.25 L2727.48,3880.25 L2727.48,3812.18 L2795.66,3812.18 L2795.66,3744.11 L2863.83,3744.11 L2863.83,3676.04 L2932.01,3676.04 L2932.01,3607.97 L3000.18,3607.97 L3000.18,3539.91 L3068.36,3539.91 L3068.36,3471.84 L3136.52,3471.84 L3136.52,3403.77 L3204.71,3403.77 L3204.71,3335.7 L3272.88,3335.7 L3272.88,3267.64 L3341.05,3267.64 L3341.05,3199.57 L3409.23,3199.57 L3409.23,3131.49 L3477.4,3131.49 L3477.4,3063.43 L3545.58,3063.43 L3545.58,2995.36 L3613.75,2995.36 L3613.75,2927.29 L3681.93,2927.29 L3681.93,2859.22 L3750.09,2859.22 L3750.09,2791.16 L3613.75,2791.16 L3613.75,2859.22 L3341.05,2859.22 L3341.05,2859.22 Z" id="Shape" fill="#E3E3E6"></path>
            <polygon id="Path" fill="#FFFFFF" points="8590.5 2723.08 8726.85 2723.08 8726.85 2791.16 8863.2 2791.16 8863.2 2859.22 8999.54 2859.22 8999.54 2927.29 9135.89 2927.29 9135.89 2995.35 9204.07 2995.35 9204.07 3063.43 9340.42 3063.43 9340.42 3131.49 9476.77 3131.49 9476.77 3199.56 9544.94 3199.56 9544.94 3267.64 9681.29 3267.64 9681.29 3335.7 9817.64 3335.7 9817.64 3403.77 9885.81 3403.77 9885.81 3471.83 10022.16 3471.83 10022.16 3539.91 10090.34 3539.91 10090.34 3607.97 10158.51 3607.97 10158.51 3676.04 10294.87 3676.04 10294.87 3744.11 10363.04 3744.11 10363.04 3812.18 10431.21 3812.18 10431.21 3880.25 10567.56 3880.25 10567.56 3948.31 10635.73 3948.31 10635.73 4016.39 10703.91 4016.39 10703.91 4084.45 10772.08 4084.45 10772.08 4152.52 10840.26 4152.52 10840.26 4220.59 10908.44 4220.59 10908.44 4288.66 10976.61 4288.66 10976.61 4356.72 11044.79 4356.72 11044.79 4424.79 11112.95 4424.79 11112.95 4492.87 11181.13 4492.87 11181.13 4560.93 11249.3 4560.93 11249.3 4629 11317.48 4629 11317.48 5037.41 11249.3 5037.41 11249.3 5105.48 11112.95 5105.48 11112.95 5173.54 10976.61 5173.54 10976.61 5241.62 10908.44 5241.62 10908.44 5377.75 10840.26 5377.75 10840.26 5581.95 10772.08 5581.95 10772.08 5718.1 10703.91 5718.1 10703.91 5854.23 10635.73 5854.23 10635.73 5922.3 10567.56 5922.3 10567.56 6058.43 10499.38 6058.43 10499.38 6126.5 10431.21 6126.5 10431.21 6194.57 10363.04 6194.57 10363.04 6262.64 10294.87 6262.64 10294.87 6330.71 10226.69 6330.71 10226.69 6398.78 10090.34 6398.78 10090.34 6466.85 10022.16 6466.85 10022.16 6534.91 9953.99 6534.91 9953.99 6602.98 9817.64 6602.98 9817.64 6671.05 9749.46 6671.05 9749.46 6739.12 9613.12 6739.12 9613.12 6807.18 9476.77 6807.18 9476.77 6875.26 9340.42 6875.26 9340.42 6943.33 9204.07 6943.33 9204.07 7011.39 9067.72 7011.39 9067.72 7079.46 8863.2 7079.46 8863.2 7147.53 8658.67 7147.53 8658.67 7215.6 8454.15 7215.6 8454.15 7283.66 8249.62 7283.66 8249.62 7351.73 7976.93 7351.73 7976.93 7419.8 7636.05 7419.8 7636.05 7487.87 7227.01 7487.87 7227.01 7555.93 6613.44 7555.93 6613.44 7624.01 4977.24 7624.01 4977.24 7555.93 4363.67 7555.93 4363.67 7487.87 3954.62 7487.87 3954.62 7419.8 3613.75 7419.8 3613.75 7351.73 3341.05 7351.73 3341.05 7283.66 3136.53 7283.66 3136.53 7215.6 2932.01 7215.6 2932.01 7147.53 2727.48 7147.53 2727.48 7079.46 2522.95 7079.46 2522.95 7011.39 2386.61 7011.39 2386.61 6943.33 2250.26 6943.33 2250.26 6875.26 2113.91 6875.26 2113.91 6807.18 1977.56 6807.18 1977.56 6739.12 1091.29 6739.12 1091.29 6807.18 1227.64 6807.18 1227.64 6875.26 1295.81 6875.26 1295.81 6943.33 1432.16 6943.33 1432.16 7011.39 1568.52 7011.39 1568.52 7079.46 1704.87 7079.46 1704.87 7147.53 1841.21 7147.53 1841.21 7215.6 1977.56 7215.6 1977.56 7283.66 2113.91 7283.66 2113.91 7351.73 2318.44 7351.73 2318.44 7419.8 2522.95 7419.8 2522.95 7487.87 2727.48 7487.87 2727.48 7555.93 2932.01 7555.93 2932.01 7624.01 3204.7 7624.01 3204.7 7692.08 3477.4 7692.08 3477.4 7760.14 3818.28 7760.14 3818.28 7828.21 4295.5 7828.21 4295.5 7896.28 4909.07 7896.28 4909.07 7964.35 6681.61 7964.35 6681.61 7896.28 7295.18 7896.28 7295.18 7828.21 7772.4 7828.21 7772.4 7760.14 8113.28 7760.14 8113.28 7692.08 8385.97 7692.08 8385.97 7624.01 8658.67 7624.01 8658.67 7555.93 8863.2 7555.93 8863.2 7487.87 9067.72 7487.87 9067.72 7419.8 9272.24 7419.8 9272.24 7351.73 9476.77 7351.73 9476.77 7283.66 9613.12 7283.66 9613.12 7215.6 9749.46 7215.6 9749.46 7147.53 9885.81 7147.53 9885.81 7079.46 10022.16 7079.46 10022.16 7011.39 10158.51 7011.39 10158.51 6943.33 10294.87 6943.33 10294.87 6875.26 10363.04 6875.26 10363.04 6807.18 10499.38 6807.18 10499.38 6739.12 10567.56 6739.12 10567.56 6671.05 10635.73 6671.05 10635.73 6602.98 10772.08 6602.98 10772.08 6534.91 10840.26 6534.91 10840.26 6466.85 10908.44 6466.85 10908.44 6398.78 10976.61 6398.78 10976.61 6330.71 11044.79 6330.71 11044.79 6262.64 11112.95 6262.64 11112.95 6194.57 11181.13 6194.57 11181.13 6126.5 11249.3 6126.5 11249.3 5990.37 11317.48 5990.37 11317.48 5922.3 11385.65 5922.3 11385.65 5786.16 11453.83 5786.16 11453.83 5581.95 11522.01 5581.95 11522.01 4765.14 11453.83 4765.14 11453.83 4560.93 11385.65 4560.93 11385.65 4356.72 11317.48 4356.72 11317.48 4220.59 11249.3 4220.59 11249.3 4152.52 11181.13 4152.52 11181.13 4016.39 11112.95 4016.39 11112.95 3948.31 11044.79 3948.31 11044.79 3880.25 10976.61 3880.25 10976.61 3812.18 10908.44 3812.18 10908.44 3744.11 10840.26 3744.11 10840.26 3676.04 10772.08 3676.04 10772.08 3607.97 10635.73 3607.97 10635.73 3539.91 10567.56 3539.91 10567.56 3471.83 10499.38 3471.83 10499.38 3403.77 10363.04 3403.77 10363.04 3335.7 10294.87 3335.7 10294.87 3267.64 10158.51 3267.64 10158.51 3199.56 10022.16 3199.56 10022.16 3131.49 9885.81 3131.49 9885.81 3063.43 9749.46 3063.43 9749.46 2995.35 9613.12 2995.35 9613.12 2927.29 9476.77 2927.29 9476.77 2859.22 9272.24 2859.22 9272.24 2791.16 9067.72 2791.16 9067.72 2723.08 8863.2 2723.08 8863.2 2655.02 8658.67 2655.02 8658.67 2586.95 8454.15 2586.95 8454.15 2655.02 8590.5 2655.02"></polygon>
            <path d="M11453.83,5786.16 L11453.83,5990.36 L11385.65,5990.36 L11385.65,6126.5 L11317.48,6126.5 L11317.48,6194.57 L11249.31,6194.57 L11249.31,6330.71 L11181.13,6330.71 L11181.13,6398.78 L11112.95,6398.78 L11112.95,6466.84 L11044.79,6466.84 L11044.79,6534.91 L10976.61,6534.91 L10976.61,6602.98 L10908.44,6602.98 L10908.44,6671.05 L10840.26,6671.05 L10840.26,6739.12 L10772.08,6739.12 L10772.08,6807.19 L10635.73,6807.19 L10635.73,6875.26 L10567.56,6875.26 L10567.56,6943.33 L10499.38,6943.33 L10499.38,7011.39 L10363.04,7011.39 L10363.04,7079.46 L10294.87,7079.46 L10294.87,7147.53 L10158.51,7147.53 L10158.51,7215.6 L10022.16,7215.6 L10022.16,7283.67 L9885.81,7283.67 L9885.81,7351.74 L9749.47,7351.74 L9749.47,7419.8 L9613.11,7419.8 L9613.11,7487.87 L9476.76,7487.87 L9476.76,7555.93 L9272.24,7555.93 L9272.24,7624.01 L9067.72,7624.01 L9067.72,7692.08 L8863.19,7692.08 L8863.19,7760.15 L8658.67,7760.15 L8658.67,7828.22 L8385.97,7828.22 L8385.97,7896.28 L8113.28,7896.28 L8113.28,7964.35 L7772.4,7964.35 L7772.4,8032.41 L7295.18,8032.41 L7295.18,8100.49 L6681.61,8100.49 L6681.61,8168.55 L4909.07,8168.55 L4909.07,8100.49 L4295.5,8100.49 L4295.5,8032.41 L3818.28,8032.41 L3818.28,7964.35 L3477.4,7964.35 L3477.4,7896.28 L3204.71,7896.28 L3204.71,7828.22 L2932.01,7828.22 L2932.01,7760.15 L2727.48,7760.15 L2727.48,7692.08 L2522.95,7692.08 L2522.95,7624.01 L2318.44,7624.01 L2318.44,7555.93 L2113.91,7555.93 L2113.91,7487.87 L1977.56,7487.87 L1977.56,7419.8 L1841.21,7419.8 L1841.21,7351.74 L1704.86,7351.74 L1704.86,7283.67 L1568.52,7283.67 L1568.52,7215.6 L1432.16,7215.6 L1432.16,7147.53 L1295.81,7147.53 L1295.81,7079.46 L1227.64,7079.46 L1227.64,7011.39 L1091.29,7011.39 L1091.29,6943.33 L1023.11,6943.33 L1023.11,6875.26 L954.95,6875.26 L954.95,6807.19 L614.07,6807.19 L614.07,6875.26 L545.89,6875.26 L545.89,6943.33 L614.07,6943.33 L614.07,7011.39 L545.89,7011.39 L545.89,7079.46 L477.72,7079.46 L477.72,7147.53 L409.54,7147.53 L409.54,7215.6 L341.38,7215.6 L341.38,7283.67 L273.19,7283.67 L273.19,7351.74 L205.01,7351.74 L205.01,7487.87 L750.42,7487.87 L750.42,7419.8 L1227.64,7419.8 L1227.64,7487.87 L1295.81,7487.87 L1295.81,7555.93 L1432.16,7555.93 L1432.16,7624.01 L1568.52,7624.01 L1568.52,7692.08 L1704.86,7692.08 L1704.86,7760.15 L1841.21,7760.15 L1841.21,7828.22 L1977.56,7828.22 L1977.56,7896.28 L2113.91,7896.28 L2113.91,7964.35 L2318.44,7964.35 L2318.44,8032.41 L2522.95,8032.41 L2522.95,8100.49 L2727.48,8100.49 L2727.48,8168.55 L2932.01,8168.55 L2932.01,8236.62 L3204.71,8236.62 L3204.71,8304.7 L3477.4,8304.7 L3477.4,8372.76 L3818.28,8372.76 L3818.28,8440.83 L4295.5,8440.83 L4295.5,8508.89 L4909.07,8508.89 L4909.07,8576.97 L6681.61,8576.97 L6681.61,8508.89 L7295.18,8508.89 L7295.18,8440.83 L7772.4,8440.83 L7772.4,8372.76 L8113.28,8372.76 L8113.28,8304.7 L8385.97,8304.7 L8385.97,8236.62 L8658.67,8236.62 L8658.67,8168.55 L8863.19,8168.55 L8863.19,8100.49 L9067.72,8100.49 L9067.72,8032.41 L9272.24,8032.41 L9272.24,7964.35 L9476.76,7964.35 L9476.76,7896.28 L9613.11,7896.28 L9613.11,7828.22 L9749.47,7828.22 L9749.47,7760.15 L9885.81,7760.15 L9885.81,7692.08 L10022.16,7692.08 L10022.16,7624.01 L10158.51,7624.01 L10158.51,7555.93 L10294.87,7555.93 L10294.87,7487.87 L10363.04,7487.87 L10363.04,7419.8 L10499.38,7419.8 L10499.38,7351.74 L10567.56,7351.74 L10567.56,7283.67 L10635.73,7283.67 L10635.73,7215.6 L10772.08,7215.6 L10772.08,7147.53 L10840.26,7147.53 L10840.26,7079.46 L10908.44,7079.46 L10908.44,7011.39 L10976.61,7011.39 L10976.61,6943.33 L11044.79,6943.33 L11044.79,6875.26 L11112.95,6875.26 L11112.95,6807.19 L11181.13,6807.19 L11181.13,6739.12 L11249.31,6739.12 L11249.31,6602.98 L11317.48,6602.98 L11317.48,6534.91 L11385.65,6534.91 L11385.65,6398.78 L11453.83,6398.78 L11453.83,6194.57 L11522.01,6194.57 L11522.01,5990.36 L11590.18,5990.36 L11590.18,5581.95 L11522.01,5581.95 L11522.01,5786.16 L11453.83,5786.16 L11453.83,5786.16 Z M136.85,6398.78 L205.01,6398.78 L205.01,6330.71 L273.19,6330.71 L273.19,6262.64 L341.38,6262.64 L341.38,6194.57 L273.19,6194.57 L273.19,6126.5 L205.01,6126.5 L205.01,5990.36 L136.85,5990.36 L136.85,5786.16 L68.67,5786.16 L68.67,5581.95 L0.5,5581.95 L0.5,5990.36 L68.67,5990.36 L68.67,6194.57 L136.85,6194.57 L136.85,6398.78 L136.85,6398.78 Z" id="Shape" fill="#070530"></path>
            <polygon id="Path" fill="#F2F1E1" points="6272.56 4560.93 5999.87 4560.93 5999.87 4629 5863.52 4629 5863.52 4765.14 5999.87 4765.14 5999.87 4833.2 5727.16 4833.2 5727.16 4901.27 5522.64 4901.27 5522.64 4969.34 5318.12 4969.34 5318.12 5037.41 5113.59 5037.41 5113.59 5105.48 4977.24 5105.48 4977.24 5173.54 4840.89 5173.54 4840.89 5241.62 4772.72 5241.62 4772.72 5309.68 4636.37 5309.68 4636.37 5377.75 4568.2 5377.75 4568.2 5445.82 4431.85 5445.82 4431.85 5513.89 4363.67 5513.89 4363.67 5581.95 4227.32 5581.95 4227.32 5650.02 4022.8 5650.02 4022.8 5718.1 3750.1 5718.1 3750.1 5786.16 3477.4 5786.16 3477.4 5854.23 3204.7 5854.23 3204.7 5922.3 2932.01 5922.3 2932.01 5990.37 2659.3 5990.37 2659.3 6058.43 2386.61 6058.43 2386.61 6126.5 2795.66 6126.5 2795.66 6058.43 3068.36 6058.43 3068.36 5990.37 3477.4 5990.37 3477.4 5922.3 3886.45 5922.3 3886.45 5854.23 4568.2 5854.23 4568.2 5786.16 4772.72 5786.16 4772.72 5718.1 5249.95 5718.1 5249.95 5650.02 5522.64 5650.02 5522.64 5581.95 6068.03 5581.95 6068.03 5513.89 6340.73 5513.89 6340.73 5445.82 7227.01 5445.82 7227.01 5377.75 7363.36 5377.75 7363.36 5309.68 7567.87 5309.68 7567.87 5241.62 7976.93 5241.62 7976.93 5173.54 8385.97 5173.54 8385.97 5105.48 8795.02 5105.48 8795.02 5037.41 9544.94 5037.41 9544.94 4969.34 9749.46 4969.34 9749.46 4901.27 10022.16 4901.27 10022.16 4833.2 9749.46 4833.2 9749.46 4765.14 9408.59 4765.14 9408.59 4697.07 9476.77 4697.07 9476.77 4492.87 9408.59 4492.87 9408.59 4424.79 9204.07 4424.79 9204.07 4356.72 8795.02 4356.72 8795.02 4424.79 8658.67 4424.79 8658.67 4492.87 8522.32 4492.87 8522.32 4560.93 8454.15 4560.93 8454.15 4629 8385.97 4629 8385.97 4697.07 8249.62 4697.07 8249.62 4765.14 8181.45 4765.14 8181.45 4629 8113.28 4629 8113.28 4560.93 7908.75 4560.93 7908.75 4492.87 7499.7 4492.87 7499.7 4560.93 7295.18 4560.93 7295.18 4629 7227.01 4629 7227.01 4833.2 7090.65 4833.2 7090.65 4765.14 6817.95 4765.14 6817.95 4697.07 6408.91 4697.07 6408.91 4629 6272.56 4629"></polygon>
            <polygon id="Path" fill="#F0EFE4" points="4363.67 2246.6 4363.67 2314.68 4295.5 2314.68 4295.5 2382.74 4227.32 2382.74 4227.32 2450.81 4159.15 2450.81 4159.15 2518.88 4090.97 2518.88 4090.97 2586.95 4022.8 2586.95 4022.8 2655.02 3954.62 2655.02 3954.62 2723.08 3886.45 2723.08 3886.45 2791.16 3818.28 2791.16 3818.28 2859.22 3750.1 2859.22 3750.1 2927.29 3681.93 2927.29 3681.93 2995.35 3613.75 2995.35 3613.75 3063.43 3545.58 3063.43 3545.58 3131.49 3477.4 3131.49 3477.4 3199.56 3409.23 3199.56 3409.23 3267.64 3341.05 3267.64 3341.05 3335.7 3272.87 3335.7 3272.87 3403.77 3204.7 3403.77 3204.7 3471.83 3136.53 3471.83 3136.53 3539.91 3068.36 3539.91 3068.36 3607.97 3000.18 3607.97 3000.18 3676.04 2932.01 3676.04 2932.01 3744.11 2863.83 3744.11 2863.83 3812.18 2795.66 3812.18 2795.66 3880.25 2727.48 3880.25 2727.48 3948.31 2659.3 3948.31 2659.3 4016.39 2591.13 4016.39 2591.13 4084.45 2522.95 4084.45 2522.95 4152.52 2454.78 4152.52 2454.78 4220.59 2386.61 4220.59 2386.61 4288.66 2318.44 4288.66 2318.44 4356.72 2250.26 4356.72 2250.26 4424.79 2182.09 4424.79 2182.09 4492.87 2113.91 4492.87 2113.91 4560.93 2045.73 4560.93 2045.73 4629 1977.56 4629 1977.56 4697.07 1909.38 4697.07 1909.38 4765.14 1841.21 4765.14 1841.21 4833.2 1977.56 4833.2 1977.56 4765.14 2250.26 4765.14 2250.26 4697.07 2454.78 4697.07 2454.78 4629 2659.3 4629 2659.3 4560.93 2863.83 4560.93 2863.83 4492.87 3068.36 4492.87 3068.36 4424.79 3272.87 4424.79 3272.87 4356.72 3409.23 4356.72 3409.23 4288.66 4295.5 4288.66 4295.5 4356.72 4431.85 4356.72 4431.85 4288.66 4500.02 4288.66 4500.02 4016.39 4431.85 4016.39 4431.85 3948.31 4295.5 3948.31 4295.5 3880.25 4159.15 3880.25 4159.15 3812.18 3818.28 3812.18 3818.28 3744.11 3886.45 3744.11 3886.45 3539.91 3954.62 3539.91 3954.62 3471.83 4022.8 3471.83 4022.8 3403.77 4159.15 3403.77 4159.15 3335.7 4431.85 3335.7 4431.85 3267.64 4909.07 3267.64 4909.07 3199.56 5181.77 3199.56 5181.77 3131.49 5318.12 3131.49 5318.12 3063.43 5454.46 3063.43 5454.46 2995.35 5522.64 2995.35 5522.64 2927.29 5590.81 2927.29 5590.81 2518.88 5522.64 2518.88 5522.64 2450.81 5454.46 2450.81 5454.46 2382.74 5386.29 2382.74 5386.29 2314.68 5181.77 2314.68 5181.77 2246.6 4840.89 2246.6 4840.89 2178.54 4431.85 2178.54 4431.85 2246.6"></polygon>
            <polygon id="Path" fill="#FFFFFF" points="3477.4 2450.81 3477.4 2518.88 3204.7 2518.88 3204.7 2586.95 2932.01 2586.95 2932.01 2655.02 2727.48 2655.02 2727.48 2723.08 2522.95 2723.08 2522.95 2791.16 2318.44 2791.16 2318.44 2859.22 2113.91 2859.22 2113.91 2927.29 1977.56 2927.29 1977.56 2995.35 1841.21 2995.35 1841.21 3063.43 1704.87 3063.43 1704.87 3131.49 1568.52 3131.49 1568.52 3199.56 1432.16 3199.56 1432.16 3267.64 1295.81 3267.64 1295.81 3335.7 1227.64 3335.7 1227.64 3403.77 1091.29 3403.77 1091.29 3471.83 1023.12 3471.83 1023.12 3539.91 954.95 3539.91 954.95 3607.97 818.59 3607.97 818.59 3676.04 750.42 3676.04 750.42 3744.11 682.24 3744.11 682.24 3812.18 614.07 3812.18 614.07 3880.25 545.89 3880.25 545.89 3948.31 477.72 3948.31 477.72 4016.39 409.54 4016.39 409.54 4152.52 341.37 4152.52 341.37 4220.59 273.2 4220.59 273.2 4356.72 205.02 4356.72 205.02 4560.93 136.85 4560.93 136.85 4765.14 68.67 4765.14 68.67 5581.95 136.85 5581.95 136.85 5786.16 205.02 5786.16 205.02 5922.3 273.2 5922.3 273.2 5990.37 341.37 5990.37 341.37 6126.5 477.72 6126.5 477.72 6058.43 545.89 6058.43 545.89 5990.37 614.07 5990.37 614.07 5922.3 682.24 5922.3 682.24 5854.23 750.42 5854.23 750.42 5786.16 818.59 5786.16 818.59 5581.95 750.42 5581.95 750.42 5377.75 682.24 5377.75 682.24 4765.14 750.42 4765.14 750.42 4560.93 818.59 4560.93 818.59 4424.79 886.77 4424.79 886.77 4288.66 954.95 4288.66 954.95 4220.59 1023.12 4220.59 1023.12 4084.45 1091.29 4084.45 1091.29 4016.39 1159.46 4016.39 1159.46 3948.31 1227.64 3948.31 1227.64 3880.25 1295.81 3880.25 1295.81 3812.18 1363.99 3812.18 1363.99 3744.11 1500.34 3744.11 1500.34 3676.04 1568.52 3676.04 1568.52 3607.97 1636.69 3607.97 1636.69 3539.91 1773.03 3539.91 1773.03 3471.83 1841.21 3471.83 1841.21 3403.77 1977.56 3403.77 1977.56 3335.7 2113.91 3335.7 2113.91 3267.64 2250.26 3267.64 2250.26 3199.56 2386.61 3199.56 2386.61 3131.49 2522.95 3131.49 2522.95 3063.43 2727.48 3063.43 2727.48 2995.35 2932.01 2995.35 2932.01 2927.29 3136.53 2927.29 3136.53 2859.22 3341.05 2859.22 3341.05 2791.16 3613.75 2791.16 3613.75 2723.08 3886.45 2723.08 3886.45 2655.02 3954.62 2655.02 3954.62 2586.95 4022.8 2586.95 4022.8 2518.88 4090.97 2518.88 4090.97 2450.81 4159.15 2450.81 4159.15 2382.74 3818.28 2382.74 3818.28 2450.81"></polygon>
            <polygon id="Path" fill="#FC9E4B" points="10431.21 4901.27 10431.21 4969.34 10022.16 4969.34 10022.16 5037.41 9749.46 5037.41 9749.46 5105.48 9544.94 5105.48 9544.94 5173.54 8795.02 5173.54 8795.02 5241.62 8385.97 5241.62 8385.97 5309.68 7976.93 5309.68 7976.93 5377.75 7567.87 5377.75 7567.87 5445.82 7363.36 5445.82 7363.36 5513.89 7227.01 5513.89 7227.01 5581.95 6340.73 5581.95 6340.73 5650.02 6068.03 5650.02 6068.03 5718.1 5522.64 5718.1 5522.64 5786.16 5249.95 5786.16 5249.95 5854.23 4772.72 5854.23 4772.72 5922.3 4568.2 5922.3 4568.2 5990.37 3886.45 5990.37 3886.45 6058.43 3477.4 6058.43 3477.4 6126.5 3068.36 6126.5 3068.36 6194.57 2795.66 6194.57 2795.66 6262.64 2250.26 6262.64 2250.26 6330.71 1841.21 6330.71 1841.21 6398.78 1432.16 6398.78 1432.16 6466.85 1023.12 6466.85 1023.12 6534.91 614.07 6534.91 614.07 6602.98 205.02 6602.98 205.02 6807.18 614.07 6807.18 614.07 6739.12 1023.12 6739.12 1023.12 6671.05 1432.16 6671.05 1432.16 6602.98 1841.21 6602.98 1841.21 6534.91 2250.26 6534.91 2250.26 6466.85 2659.3 6466.85 2659.3 6398.78 3068.36 6398.78 3068.36 6330.71 3477.4 6330.71 3477.4 6262.64 3886.45 6262.64 3886.45 6194.57 4295.5 6194.57 4295.5 6126.5 4704.54 6126.5 4704.54 6058.43 5113.59 6058.43 5113.59 5990.37 5522.64 5990.37 5522.64 5922.3 5931.69 5922.3 5931.69 5854.23 6340.73 5854.23 6340.73 5786.16 6749.79 5786.16 6749.79 5718.1 7158.83 5718.1 7158.83 5650.02 7567.87 5650.02 7567.87 5581.95 7976.93 5581.95 7976.93 5513.89 8385.97 5513.89 8385.97 5445.82 8795.02 5445.82 8795.02 5377.75 9204.07 5377.75 9204.07 5309.68 9613.12 5309.68 9613.12 5241.62 10022.16 5241.62 10022.16 5173.54 10431.21 5173.54 10431.21 5105.48 10840.26 5105.48 10840.26 5037.41 11249.3 5037.41 11249.3 4833.2 10840.26 4833.2 10840.26 4901.27"></polygon>
            <polygon id="Path" fill="#E4E8F4" points="1091.29 6739.12 1023.12 6739.12 1023.12 6875.26 1091.29 6875.26 1091.29 6943.33 1227.64 6943.33 1227.64 7011.39 1295.81 7011.39 1295.81 7079.46 1432.16 7079.46 1432.16 7147.53 1568.52 7147.53 1568.52 7215.6 1704.87 7215.6 1704.87 7283.66 1841.21 7283.66 1841.21 7351.73 1977.56 7351.73 1977.56 7419.8 2113.91 7419.8 2113.91 7487.87 2318.44 7487.87 2318.44 7555.93 2522.95 7555.93 2522.95 7624.01 2727.48 7624.01 2727.48 7692.08 2932.01 7692.08 2932.01 7760.14 3204.7 7760.14 3204.7 7828.21 3477.4 7828.21 3477.4 7896.28 3818.28 7896.28 3818.28 7964.35 4295.5 7964.35 4295.5 8032.41 4909.07 8032.41 4909.07 8100.49 6681.61 8100.49 6681.61 8032.41 7295.18 8032.41 7295.18 7964.35 7772.4 7964.35 7772.4 7896.28 8113.28 7896.28 8113.28 7828.21 8385.97 7828.21 8385.97 7760.14 8658.67 7760.14 8658.67 7692.08 8863.2 7692.08 8863.2 7624.01 9067.72 7624.01 9067.72 7555.93 9272.24 7555.93 9272.24 7487.87 9476.77 7487.87 9476.77 7419.8 9613.12 7419.8 9613.12 7351.73 9749.46 7351.73 9749.46 7283.66 9885.81 7283.66 9885.81 7215.6 10022.16 7215.6 10022.16 7147.53 10158.51 7147.53 10158.51 7079.46 10294.87 7079.46 10294.87 7011.39 10363.04 7011.39 10363.04 6943.33 10499.38 6943.33 10499.38 6875.26 10567.56 6875.26 10567.56 6807.18 10635.73 6807.18 10635.73 6739.12 10772.08 6739.12 10772.08 6671.05 10840.26 6671.05 10840.26 6602.98 10908.44 6602.98 10908.44 6534.91 10976.61 6534.91 10976.61 6466.85 11044.79 6466.85 11044.79 6398.78 11112.95 6398.78 11112.95 6330.71 11181.13 6330.71 11181.13 6194.57 11112.95 6194.57 11112.95 6262.64 11044.79 6262.64 11044.79 6330.71 10976.61 6330.71 10976.61 6398.78 10908.44 6398.78 10908.44 6466.85 10840.26 6466.85 10840.26 6534.91 10772.08 6534.91 10772.08 6602.98 10635.73 6602.98 10635.73 6671.05 10567.56 6671.05 10567.56 6739.12 10499.38 6739.12 10499.38 6807.18 10363.04 6807.18 10363.04 6875.26 10294.87 6875.26 10294.87 6943.33 10158.51 6943.33 10158.51 7011.39 10022.16 7011.39 10022.16 7079.46 9885.81 7079.46 9885.81 7147.53 9749.46 7147.53 9749.46 7215.6 9613.12 7215.6 9613.12 7283.66 9476.77 7283.66 9476.77 7351.73 9272.24 7351.73 9272.24 7419.8 9067.72 7419.8 9067.72 7487.87 8863.2 7487.87 8863.2 7555.93 8658.67 7555.93 8658.67 7624.01 8385.97 7624.01 8385.97 7692.08 8113.28 7692.08 8113.28 7760.14 7772.4 7760.14 7772.4 7828.21 7295.18 7828.21 7295.18 7896.28 6681.61 7896.28 6681.61 7964.35 4909.07 7964.35 4909.07 7896.28 4295.5 7896.28 4295.5 7828.21 3818.28 7828.21 3818.28 7760.14 3477.4 7760.14 3477.4 7692.08 3204.7 7692.08 3204.7 7624.01 2932.01 7624.01 2932.01 7555.93 2727.48 7555.93 2727.48 7487.87 2522.95 7487.87 2522.95 7419.8 2318.44 7419.8 2318.44 7351.73 2113.91 7351.73 2113.91 7283.66 1977.56 7283.66 1977.56 7215.6 1841.21 7215.6 1841.21 7147.53 1704.87 7147.53 1704.87 7079.46 1568.52 7079.46 1568.52 7011.39 1432.16 7011.39 1432.16 6943.33 1295.81 6943.33 1295.81 6875.26 1227.64 6875.26 1227.64 6807.18 1091.29 6807.18"></polygon>
            <path d="M4909.07,1702.06 L4909.07,1770.12 L4840.89,1770.12 L4840.89,1838.19 L4772.72,1838.19 L4772.72,1906.26 L5045.42,1906.26 L5045.42,1974.33 L5318.11,1974.33 L5318.11,2042.41 L5590.81,2042.41 L5590.81,2110.47 L5795.34,2110.47 L5795.34,2178.54 L5999.87,2178.54 L5999.87,2246.6 L6204.39,2246.6 L6204.39,2314.67 L6408.91,2314.67 L6408.91,2382.74 L6613.44,2382.74 L6613.44,2450.81 L6817.96,2450.81 L6817.96,2518.88 L7022.48,2518.88 L7022.48,2586.95 L7158.83,2586.95 L7158.83,2655.02 L7363.36,2655.02 L7363.36,2723.09 L7499.71,2723.09 L7499.71,2791.16 L7636.05,2791.16 L7636.05,2859.22 L7840.58,2859.22 L7840.58,2927.29 L7976.93,2927.29 L7976.93,2450.81 L7772.4,2450.81 L7772.4,2382.74 L7636.05,2382.74 L7636.05,2314.67 L7431.53,2314.67 L7431.53,2246.6 L7227.01,2246.6 L7227.01,2178.54 L7022.48,2178.54 L7022.48,2110.47 L6817.96,2110.47 L6817.96,2042.41 L6613.44,2042.41 L6613.44,1974.33 L6408.91,1974.33 L6408.91,1906.26 L6204.39,1906.26 L6204.39,1838.19 L5931.69,1838.19 L5931.69,1770.12 L5658.99,1770.12 L5658.99,1702.06 L5386.29,1702.06 L5386.29,1633.99 L4977.24,1633.99 L4977.24,1702.06 L4909.07,1702.06 L4909.07,1702.06 Z M8249.62,3131.49 L8385.97,3131.49 L8385.97,3199.57 L8522.32,3199.57 L8522.32,3267.64 L8590.5,3267.64 L8590.5,3335.7 L8726.85,3335.7 L8726.85,3403.77 L8863.19,3403.77 L8863.19,3471.84 L8931.37,3471.84 L8931.37,3539.91 L9067.72,3539.91 L9067.72,3607.97 L9204.07,3607.97 L9204.07,3676.04 L9272.24,3676.04 L9272.24,3744.11 L9408.58,3744.11 L9408.58,3812.18 L9476.76,3812.18 L9476.76,3880.25 L9544.94,3880.25 L9544.94,3948.32 L9681.29,3948.32 L9681.29,4016.39 L9749.47,4016.39 L9749.47,4084.45 L9817.64,4084.45 L9817.64,4152.52 L9953.99,4152.52 L9953.99,4220.58 L10022.16,4220.58 L10022.16,4288.66 L10090.34,4288.66 L10090.34,4356.72 L10158.51,4356.72 L10158.51,4424.8 L10226.69,4424.8 L10226.69,4492.87 L10294.87,4492.87 L10294.87,4560.93 L10363.04,4560.93 L10363.04,4629 L10431.22,4629 L10431.22,4765.14 L10840.26,4765.14 L10840.26,4697.06 L11249.31,4697.06 L11249.31,4629 L11181.13,4629 L11181.13,4560.93 L11112.95,4560.93 L11112.95,4492.87 L11044.79,4492.87 L11044.79,4424.8 L10976.61,4424.8 L10976.61,4356.72 L10908.44,4356.72 L10908.44,4288.66 L10840.26,4288.66 L10840.26,4220.58 L10772.08,4220.58 L10772.08,4152.52 L10703.91,4152.52 L10703.91,4084.45 L10635.73,4084.45 L10635.73,4016.39 L10567.56,4016.39 L10567.56,3948.32 L10431.22,3948.32 L10431.22,3880.25 L10363.04,3880.25 L10363.04,3812.18 L10294.87,3812.18 L10294.87,3744.11 L10158.51,3744.11 L10158.51,3676.04 L10090.34,3676.04 L10090.34,3607.97 L10022.16,3607.97 L10022.16,3539.91 L9885.81,3539.91 L9885.81,3471.84 L9817.64,3471.84 L9817.64,3403.77 L9681.29,3403.77 L9681.29,3335.7 L9544.94,3335.7 L9544.94,3267.64 L9476.76,3267.64 L9476.76,3199.57 L9340.42,3199.57 L9340.42,3131.49 L9204.07,3131.49 L9204.07,3063.43 L9135.89,3063.43 L9135.89,2995.36 L8999.54,2995.36 L8999.54,2927.29 L8863.19,2927.29 L8863.19,2859.22 L8726.85,2859.22 L8726.85,2791.16 L8590.5,2791.16 L8590.5,2723.09 L8454.15,2723.09 L8454.15,2655.02 L8249.62,2655.02 L8249.62,2586.95 L8181.44,2586.95 L8181.44,3063.43 L8249.62,3063.43 L8249.62,3131.49 L8249.62,3131.49 Z" id="Shape" fill="#FFEBBF"></path>
            <polygon id="Path" fill="#F2F1E1" points="6749.79 4152.52 6749.79 4084.45 7090.65 4084.45 7090.65 4152.52 7704.22 4152.52 7704.22 4084.45 8045.1 4084.45 8045.1 4152.52 8113.28 4152.52 8113.28 4084.45 8181.45 4084.45 8181.45 3812.18 8113.28 3812.18 8113.28 3744.11 8045.1 3744.11 8045.1 3676.04 7908.75 3676.04 7908.75 3607.97 7704.22 3607.97 7704.22 3539.91 7363.36 3539.91 7363.36 3471.83 7295.18 3471.83 7295.18 3403.77 7022.48 3403.77 7022.48 3471.83 6954.3 3471.83 6954.3 3539.91 7022.48 3539.91 7022.48 3607.97 6886.13 3607.97 6886.13 3676.04 6749.79 3676.04 6749.79 3744.11 6681.61 3744.11 6681.61 3812.18 6613.44 3812.18 6613.44 4084.45 6681.61 4084.45 6681.61 4152.52"></polygon>
            <polygon id="Path" fill="#D64537" points="7090.65 6330.71 6886.13 6330.71 6886.13 6398.78 6817.95 6398.78 6817.95 6602.98 6886.13 6602.98 6886.13 6671.05 7090.65 6671.05 7090.65 6739.12 7499.7 6739.12 7499.7 6671.05 7704.22 6671.05 7704.22 6602.98 7772.4 6602.98 7772.4 6398.78 7704.22 6398.78 7704.22 6330.71 7499.7 6330.71 7499.7 6262.64 7090.65 6262.64"></polygon>
            <polygon id="Path" fill="#F2F1E1" points="2659.3 5445.82 2659.3 5377.75 2522.95 5377.75 2522.95 5309.68 3204.7 5309.68 3204.7 5377.75 3068.36 5377.75 3068.36 5445.82 3272.87 5445.82 3272.87 5377.75 3341.05 5377.75 3341.05 5173.54 3272.87 5173.54 3272.87 5105.48 3068.36 5105.48 3068.36 5037.41 2659.3 5037.41 2659.3 5105.48 2454.78 5105.48 2454.78 5173.54 2386.61 5173.54 2386.61 5377.75 2454.78 5377.75 2454.78 5445.82"></polygon>
            <polygon id="Path" fill="#000000" points="7772.4 2382.74 7772.4 2450.81 7976.93 2450.81 7976.93 3335.7 8045.1 3335.7 8045.1 68.42 7976.93 68.42 7976.93 2382.74"></polygon>
            <polygon id="Path" fill="#FFFFFF" points="8113.28 3335.7 8113.28 68.42 8045.1 68.42 8045.1 3335.7"></polygon>
            <polygon id="Path" fill="#000000" points="8181.45 3335.7 8181.45 2586.95 8249.62 2586.95 8249.62 2518.88 8385.97 2518.88 8385.97 2450.81 8181.45 2450.81 8181.45 1497.85 8658.67 1497.85 8658.67 1429.79 8113.28 1429.79 8113.28 3335.7"></polygon>
            <polygon id="Path" fill="#FFFFFF" points="6886.13 4220.59 7090.65 4220.59 7090.65 4288.66 7704.22 4288.66 7704.22 4220.59 7908.75 4220.59 7908.75 4152.52 8045.1 4152.52 8045.1 4084.45 7704.22 4084.45 7704.22 4152.52 7090.65 4152.52 7090.65 4084.45 6749.79 4084.45 6749.79 4152.52 6886.13 4152.52"></polygon>
            <polygon id="Path" fill="#000000" points="9681.29 2110.47 9681.29 2178.54 10090.34 2178.54 10090.34 817.17 9681.29 817.17 9681.29 885.24 10022.16 885.24 10022.16 2110.47"></polygon>
            <polygon id="Path" fill="#000000" points="6681.61 8100.49 4909.07 8100.49 4909.07 8168.55 6681.61 8168.55"></polygon>
            <polygon id="Path" fill="#C7392C" points="7567.87 5990.37 7431.53 5990.37 7431.53 6126.5 7567.87 6126.5 7567.87 6194.57 7840.58 6194.57 7840.58 6126.5 7976.93 6126.5 7976.93 5990.37 7840.58 5990.37 7840.58 5922.3 7567.87 5922.3"></polygon>
            <polygon id="Path" fill="#FFFFFF" points="3545.58 4424.79 4159.15 4424.79 4159.15 4356.72 4295.5 4356.72 4295.5 4288.66 3409.23 4288.66 3409.23 4356.72 3545.58 4356.72"></polygon>
            <polygon id="Path" fill="#000000" points="8181.45 1429.79 8181.45 204.56 8113.28 204.56 8113.28 1429.79"></polygon>
            <polygon id="Path" fill="#F2F1E1" points="4431.85 3948.31 4568.2 3948.31 4568.2 3880.25 4840.89 3880.25 4840.89 3948.31 4977.24 3948.31 4977.24 3812.18 4840.89 3812.18 4840.89 3744.11 4568.2 3744.11 4568.2 3812.18 4431.85 3812.18"></polygon>
            <polygon id="Path" fill="#F2F1E1" points="6272.56 4492.87 6272.56 4424.79 6545.26 4424.79 6545.26 4492.87 6681.61 4492.87 6681.61 4356.72 6545.26 4356.72 6545.26 4288.66 6272.56 4288.66 6272.56 4356.72 6136.21 4356.72 6136.21 4492.87"></polygon>
            <polygon id="Path" fill="#FFFFFF" points="2659.3 5445.82 3068.36 5445.82 3068.36 5377.75 3204.7 5377.75 3204.7 5309.68 2522.95 5309.68 2522.95 5377.75 2659.3 5377.75"></polygon>
            <polygon id="Path" fill="#F2F1E1" points="3136.53 4901.27 3136.53 4833.2 3409.23 4833.2 3409.23 4901.27 3545.58 4901.27 3545.58 4765.14 3409.23 4765.14 3409.23 4697.07 3136.53 4697.07 3136.53 4765.14 3000.18 4765.14 3000.18 4901.27"></polygon>
            <polygon id="Path" fill="#D64537" points="8726.85 5990.37 8658.67 5990.37 8658.67 6058.43 8726.85 6058.43 8726.85 6126.5 8999.54 6126.5 8999.54 6058.43 9067.72 6058.43 9067.72 5990.37 8999.54 5990.37 8999.54 5922.3 8726.85 5922.3"></polygon>
            <polygon id="Path" fill="#F2F1E1" points="6272.56 3267.64 6204.38 3267.64 6204.38 3335.7 6272.56 3335.7 6272.56 3403.77 6545.26 3403.77 6545.26 3335.7 6613.44 3335.7 6613.44 3267.64 6545.26 3267.64 6545.26 3199.56 6272.56 3199.56"></polygon>
            <polygon id="Path" fill="#F2F1E1" points="4295.5 4765.14 4227.32 4765.14 4227.32 4833.2 4295.5 4833.2 4295.5 4901.27 4568.2 4901.27 4568.2 4833.2 4636.37 4833.2 4636.37 4765.14 4568.2 4765.14 4568.2 4697.07 4295.5 4697.07"></polygon>
            <polygon id="Path" fill="#F2F1E1" points="8045.1 4220.59 8045.1 4288.66 7976.93 4288.66 7976.93 4356.72 8045.1 4356.72 8045.1 4424.79 8317.79 4424.79 8317.79 4356.72 8385.97 4356.72 8385.97 4288.66 8317.79 4288.66 8317.79 4220.59"></polygon>
            <polygon id="Path" fill="#F2F1E1" points="1159.46 6058.43 1091.29 6058.43 1091.29 6126.5 1159.46 6126.5 1159.46 6194.57 1432.16 6194.57 1432.16 6126.5 1500.34 6126.5 1500.34 6058.43 1432.16 6058.43 1432.16 5990.37 1159.46 5990.37"></polygon>
            <polygon id="Path" fill="#FFFFFF" points="7227.01 5513.89 7227.01 5445.82 6340.73 5445.82 6340.73 5513.89"></polygon>
            <polygon id="Path" fill="#000000" points="68.67 5581.95 68.67 4765.14 0.5 4765.14 0.5 5581.95"></polygon>
            <polygon id="Path" fill="#000000" points="11590.18 5581.95 11590.18 4765.14 11522.01 4765.14 11522.01 5581.95"></polygon>
            <polygon id="Path" fill="#FFFFFF" points="9544.94 5105.48 9544.94 5037.41 8795.02 5037.41 8795.02 5105.48"></polygon>
            <polygon id="Path" fill="#FFFFFF" points="4568.2 5922.3 4568.2 5854.23 3886.45 5854.23 3886.45 5922.3"></polygon>
            <polygon id="Path" fill="#EEEDE6" points="4159.15 4424.79 3545.58 4424.79 3545.58 4492.87 4159.15 4492.87"></polygon>
            <polygon id="Path" fill="#000000" points="4909.07 8100.49 4909.07 8032.41 4295.5 8032.41 4295.5 8100.49"></polygon>
            <polygon id="Path" fill="#000000" points="7295.18 8032.41 6681.61 8032.41 6681.61 8100.49 7295.18 8100.49"></polygon>
            <polygon id="Path" fill="#000000" points="8658.67 204.56 8658.67 136.49 8181.45 136.49 8181.45 68.42 8113.28 68.42 8113.28 204.56"></polygon>
            <polygon id="Path" fill="#EEEDE6" points="7704.22 4288.66 7090.65 4288.66 7090.65 4356.72 7704.22 4356.72"></polygon>
            <polygon id="Path" fill="#EADCD9" points="2795.66 6194.57 2250.26 6194.57 2250.26 6262.64 2795.66 6262.64"></polygon>
            <polygon id="Path" fill="#FFFFFF" points="6068.03 5650.02 6068.03 5581.95 5522.64 5581.95 5522.64 5650.02"></polygon>
            <polygon id="Path" fill="#000000" points="4159.15 2450.81 4227.32 2450.81 4227.32 2382.74 4295.5 2382.74 4295.5 2314.68 3818.28 2314.68 3818.28 2382.74 4159.15 2382.74"></polygon>
            <polygon id="Path" fill="#000000" points="8249.62 2586.95 8249.62 2655.02 8454.15 2655.02 8454.15 2586.95 8658.67 2586.95 8658.67 2518.88 8385.97 2518.88 8385.97 2586.95"></polygon>
            <polygon id="Path" fill="#000000" points="1023.12 6875.26 1023.12 6739.12 614.07 6739.12 614.07 6807.18 954.95 6807.18 954.95 6875.26"></polygon>
            <polygon id="Path" fill="#000000" points="4295.5 8032.41 4295.5 7964.35 3818.28 7964.35 3818.28 8032.41"></polygon>
            <polygon id="Path" fill="#FFFFFF" points="5249.95 5786.16 5249.95 5718.1 4772.72 5718.1 4772.72 5786.16"></polygon>
            <polygon id="Path" fill="#000000" points="7772.4 7964.35 7295.18 7964.35 7295.18 8032.41 7772.4 8032.41"></polygon>
            <polygon id="Path" fill="#000000" points="614.07 6807.18 205.02 6807.18 205.02 6875.26 614.07 6875.26"></polygon>
            <polygon id="Path" fill="#E38C6F" points="1841.21 6330.71 1841.21 6262.64 1432.16 6262.64 1432.16 6330.71"></polygon>
            <path d="M10431.22,4901.28 L10431.22,4833.2 L10022.16,4833.2 L10022.16,4901.28 L10431.22,4901.28 Z M10431.22,4765.14 L10431.22,4629 L10363.04,4629 L10363.04,4765.14 L10431.22,4765.14 Z M10363.04,4629 L10363.04,4560.93 L10294.87,4560.93 L10294.87,4629 L10363.04,4629 Z M10294.87,4560.93 L10294.87,4492.87 L10226.69,4492.87 L10226.69,4560.93 L10294.87,4560.93 Z M10226.69,4492.87 L10226.69,4424.8 L10158.51,4424.8 L10158.51,4492.87 L10226.69,4492.87 Z M10158.51,4424.8 L10158.51,4356.72 L10090.34,4356.72 L10090.34,4424.8 L10158.51,4424.8 Z M10090.34,4356.72 L10090.34,4288.66 L10022.16,4288.66 L10022.16,4356.72 L10090.34,4356.72 Z M10022.16,4288.66 L10022.16,4220.58 L9953.99,4220.58 L9953.99,4288.66 L10022.16,4288.66 Z M9953.99,4220.58 L9953.99,4152.52 L9817.64,4152.52 L9817.64,4220.58 L9953.99,4220.58 Z M9817.64,4152.52 L9817.64,4084.45 L9749.47,4084.45 L9749.47,4152.52 L9817.64,4152.52 Z M9749.47,4084.45 L9749.47,4016.39 L9681.29,4016.39 L9681.29,4084.45 L9749.47,4084.45 Z M9681.29,4016.39 L9681.29,3948.32 L9544.94,3948.32 L9544.94,4016.39 L9681.29,4016.39 Z M9544.94,3948.32 L9544.94,3880.25 L9476.76,3880.25 L9476.76,3948.32 L9544.94,3948.32 Z M9476.76,3880.25 L9476.76,3812.18 L9408.58,3812.18 L9408.58,3880.25 L9476.76,3880.25 Z M9408.58,3812.18 L9408.58,3744.11 L9272.24,3744.11 L9272.24,3812.18 L9408.58,3812.18 Z M9272.24,3744.11 L9272.24,3676.04 L9204.07,3676.04 L9204.07,3744.11 L9272.24,3744.11 Z M9204.07,3676.04 L9204.07,3607.97 L9067.72,3607.97 L9067.72,3676.04 L9204.07,3676.04 Z M9067.72,3607.97 L9067.72,3539.91 L8931.37,3539.91 L8931.37,3607.97 L9067.72,3607.97 Z M8931.37,3539.91 L8931.37,3471.84 L8863.19,3471.84 L8863.19,3539.91 L8931.37,3539.91 Z M8863.19,3471.84 L8863.19,3403.77 L8726.85,3403.77 L8726.85,3471.84 L8863.19,3471.84 Z M8726.85,3403.77 L8726.85,3335.7 L8590.5,3335.7 L8590.5,3403.77 L8726.85,3403.77 Z M8522.32,3267.64 L8522.32,3199.57 L8385.97,3199.57 L8385.97,3267.64 L8522.32,3267.64 Z M8590.5,3335.7 L8590.5,3267.64 L8522.32,3267.64 L8522.32,3335.7 L8590.5,3335.7 Z M7976.93,3403.77 L7976.93,3335.7 L7908.75,3335.7 L7908.75,3403.77 L7976.93,3403.77 Z M8045.1,3471.84 L8045.1,3403.77 L7976.93,3403.77 L7976.93,3471.84 L8045.1,3471.84 Z M8181.45,3403.77 L8045.1,3403.77 L8045.1,3471.84 L8181.45,3471.84 L8181.45,3403.77 Z M8181.44,3335.7 L8181.44,3403.77 L8249.62,3403.77 L8249.62,3335.7 L8181.44,3335.7 Z M8385.97,3199.57 L8385.97,3131.49 L8249.62,3131.49 L8249.62,3199.57 L8385.97,3199.57 Z M8249.62,3131.49 L8249.62,3063.43 L8181.44,3063.43 L8181.44,3131.49 L8249.62,3131.49 Z M7976.93,2995.36 L7976.93,2927.29 L7840.58,2927.29 L7840.58,2995.36 L7976.93,2995.36 Z M7840.58,2927.29 L7840.58,2859.22 L7636.05,2859.22 L7636.05,2927.29 L7840.58,2927.29 Z M7636.05,2859.22 L7636.05,2791.16 L7499.71,2791.16 L7499.71,2859.22 L7636.05,2859.22 Z M7499.71,2791.16 L7499.71,2723.09 L7363.36,2723.09 L7363.36,2791.16 L7499.71,2791.16 Z M7363.36,2723.09 L7363.36,2655.02 L7158.83,2655.02 L7158.83,2723.09 L7363.36,2723.09 Z M7158.83,2655.02 L7158.83,2586.95 L7022.48,2586.95 L7022.48,2655.02 L7158.83,2655.02 Z M7022.48,2586.95 L7022.48,2518.88 L6817.96,2518.88 L6817.96,2586.95 L7022.48,2586.95 Z M6817.96,2518.88 L6817.96,2450.81 L6613.44,2450.81 L6613.44,2518.88 L6817.96,2518.88 Z M6613.44,2450.81 L6613.44,2382.74 L6408.91,2382.74 L6408.91,2450.81 L6613.44,2450.81 Z M6408.91,2382.74 L6408.91,2314.67 L6204.39,2314.67 L6204.39,2382.74 L6408.91,2382.74 Z M6204.39,2314.67 L6204.39,2246.6 L5999.87,2246.6 L5999.87,2314.67 L6204.39,2314.67 Z M5999.87,2246.6 L5999.87,2178.54 L5795.34,2178.54 L5795.34,2246.6 L5999.87,2246.6 Z M5795.34,2178.54 L5795.34,2110.47 L5590.81,2110.47 L5590.81,2178.54 L5795.34,2178.54 Z M5590.81,2110.47 L5590.81,2042.41 L5318.11,2042.41 L5318.11,2110.47 L5590.81,2110.47 Z M5318.11,2042.41 L5318.11,1974.33 L5045.42,1974.33 L5045.42,2042.41 L5318.11,2042.41 Z M5045.42,1974.33 L5045.42,1906.26 L4704.54,1906.26 L4704.54,1974.33 L5045.42,1974.33 Z" id="Shape" fill="#E38C6F"></path>
            <polygon id="Path" fill="#000000" points="10431.21 5173.54 10022.16 5173.54 10022.16 5241.62 10431.21 5241.62"></polygon>
            <polygon id="Path" fill="#E64336" points="614.07 6534.91 205.02 6534.91 205.02 6602.98 614.07 6602.98"></polygon>
            <polygon id="Path" fill="#000000" points="6749.79 5786.16 6340.73 5786.16 6340.73 5854.23 6749.79 5854.23"></polygon>
            <polygon id="Path" fill="#000000" points="4295.5 6194.57 3886.45 6194.57 3886.45 6262.64 4295.5 6262.64"></polygon>
            <polygon id="Path" fill="#000000" points="3068.36 6398.78 2659.3 6398.78 2659.3 6466.85 3068.36 6466.85"></polygon>
            <polygon id="Path" fill="#000000" points="7976.93 5581.95 7567.87 5581.95 7567.87 5650.02 7976.93 5650.02"></polygon>
            <polygon id="Path" fill="#EEEDE6" points="3068.36 5445.82 2659.3 5445.82 2659.3 5513.89 3068.36 5513.89"></polygon>
            <polygon id="Path" fill="#000000" points="11249.3 5037.41 10840.26 5037.41 10840.26 5105.48 11249.3 5105.48"></polygon>
            <polygon id="Path" fill="#000000" points="5931.69 5922.3 5522.64 5922.3 5522.64 5990.37 5931.69 5990.37"></polygon>
            <polygon id="Path" fill="#FFFFFF" points="3886.45 5990.37 3886.45 5922.3 3477.4 5922.3 3477.4 5990.37"></polygon>
            <polygon id="Path" fill="#000000" points="11249.3 4629 11249.3 5037.41 11317.48 5037.41 11317.48 4629"></polygon>
            <polygon id="Path" fill="#FFE7B5" points="10840.26 4833.2 10431.21 4833.2 10431.21 4901.27 10840.26 4901.27"></polygon>
            <polygon id="Path" fill="#FFFFFF" points="11249.3 4765.14 11249.3 4697.07 10840.26 4697.07 10840.26 4765.14"></polygon>
            <polygon id="Path" fill="#E64436" points="1432.16 6398.78 1023.12 6398.78 1023.12 6466.85 1432.16 6466.85"></polygon>
            <polygon id="Path" fill="#E38C6F" points="1023.12 6466.85 1023.12 6398.78 614.07 6398.78 614.07 6466.85"></polygon>
            <polygon id="Path" fill="#000000" points="2250.26 6534.91 1841.21 6534.91 1841.21 6602.98 2250.26 6602.98"></polygon>
            <polygon id="Path" fill="#000000" points="3886.45 6262.64 3477.4 6262.64 3477.4 6330.71 3886.45 6330.71"></polygon>
            <polygon id="Path" fill="#000000" points="7567.87 5650.02 7158.83 5650.02 7158.83 5718.1 7567.87 5718.1"></polygon>
            <polygon id="Path" fill="#E64336" points="2250.26 6262.64 1841.21 6262.64 1841.21 6330.71 2250.26 6330.71"></polygon>
            <polygon id="Path" fill="#000000" points="1432.16 6739.12 1432.16 6671.05 1023.12 6671.05 1023.12 6739.12"></polygon>
            <polygon id="Path" fill="#E38C6F" points="2250.26 6262.64 2250.26 6194.57 1841.21 6194.57 1841.21 6262.64"></polygon>
            <polygon id="Path" fill="#FFFFFF" points="8385.97 5241.62 8385.97 5173.54 7976.93 5173.54 7976.93 5241.62"></polygon>
            <polygon id="Path" fill="#000000" points="9613.12 5309.68 9204.07 5309.68 9204.07 5377.75 9613.12 5377.75"></polygon>
            <polygon id="Path" fill="#000000" points="5113.59 6058.43 4704.54 6058.43 4704.54 6126.5 5113.59 6126.5"></polygon>
            <polygon id="Path" fill="#000000" points="8795.02 5445.82 8385.97 5445.82 8385.97 5513.89 8795.02 5513.89"></polygon>
            <polygon id="Path" fill="#F2F1E1" points="5181.77 3539.91 5386.29 3539.91 5386.29 3403.77 5181.77 3403.77"></polygon>
            <polygon id="Path" fill="#F2F1E1" points="3954.62 5037.41 4159.15 5037.41 4159.15 4901.27 3954.62 4901.27"></polygon>
            <polygon id="Path" fill="#F2F1E1" points="8454.15 4220.59 8658.67 4220.59 8658.67 4084.45 8454.15 4084.45"></polygon>
            <polygon id="Path" fill="#E64336" points="10431.21 4901.27 10022.16 4901.27 10022.16 4969.34 10431.21 4969.34"></polygon>
            <polygon id="Path" fill="#000000" points="1841.21 6671.05 1841.21 6602.98 1432.16 6602.98 1432.16 6671.05"></polygon>
            <polygon id="Path" fill="#000000" points="5522.64 5990.37 5113.59 5990.37 5113.59 6058.43 5522.64 6058.43"></polygon>
            <polygon id="Path" fill="#E38C6F" points="614.07 6534.91 614.07 6466.85 205.02 6466.85 205.02 6534.91"></polygon>
            <polygon id="Path" fill="#E64336" points="1841.21 6330.71 1432.16 6330.71 1432.16 6398.78 1841.21 6398.78"></polygon>
            <polygon id="Path" fill="#000000" points="5386.29 1633.99 5386.29 1565.93 4977.24 1565.93 4977.24 1633.99"></polygon>
            <polygon id="Path" fill="#FFFFFF" points="7976.93 5309.68 7976.93 5241.62 7567.87 5241.62 7567.87 5309.68"></polygon>
            <polygon id="Path" fill="#000000" points="9204.07 5377.75 8795.02 5377.75 8795.02 5445.82 9204.07 5445.82"></polygon>
            <polygon id="Path" fill="#FFE7B5" points="11249.3 4833.2 11249.3 4765.14 10840.26 4765.14 10840.26 4833.2"></polygon>
            <polygon id="Path" fill="#FFFFFF" points="8795.02 5173.54 8795.02 5105.48 8385.97 5105.48 8385.97 5173.54"></polygon>
            <polygon id="Path" fill="#000000" points="205.02 6807.18 205.02 6398.78 136.85 6398.78 136.85 6807.18"></polygon>
            <polygon id="Path" fill="#000000" points="3477.4 6330.71 3068.36 6330.71 3068.36 6398.78 3477.4 6398.78"></polygon>
            <polygon id="Path" fill="#000000" points="7158.83 5718.1 6749.79 5718.1 6749.79 5786.16 7158.83 5786.16"></polygon>
            <polygon id="Path" fill="#000000" points="2659.3 6466.85 2250.26 6466.85 2250.26 6534.91 2659.3 6534.91"></polygon>
            <polygon id="Path" fill="#000000" points="8385.97 5513.89 7976.93 5513.89 7976.93 5581.95 8385.97 5581.95"></polygon>
            <polygon id="Path" fill="#000000" points="4704.54 6126.5 4295.5 6126.5 4295.5 6194.57 4704.54 6194.57"></polygon>
            <polygon id="Path" fill="#E64336" points="1023.12 6466.85 614.07 6466.85 614.07 6534.91 1023.12 6534.91"></polygon>
            <polygon id="Path" fill="#000000" points="10840.26 5173.54 10840.26 5105.48 10431.21 5105.48 10431.21 5173.54"></polygon>
            <polygon id="Path" fill="#E38C6F" points="1432.16 6398.78 1432.16 6330.71 1023.12 6330.71 1023.12 6398.78"></polygon>
            <polygon id="Path" fill="#000000" points="10022.16 5241.62 9613.12 5241.62 9613.12 5309.68 10022.16 5309.68"></polygon>
            <polygon id="Path" fill="#FFFFFF" points="10840.26 4833.2 10840.26 4765.14 10431.21 4765.14 10431.21 4833.2"></polygon>
            <polygon id="Path" fill="#FFFFFF" points="3477.4 6058.43 3477.4 5990.37 3068.36 5990.37 3068.36 6058.43"></polygon>
            <polygon id="Path" fill="#000000" points="6340.73 5854.23 5931.69 5854.23 5931.69 5922.3 6340.73 5922.3"></polygon>
            <polygon id="Path" fill="#000000" points="8113.28 7896.28 7772.4 7896.28 7772.4 7964.35 8113.28 7964.35"></polygon>
            <polygon id="Path" fill="#000000" points="3818.28 7964.35 3818.28 7896.28 3477.4 7896.28 3477.4 7964.35"></polygon>
            <polygon id="Path" fill="#000000" points="3818.28 2382.74 3477.4 2382.74 3477.4 2450.81 3818.28 2450.81"></polygon>
            <polygon id="Path" fill="#FFFFFF" points="3409.23 4901.27 3409.23 4833.2 3136.53 4833.2 3136.53 4901.27"></polygon>
            <polygon id="Path" fill="#FFFFFF" points="3068.36 6126.5 3068.36 6058.43 2795.66 6058.43 2795.66 6126.5"></polygon>
            <polygon id="Path" fill="#000000" points="3204.7 2518.88 2932.01 2518.88 2932.01 2586.95 3204.7 2586.95"></polygon>
            <polygon id="Path" fill="#EEEDE6" points="4840.89 3948.31 4568.2 3948.31 4568.2 4016.39 4840.89 4016.39"></polygon>
            <polygon id="Path" fill="#000000" points="3204.7 7828.21 3204.7 7760.14 2932.01 7760.14 2932.01 7828.21"></polygon>
            <polygon id="Path" fill="#000000" points="8658.67 7760.14 8385.97 7760.14 8385.97 7828.21 8658.67 7828.21"></polygon>
            <polygon id="Path" fill="#FFFFFF" points="6545.26 4492.87 6545.26 4424.79 6272.56 4424.79 6272.56 4492.87"></polygon>
            <polygon id="Path" fill="#FFFFFF" points="5522.64 5718.1 5522.64 5650.02 5249.95 5650.02 5249.95 5718.1"></polygon>
            <path d="M10022.16,4969.34 L9749.47,4969.34 L9749.47,5037.41 L10022.16,5037.41 L10022.16,4969.34 Z M9749.47,5037.41 L9544.94,5037.41 L9544.94,5105.48 L9749.47,5105.48 L9749.47,5037.41 Z M9544.94,5105.48 L8795.01,5105.48 L8795.01,5173.54 L9544.94,5173.54 L9544.94,5105.48 Z M8795.01,5173.54 L8385.97,5173.54 L8385.97,5241.62 L8795.01,5241.62 L8795.01,5173.54 Z M8385.97,5241.62 L7976.93,5241.62 L7976.93,5309.68 L8385.97,5309.68 L8385.97,5241.62 Z M7976.93,5309.68 L7567.87,5309.68 L7567.87,5377.75 L7976.93,5377.75 L7976.93,5309.68 Z M7567.87,5377.75 L7363.36,5377.75 L7363.36,5445.81 L7567.87,5445.81 L7567.87,5377.75 Z M7363.36,5445.81 L7227.01,5445.81 L7227.01,5513.89 L7363.36,5513.89 L7363.36,5445.81 Z M7227.01,5513.89 L6340.73,5513.89 L6340.73,5581.95 L7227.01,5581.95 L7227.01,5513.89 Z M6340.73,5581.95 L6068.04,5581.95 L6068.04,5650.02 L6340.73,5650.02 L6340.73,5581.95 Z M6068.04,5650.02 L5522.64,5650.02 L5522.64,5718.1 L6068.04,5718.1 L6068.04,5650.02 Z M5522.64,5718.1 L5249.94,5718.1 L5249.94,5786.16 L5522.64,5786.16 L5522.64,5718.1 Z M5249.94,5786.16 L4772.72,5786.16 L4772.72,5854.23 L5249.94,5854.23 L5249.94,5786.16 Z M4772.72,5854.23 L4568.2,5854.23 L4568.2,5922.29 L4772.72,5922.29 L4772.72,5854.23 Z M4568.2,5922.29 L3886.45,5922.29 L3886.45,5990.36 L4568.2,5990.36 L4568.2,5922.29 Z M3886.45,5990.36 L3477.4,5990.36 L3477.4,6058.43 L3886.45,6058.43 L3886.45,5990.36 Z M3477.4,6058.43 L3068.36,6058.43 L3068.36,6126.5 L3477.4,6126.5 L3477.4,6058.43 Z M3068.36,6126.5 L2795.66,6126.5 L2795.66,6194.57 L3068.36,6194.57 L3068.36,6126.5 Z M2795.66,6194.57 L2795.66,6126.5 L2250.26,6126.5 L2250.26,6194.57 L2795.66,6194.57 Z" id="Shape" fill="#D9D8CA"></path>
            <polygon id="Path" fill="#000000" points="6204.38 1838.2 6204.38 1770.12 5931.69 1770.12 5931.69 1838.2"></polygon>
            <polygon id="Path" fill="#000000" points="5658.99 1702.06 5658.99 1633.99 5386.29 1633.99 5386.29 1702.06"></polygon>
            <polygon id="Path" fill="#EEEDE6" points="3409.23 4901.27 3136.53 4901.27 3136.53 4969.34 3409.23 4969.34"></polygon>
            <polygon id="Path" fill="#FFFFFF" points="6340.73 5581.95 6340.73 5513.89 6068.03 5513.89 6068.03 5581.95"></polygon>
            <polygon id="Path" fill="#FFFFFF" points="4840.89 3948.31 4840.89 3880.25 4568.2 3880.25 4568.2 3948.31"></polygon>
            <polygon id="Path" fill="#000000" points="5931.69 1770.12 5931.69 1702.06 5658.99 1702.06 5658.99 1770.12"></polygon>
            <polygon id="Path" fill="#000000" points="3477.4 2450.81 3204.7 2450.81 3204.7 2518.88 3477.4 2518.88"></polygon>
            <polygon id="Path" fill="#EEEDE6" points="6545.26 4492.87 6272.56 4492.87 6272.56 4560.93 6545.26 4560.93"></polygon>
            <polygon id="Path" fill="#FFFFFF" points="10022.16 4969.34 10022.16 4901.27 9749.46 4901.27 9749.46 4969.34"></polygon>
            <path d="M11112.95,5105.48 L10908.44,5105.48 L10908.44,5241.62 L10976.61,5241.62 L10976.61,5173.54 L11112.95,5173.54 L11112.95,5105.48 Z M1841.21,6739.12 L1841.21,6671.05 L1432.16,6671.05 L1432.16,6739.12 L1841.21,6739.12 Z M10022.16,5241.62 L10022.16,5309.68 L9613.11,5309.68 L9613.11,5377.75 L9204.07,5377.75 L9204.07,5445.81 L8795.01,5445.81 L8795.01,5513.89 L8385.97,5513.89 L8385.97,5581.95 L7976.93,5581.95 L7976.93,5650.02 L7567.87,5650.02 L7567.87,5718.1 L7158.83,5718.1 L7158.83,5786.16 L6749.79,5786.16 L6749.79,5854.23 L6340.73,5854.23 L6340.73,5922.29 L5931.69,5922.29 L5931.69,5990.36 L5522.64,5990.36 L5522.64,6058.43 L5113.59,6058.43 L5113.59,6126.5 L4704.54,6126.5 L4704.54,6194.57 L4295.5,6194.57 L4295.5,6262.64 L3886.45,6262.64 L3886.45,6330.71 L3477.4,6330.71 L3477.4,6398.78 L3068.36,6398.78 L3068.36,6466.84 L2659.31,6466.84 L2659.31,6534.91 L2250.26,6534.91 L2250.26,6602.98 L1841.21,6602.98 L1841.21,6671.05 L1977.56,6671.05 L1977.56,6739.12 L2250.26,6739.12 L2250.26,6671.05 L2659.31,6671.05 L2659.31,6602.98 L3068.36,6602.98 L3068.36,6534.91 L3477.4,6534.91 L3477.4,6466.84 L3886.45,6466.84 L3886.45,6398.78 L4295.5,6398.78 L4295.5,6330.71 L4704.54,6330.71 L4704.54,6262.64 L5113.59,6262.64 L5113.59,6194.57 L5522.64,6194.57 L5522.64,6126.5 L5931.69,6126.5 L5931.69,6058.43 L6340.73,6058.43 L6340.73,5990.36 L6749.79,5990.36 L6749.79,5922.29 L7158.83,5922.29 L7158.83,5854.23 L7567.87,5854.23 L7567.87,5786.16 L7976.93,5786.16 L7976.93,5718.1 L8385.97,5718.1 L8385.97,5650.02 L8795.01,5650.02 L8795.01,5581.95 L9204.07,5581.95 L9204.07,5513.89 L9613.11,5513.89 L9613.11,5445.81 L10022.16,5445.81 L10022.16,5377.75 L10431.22,5377.75 L10431.22,5309.68 L10840.26,5309.68 L10840.26,5173.54 L10431.22,5173.54 L10431.22,5241.62 L10022.16,5241.62 Z" id="Shape" fill="#B5B5C9"></path>
            <polygon id="Path" fill="#000000" points="8385.97 7828.21 8113.28 7828.21 8113.28 7896.28 8385.97 7896.28"></polygon>
            <polygon id="Path" fill="#000000" points="3477.4 7896.28 3477.4 7828.21 3204.7 7828.21 3204.7 7896.28"></polygon>
            <polygon id="Path" fill="#000000" points="2932.01 2586.95 2727.48 2586.95 2727.48 2655.02 2932.01 2655.02"></polygon>
            <polygon id="Path" fill="#000000" points="8863.2 2655.02 8863.2 2586.95 8658.67 2586.95 8658.67 2655.02"></polygon>
            <polygon id="Path" fill="#000000" points="136.85 4560.93 68.67 4560.93 68.67 4765.14 136.85 4765.14"></polygon>
            <polygon id="Path" fill="#000000" points="11522.01 4765.14 11522.01 4560.93 11453.83 4560.93 11453.83 4765.14"></polygon>
            <polygon id="Path" fill="#000000" points="2727.48 7692.08 2727.48 7624.01 2522.95 7624.01 2522.95 7692.08"></polygon>
            <polygon id="Path" fill="#000000" points="9067.72 7624.01 8863.2 7624.01 8863.2 7692.08 9067.72 7692.08"></polygon>
            <polygon id="Path" fill="#000000" points="9681.29 817.17 9681.29 749.1 9476.77 749.1 9476.77 817.17"></polygon>
            <polygon id="Path" fill="#000000" points="136.85 5786.16 136.85 5581.95 68.67 5581.95 68.67 5786.16"></polygon>
            <polygon id="Path" fill="#000000" points="11522.01 5581.95 11453.83 5581.95 11453.83 5786.16 11522.01 5786.16"></polygon>
            <polygon id="Path" fill="#FFFFFF" points="9749.46 5037.41 9749.46 4969.34 9544.94 4969.34 9544.94 5037.41"></polygon>
            <polygon id="Path" fill="#000000" points="6613.44 1974.33 6613.44 1906.26 6408.91 1906.26 6408.91 1974.33"></polygon>
            <polygon id="Path" fill="#000000" points="7227.01 2178.54 7227.01 2110.47 7022.48 2110.47 7022.48 2178.54"></polygon>
            <polygon id="Path" fill="#FFFFFF" points="4772.72 5854.23 4772.72 5786.16 4568.2 5786.16 4568.2 5854.23"></polygon>
            <polygon id="Path" fill="#000000" points="7636.05 2314.68 7636.05 2246.6 7431.53 2246.6 7431.53 2314.68"></polygon>
            <polygon id="Path" fill="#000000" points="11453.83 4560.93 11453.83 4356.72 11385.65 4356.72 11385.65 4560.93"></polygon>
            <polygon id="Path" fill="#EEEDE6" points="7908.75 4220.59 7704.22 4220.59 7704.22 4288.66 7908.75 4288.66"></polygon>
            <polygon id="Path" fill="#000000" points="11453.83 5786.16 11385.65 5786.16 11385.65 5990.37 11453.83 5990.37"></polygon>
            <polygon id="Path" fill="#000000" points="9272.24 7555.93 9067.72 7555.93 9067.72 7624.01 9272.24 7624.01"></polygon>
            <polygon id="Path" fill="#EEEDE6" points="7090.65 4288.66 7090.65 4220.59 6886.13 4220.59 6886.13 4288.66"></polygon>
            <polygon id="Path" fill="#000000" points="9272.24 2791.16 9272.24 2723.08 9067.72 2723.08 9067.72 2791.16"></polygon>
            <polygon id="Path" fill="#000000" points="2522.95 2723.08 2318.44 2723.08 2318.44 2791.16 2522.95 2791.16"></polygon>
            <polygon id="Path" fill="#000000" points="6817.95 2042.41 6817.95 1974.33 6613.44 1974.33 6613.44 2042.41"></polygon>
            <polygon id="Path" fill="#000000" points="2522.95 7624.01 2522.95 7555.93 2318.44 7555.93 2318.44 7624.01"></polygon>
            <polygon id="Path" fill="#FFFFFF" points="7567.87 5377.75 7567.87 5309.68 7363.36 5309.68 7363.36 5377.75"></polygon>
            <polygon id="Path" fill="#000000" points="9067.72 2723.08 9067.72 2655.02 8863.2 2655.02 8863.2 2723.08"></polygon>
            <polygon id="Path" fill="#000000" points="205.02 4356.72 136.85 4356.72 136.85 4560.93 205.02 4560.93"></polygon>
            <polygon id="Path" fill="#000000" points="6408.91 1906.26 6408.91 1838.2 6204.38 1838.2 6204.38 1906.26"></polygon>
            <polygon id="Path" fill="#000000" points="7022.48 2110.47 7022.48 2042.41 6817.95 2042.41 6817.95 2110.47"></polygon>
            <polygon id="Path" fill="#000000" points="2727.48 2655.02 2522.95 2655.02 2522.95 2723.08 2727.48 2723.08"></polygon>
            <polygon id="Path" fill="#000000" points="9681.29 2110.47 9681.29 2042.41 9476.77 2042.41 9476.77 2110.47"></polygon>
            <polygon id="Path" fill="#000000" points="2318.44 2791.16 2113.91 2791.16 2113.91 2859.22 2318.44 2859.22"></polygon>
            <polygon id="Path" fill="#000000" points="9476.77 2859.22 9476.77 2791.16 9272.24 2791.16 9272.24 2859.22"></polygon>
            <polygon id="Path" fill="#000000" points="2318.44 7555.93 2318.44 7487.87 2113.91 7487.87 2113.91 7555.93"></polygon>
            <polygon id="Path" fill="#000000" points="9476.77 7487.87 9272.24 7487.87 9272.24 7555.93 9476.77 7555.93"></polygon>
            <polygon id="Path" fill="#000000" points="205.02 5990.37 205.02 5786.16 136.85 5786.16 136.85 5990.37"></polygon>
            <polygon id="Path" fill="#000000" points="2932.01 7760.14 2932.01 7692.08 2727.48 7692.08 2727.48 7760.14"></polygon>
            <polygon id="Path" fill="#000000" points="8863.2 7692.08 8658.67 7692.08 8658.67 7760.14 8863.2 7760.14"></polygon>
            <polygon id="Path" fill="#000000" points="7431.53 2246.6 7431.53 2178.54 7227.01 2178.54 7227.01 2246.6"></polygon>
            <polygon id="Path" fill="#000000" points="1568.52 3131.49 1432.16 3131.49 1432.16 3199.56 1568.52 3199.56"></polygon>
            <polygon id="Path" fill="#000000" points="1568.52 7215.6 1568.52 7147.53 1432.16 7147.53 1432.16 7215.6"></polygon>
            <polygon id="Path" fill="#000000" points="10294.87 3267.64 10294.87 3199.56 10158.51 3199.56 10158.51 3267.64"></polygon>
            <polygon id="Path" fill="#000000" points="1841.21 7351.73 1841.21 7283.66 1704.87 7283.66 1704.87 7351.73"></polygon>
            <polygon id="Path" fill="#000000" points="9885.81 7283.66 9749.46 7283.66 9749.46 7351.73 9885.81 7351.73"></polygon>
            <polygon id="Path" fill="#000000" points="8726.85 2791.16 8726.85 2723.08 8590.5 2723.08 8590.5 2791.16"></polygon>
            <polygon id="Path" fill="#000000" points="2113.91 2859.22 1977.56 2859.22 1977.56 2927.29 2113.91 2927.29"></polygon>
            <polygon id="Path" fill="#000000" points="8999.54 2927.29 8999.54 2859.22 8863.2 2859.22 8863.2 2927.29"></polygon>
            <polygon id="Path" fill="#000000" points="9613.12 2927.29 9613.12 2859.22 9476.77 2859.22 9476.77 2927.29"></polygon>
            <polygon id="Path" fill="#000000" points="1841.21 2995.35 1704.87 2995.35 1704.87 3063.43 1841.21 3063.43"></polygon>
            <polygon id="Path" fill="#000000" points="9885.81 3063.43 9885.81 2995.35 9749.46 2995.35 9749.46 3063.43"></polygon>
            <polygon id="Path" fill="#000000" points="9476.77 3199.56 9476.77 3131.49 9340.42 3131.49 9340.42 3199.56"></polygon>
            <polygon id="Path" fill="#000000" points="10158.51 3199.56 10158.51 3131.49 10022.16 3131.49 10022.16 3199.56"></polygon>
            <polygon id="Path" fill="#000000" points="1432.16 3199.56 1295.81 3199.56 1295.81 3267.64 1432.16 3267.64"></polygon>
            <polygon id="Path" fill="#000000" points="2113.91 7487.87 2113.91 7419.8 1977.56 7419.8 1977.56 7487.87"></polygon>
            <polygon id="Path" fill="#000000" points="9613.12 7419.8 9476.77 7419.8 9476.77 7487.87 9613.12 7487.87"></polygon>
            <polygon id="Path" fill="#000000" points="1227.64 3335.7 1091.29 3335.7 1091.29 3403.77 1227.64 3403.77"></polygon>
            <polygon id="Path" fill="#000000" points="9817.64 3403.77 9817.64 3335.7 9681.29 3335.7 9681.29 3403.77"></polygon>
            <polygon id="Path" fill="#000000" points="10499.38 3403.77 10499.38 3335.7 10363.04 3335.7 10363.04 3403.77"></polygon>
            <polygon id="Path" fill="#000000" points="10022.16 3539.91 10022.16 3471.83 9885.81 3471.83 9885.81 3539.91"></polygon>
            <polygon id="Path" fill="#000000" points="273.2 4220.59 205.02 4220.59 205.02 4356.72 273.2 4356.72"></polygon>
            <polygon id="Path" fill="#EEEDE6" points="3545.58 4424.79 3545.58 4356.72 3409.23 4356.72 3409.23 4424.79"></polygon>
            <polygon id="Path" fill="#EEEDE6" points="4295.5 4356.72 4159.15 4356.72 4159.15 4424.79 4295.5 4424.79"></polygon>
            <polygon id="Path" fill="#70709E" points="10908.44 5241.62 10908.44 5105.48 10840.26 5105.48 10840.26 5241.62"></polygon>
            <polygon id="Path" fill="#E4E8F4" points="341.37 6126.5 341.37 5990.37 273.2 5990.37 273.2 6126.5"></polygon>
            <polygon id="Path" fill="#E4E8F4" points="11317.48 6126.5 11317.48 5990.37 11249.3 5990.37 11249.3 6126.5"></polygon>
            <polygon id="Path" fill="#000000" points="273.2 6126.5 273.2 5990.37 205.02 5990.37 205.02 6126.5"></polygon>
            <polygon id="Path" fill="#70709E" points="1977.56 6739.12 1977.56 6671.05 1841.21 6671.05 1841.21 6739.12"></polygon>
            <polygon id="Path" fill="#000000" points="8931.37 340.69 8931.37 272.62 8795.02 272.62 8795.02 340.69"></polygon>
            <polygon id="Path" fill="#000000" points="9340.42 681.04 9340.42 612.97 9204.07 612.97 9204.07 681.04"></polygon>
            <polygon id="Path" fill="#000000" points="8795.02 1565.93 8795.02 1497.85 8658.67 1497.85 8658.67 1565.93"></polygon>
            <polygon id="Path" fill="#000000" points="10158.51 7147.53 10022.16 7147.53 10022.16 7215.6 10158.51 7215.6"></polygon>
            <polygon id="Path" fill="#000000" points="9340.42 1974.33 9340.42 1906.26 9204.07 1906.26 9204.07 1974.33"></polygon>
            <polygon id="Path" fill="#000000" points="9476.77 2042.41 9476.77 1974.33 9340.42 1974.33 9340.42 2042.41"></polygon>
            <polygon id="Path" fill="#FFFFFF" points="8385.97 2518.88 8249.62 2518.88 8249.62 2586.95 8385.97 2586.95"></polygon>
            <polygon id="Path" fill="#000000" points="9681.29 3335.7 9681.29 3267.64 9544.94 3267.64 9544.94 3335.7"></polygon>
            <polygon id="Path" fill="#000000" points="954.95 3539.91 818.59 3539.91 818.59 3607.97 954.95 3607.97"></polygon>
            <polygon id="Path" fill="#000000" points="10294.87 3744.11 10294.87 3676.04 10158.51 3676.04 10158.51 3744.11"></polygon>
            <polygon id="Path" fill="#000000" points="11249.3 6194.57 11181.13 6194.57 11181.13 6330.71 11249.3 6330.71"></polygon>
            <polygon id="Path" fill="#000000" points="10294.87 7079.46 10158.51 7079.46 10158.51 7147.53 10294.87 7147.53"></polygon>
            <polygon id="Path" fill="#000000" points="10772.08 6739.12 10635.73 6739.12 10635.73 6807.18 10772.08 6807.18"></polygon>
            <polygon id="Path" fill="#000000" points="9749.46 7351.73 9613.12 7351.73 9613.12 7419.8 9749.46 7419.8"></polygon>
            <polygon id="Path" fill="#000000" points="1977.56 7419.8 1977.56 7351.73 1841.21 7351.73 1841.21 7419.8"></polygon>
            <polygon id="Path" fill="#000000" points="10022.16 7215.6 9885.81 7215.6 9885.81 7283.66 10022.16 7283.66"></polygon>
            <polygon id="Path" fill="#000000" points="1704.87 7283.66 1704.87 7215.6 1568.52 7215.6 1568.52 7283.66"></polygon>
            <polygon id="Path" fill="#000000" points="8795.02 272.62 8795.02 204.56 8658.67 204.56 8658.67 272.62"></polygon>
            <polygon id="Path" fill="#000000" points="9476.77 749.1 9476.77 681.04 9340.42 681.04 9340.42 749.1"></polygon>
            <polygon id="Path" fill="#000000" points="8931.37 1633.99 8931.37 1565.93 8795.02 1565.93 8795.02 1633.99"></polygon>
            <polygon id="Path" fill="#000000" points="7772.4 2382.74 7772.4 2314.68 7636.05 2314.68 7636.05 2382.74"></polygon>
            <polygon id="Path" fill="#000000" points="8590.5 2723.08 8590.5 2655.02 8454.15 2655.02 8454.15 2723.08"></polygon>
            <polygon id="Path" fill="#000000" points="8863.2 2859.22 8863.2 2791.16 8726.85 2791.16 8726.85 2859.22"></polygon>
            <polygon id="Path" fill="#000000" points="1977.56 2927.29 1841.21 2927.29 1841.21 2995.35 1977.56 2995.35"></polygon>
            <polygon id="Path" fill="#000000" points="1432.16 7147.53 1432.16 7079.46 1295.81 7079.46 1295.81 7147.53"></polygon>
            <polygon id="Path" fill="#000000" points="9135.89 2995.35 9135.89 2927.29 8999.54 2927.29 8999.54 2995.35"></polygon>
            <polygon id="Path" fill="#000000" points="9749.46 2995.35 9749.46 2927.29 9613.12 2927.29 9613.12 2995.35"></polygon>
            <polygon id="Path" fill="#000000" points="1704.87 3063.43 1568.52 3063.43 1568.52 3131.49 1704.87 3131.49"></polygon>
            <polygon id="Path" fill="#000000" points="9340.42 3131.49 9340.42 3063.43 9204.07 3063.43 9204.07 3131.49"></polygon>
            <polygon id="Path" fill="#000000" points="10022.16 3131.49 10022.16 3063.43 9885.81 3063.43 9885.81 3131.49"></polygon>
            <polygon id="Path" fill="#000000" points="10772.08 3607.97 10772.08 3539.91 10635.73 3539.91 10635.73 3607.97"></polygon>
            <polygon id="Path" fill="#000000" points="10567.56 3948.31 10567.56 3880.25 10431.21 3880.25 10431.21 3948.31"></polygon>
            <polygon id="Path" fill="#000000" points="409.54 4016.39 341.37 4016.39 341.37 4152.52 409.54 4152.52"></polygon>
            <polygon id="Path" fill="#000000" points="11249.3 4152.52 11249.3 4016.39 11181.13 4016.39 11181.13 4152.52"></polygon>
            <polygon id="Path" fill="#EEEDE6" points="8045.1 4220.59 8045.1 4152.52 7908.75 4152.52 7908.75 4220.59"></polygon>
            <polygon id="Path" fill="#EEEDE6" points="6886.13 4220.59 6886.13 4152.52 6749.79 4152.52 6749.79 4220.59"></polygon>
            <polygon id="Path" fill="#000000" points="11385.65 4356.72 11385.65 4220.59 11317.48 4220.59 11317.48 4356.72"></polygon>
            <polygon id="Path" fill="#FFFFFF" points="7363.36 5445.82 7363.36 5377.75 7227.01 5377.75 7227.01 5445.82"></polygon>
            <polygon id="Path" fill="#000000" points="10499.38 6943.33 10363.04 6943.33 10363.04 7011.39 10499.38 7011.39"></polygon>
            <polygon id="Path" fill="#000000" points="11385.65 5990.37 11317.48 5990.37 11317.48 6126.5 11385.65 6126.5"></polygon>
            <polygon id="Path" fill="#000000" points="1227.64 7011.39 1227.64 6943.33 1091.29 6943.33 1091.29 7011.39"></polygon>
            <polygon id="Path" fill="#000000" points="11044.79 4424.79 11044.79 4356.72 10976.61 4356.72 10976.61 4424.79"></polygon>
            <polygon id="Path" fill="#000000" points="954.95 5650.02 886.77 5650.02 886.77 5718.1 954.95 5718.1"></polygon>
            <polygon id="Path" fill="#000000" points="9204.07 3063.43 9204.07 2995.35 9135.89 2995.35 9135.89 3063.43"></polygon>
            <polygon id="Path" fill="#000000" points="10567.56 6875.26 10499.38 6875.26 10499.38 6943.33 10567.56 6943.33"></polygon>
            <polygon id="Path" fill="#000000" points="3409.23 3199.56 3341.05 3199.56 3341.05 3267.64 3409.23 3267.64"></polygon>
            <polygon id="Path" fill="#000000" points="1091.29 6943.33 1091.29 6875.26 1023.12 6875.26 1023.12 6943.33"></polygon>
            <polygon id="Path" fill="#000000" points="8113.28 68.42 8113.28 0.35 8045.1 0.35 8045.1 68.42"></polygon>
            <polygon id="Path" fill="#000000" points="9067.72 476.83 9067.72 408.76 8999.54 408.76 8999.54 476.83"></polygon>
            <polygon id="Path" fill="#000000" points="9204.07 612.97 9204.07 544.89 9135.89 544.89 9135.89 612.97"></polygon>
            <polygon id="Path" fill="#000000" points="8999.54 1702.06 8999.54 1633.99 8931.37 1633.99 8931.37 1702.06"></polygon>
            <polygon id="Path" fill="#000000" points="10908.44 4288.66 10908.44 4220.59 10840.26 4220.59 10840.26 4288.66"></polygon>
            <polygon id="Path" fill="#000000" points="11044.79 3880.25 11044.79 3812.18 10976.61 3812.18 10976.61 3880.25"></polygon>
            <polygon id="Path" fill="#000000" points="10431.21 3880.25 10431.21 3812.18 10363.04 3812.18 10363.04 3880.25"></polygon>
            <polygon id="Path" fill="#000000" points="2795.66 3812.18 2727.48 3812.18 2727.48 3880.25 2795.66 3880.25"></polygon>
            <polygon id="Path" fill="#000000" points="614.07 3812.18 545.89 3812.18 545.89 3880.25 614.07 3880.25"></polygon>
            <polygon id="Path" fill="#000000" points="1568.52 5037.41 1500.34 5037.41 1500.34 5105.48 1568.52 5105.48"></polygon>
            <polygon id="Path" fill="#000000" points="10840.26 3676.04 10840.26 3607.97 10772.08 3607.97 10772.08 3676.04"></polygon>
            <polygon id="Path" fill="#000000" points="4636.37 1974.33 4568.2 1974.33 4568.2 2042.41 4636.37 2042.41"></polygon>
            <polygon id="Path" fill="#000000" points="4022.8 2586.95 3954.62 2586.95 3954.62 2655.02 4022.8 2655.02"></polygon>
            <polygon id="Path" fill="#000000" points="8113.28 3403.77 8113.28 3335.7 8045.1 3335.7 8045.1 3403.77"></polygon>
            <polygon id="Path" fill="#000000" points="2182.09 4424.79 2113.91 4424.79 2113.91 4492.87 2182.09 4492.87"></polygon>
            <polygon id="Path" fill="#000000" points="11181.13 4016.39 11181.13 3948.31 11112.95 3948.31 11112.95 4016.39"></polygon>
            <polygon id="Path" fill="#000000" points="10840.26 6671.05 10772.08 6671.05 10772.08 6739.12 10840.26 6739.12"></polygon>
            <polygon id="Path" fill="#000000" points="477.72 3948.31 409.54 3948.31 409.54 4016.39 477.72 4016.39"></polygon>
            <polygon id="Path" fill="#000000" points="341.37 6262.64 273.2 6262.64 273.2 6330.71 341.37 6330.71"></polygon>
            <polygon id="Path" fill="#E4E8F4" points="273.2 5990.37 273.2 5922.3 205.02 5922.3 205.02 5990.37"></polygon>
            <polygon id="Path" fill="#000000" points="1295.81 5309.68 1227.64 5309.68 1227.64 5377.75 1295.81 5377.75"></polygon>
            <polygon id="Path" fill="#000000" points="1363.99 5241.62 1295.81 5241.62 1295.81 5309.68 1363.99 5309.68"></polygon>
            <polygon id="Path" fill="#000000" points="1432.16 5173.54 1363.99 5173.54 1363.99 5241.62 1432.16 5241.62"></polygon>
            <polygon id="Path" fill="#000000" points="1500.34 5105.48 1432.16 5105.48 1432.16 5173.54 1500.34 5173.54"></polygon>
            <polygon id="Path" fill="#000000" points="1636.69 4969.34 1568.52 4969.34 1568.52 5037.41 1636.69 5037.41"></polygon>
            <polygon id="Path" fill="#000000" points="1704.87 4901.27 1636.69 4901.27 1636.69 4969.34 1704.87 4969.34"></polygon>
            <polygon id="Path" fill="#000000" points="1773.03 4833.2 1704.87 4833.2 1704.87 4901.27 1773.03 4901.27"></polygon>
            <polygon id="Path" fill="#000000" points="1841.21 4833.2 1841.21 4765.14 1773.03 4765.14 1773.03 4833.2"></polygon>
            <polygon id="Path" fill="#000000" points="1909.38 4697.07 1841.21 4697.07 1841.21 4765.14 1909.38 4765.14"></polygon>
            <polygon id="Path" fill="#000000" points="1977.56 4629 1909.38 4629 1909.38 4697.07 1977.56 4697.07"></polygon>
            <polygon id="Path" fill="#000000" points="11249.3 4629 11249.3 4560.93 11181.13 4560.93 11181.13 4629"></polygon>
            <polygon id="Path" fill="#000000" points="2045.73 4560.93 1977.56 4560.93 1977.56 4629 2045.73 4629"></polygon>
            <polygon id="Path" fill="#000000" points="11181.13 4560.93 11181.13 4492.87 11112.95 4492.87 11112.95 4560.93"></polygon>
            <polygon id="Path" fill="#000000" points="2113.91 4492.87 2045.73 4492.87 2045.73 4560.93 2113.91 4560.93"></polygon>
            <polygon id="Path" fill="#000000" points="11112.95 4492.87 11112.95 4424.79 11044.79 4424.79 11044.79 4492.87"></polygon>
            <polygon id="Path" fill="#000000" points="2250.26 4356.72 2182.09 4356.72 2182.09 4424.79 2250.26 4424.79"></polygon>
            <polygon id="Path" fill="#000000" points="2318.44 4288.66 2250.26 4288.66 2250.26 4356.72 2318.44 4356.72"></polygon>
            <polygon id="Path" fill="#000000" points="2386.61 4220.59 2318.44 4220.59 2318.44 4288.66 2386.61 4288.66"></polygon>
            <polygon id="Path" fill="#000000" points="11317.48 4220.59 11317.48 4152.52 11249.3 4152.52 11249.3 4220.59"></polygon>
            <polygon id="Path" fill="#000000" points="10840.26 4220.59 10840.26 4152.52 10772.08 4152.52 10772.08 4220.59"></polygon>
            <polygon id="Path" fill="#000000" points="2454.78 4152.52 2386.61 4152.52 2386.61 4220.59 2454.78 4220.59"></polygon>
            <polygon id="Path" fill="#000000" points="341.37 4152.52 273.2 4152.52 273.2 4220.59 341.37 4220.59"></polygon>
            <polygon id="Path" fill="#000000" points="10772.08 4152.52 10772.08 4084.45 10703.91 4084.45 10703.91 4152.52"></polygon>
            <polygon id="Path" fill="#000000" points="2522.95 4084.45 2454.78 4084.45 2454.78 4152.52 2522.95 4152.52"></polygon>
            <polygon id="Path" fill="#000000" points="10635.73 6807.18 10567.56 6807.18 10567.56 6875.26 10635.73 6875.26"></polygon>
            <polygon id="Path" fill="#000000" points="10703.91 4084.45 10703.91 4016.39 10635.73 4016.39 10635.73 4084.45"></polygon>
            <polygon id="Path" fill="#000000" points="2591.13 4016.39 2522.95 4016.39 2522.95 4084.45 2591.13 4084.45"></polygon>
            <polygon id="Path" fill="#000000" points="10635.73 4016.39 10635.73 3948.31 10567.56 3948.31 10567.56 4016.39"></polygon>
            <polygon id="Path" fill="#000000" points="2659.3 3948.31 2591.13 3948.31 2591.13 4016.39 2659.3 4016.39"></polygon>
            <polygon id="Path" fill="#000000" points="2727.48 3880.25 2659.3 3880.25 2659.3 3948.31 2727.48 3948.31"></polygon>
            <polygon id="Path" fill="#000000" points="10976.61 3812.18 10976.61 3744.11 10908.44 3744.11 10908.44 3812.18"></polygon>
            <polygon id="Path" fill="#000000" points="10363.04 3812.18 10363.04 3744.11 10294.87 3744.11 10294.87 3812.18"></polygon>
            <polygon id="Path" fill="#000000" points="2863.83 3744.11 2795.66 3744.11 2795.66 3812.18 2863.83 3812.18"></polygon>
            <polygon id="Path" fill="#000000" points="682.24 3744.11 614.07 3744.11 614.07 3812.18 682.24 3812.18"></polygon>
            <polygon id="Path" fill="#000000" points="10908.44 3744.11 10908.44 3676.04 10840.26 3676.04 10840.26 3744.11"></polygon>
            <polygon id="Path" fill="#000000" points="2932.01 3676.04 2863.83 3676.04 2863.83 3744.11 2932.01 3744.11"></polygon>
            <polygon id="Path" fill="#000000" points="750.42 3676.04 682.24 3676.04 682.24 3744.11 750.42 3744.11"></polygon>
            <polygon id="Path" fill="#000000" points="10158.51 3676.04 10158.51 3607.97 10090.34 3607.97 10090.34 3676.04"></polygon>
            <polygon id="Path" fill="#000000" points="3000.18 3607.97 2932.01 3607.97 2932.01 3676.04 3000.18 3676.04"></polygon>
            <polygon id="Path" fill="#000000" points="818.59 3607.97 750.42 3607.97 750.42 3676.04 818.59 3676.04"></polygon>
            <polygon id="Path" fill="#000000" points="10090.34 3607.97 10090.34 3539.91 10022.16 3539.91 10022.16 3607.97"></polygon>
            <polygon id="Path" fill="#000000" points="3068.36 3539.91 3000.18 3539.91 3000.18 3607.97 3068.36 3607.97"></polygon>
            <polygon id="Path" fill="#000000" points="10635.73 3539.91 10635.73 3471.83 10567.56 3471.83 10567.56 3539.91"></polygon>
            <polygon id="Path" fill="#000000" points="3136.53 3471.83 3068.36 3471.83 3068.36 3539.91 3136.53 3539.91"></polygon>
            <polygon id="Path" fill="#000000" points="1023.12 3471.83 954.95 3471.83 954.95 3539.91 1023.12 3539.91"></polygon>
            <polygon id="Path" fill="#000000" points="10567.56 3471.83 10567.56 3403.77 10499.38 3403.77 10499.38 3471.83"></polygon>
            <polygon id="Path" fill="#000000" points="3204.7 3403.77 3136.53 3403.77 3136.53 3471.83 3204.7 3471.83"></polygon>
            <polygon id="Path" fill="#000000" points="1091.29 3403.77 1023.12 3403.77 1023.12 3471.83 1091.29 3471.83"></polygon>
            <polygon id="Path" fill="#000000" points="3272.87 3335.7 3204.7 3335.7 3204.7 3403.77 3272.87 3403.77"></polygon>
            <polygon id="Path" fill="#000000" points="3341.05 3267.64 3272.87 3267.64 3272.87 3335.7 3341.05 3335.7"></polygon>
            <polygon id="Path" fill="#000000" points="10908.44 6602.98 10840.26 6602.98 10840.26 6671.05 10908.44 6671.05"></polygon>
            <polygon id="Path" fill="#000000" points="9544.94 3267.64 9544.94 3199.56 9476.77 3199.56 9476.77 3267.64"></polygon>
            <polygon id="Path" fill="#000000" points="3477.4 3131.49 3409.23 3131.49 3409.23 3199.56 3477.4 3199.56"></polygon>
            <polygon id="Path" fill="#000000" points="3545.58 3063.43 3477.4 3063.43 3477.4 3131.49 3545.58 3131.49"></polygon>
            <polygon id="Path" fill="#000000" points="10976.61 6534.91 10908.44 6534.91 10908.44 6602.98 10976.61 6602.98"></polygon>
            <polygon id="Path" fill="#000000" points="3613.75 2995.35 3545.58 2995.35 3545.58 3063.43 3613.75 3063.43"></polygon>
            <polygon id="Path" fill="#000000" points="11044.79 6466.85 10976.61 6466.85 10976.61 6534.91 11044.79 6534.91"></polygon>
            <polygon id="Path" fill="#000000" points="3681.93 2927.29 3613.75 2927.29 3613.75 2995.35 3681.93 2995.35"></polygon>
            <polygon id="Path" fill="#000000" points="3750.1 2859.22 3681.93 2859.22 3681.93 2927.29 3750.1 2927.29"></polygon>
            <polygon id="Path" fill="#000000" points="3818.28 2791.16 3750.1 2791.16 3750.1 2859.22 3818.28 2859.22"></polygon>
            <polygon id="Path" fill="#000000" points="3886.45 2723.08 3818.28 2723.08 3818.28 2791.16 3886.45 2791.16"></polygon>
            <polygon id="Path" fill="#000000" points="3954.62 2655.02 3886.45 2655.02 3886.45 2723.08 3954.62 2723.08"></polygon>
            <polygon id="Path" fill="#000000" points="11112.95 6398.78 11044.79 6398.78 11044.79 6466.85 11112.95 6466.85"></polygon>
            <polygon id="Path" fill="#000000" points="4090.97 2518.88 4022.8 2518.88 4022.8 2586.95 4090.97 2586.95"></polygon>
            <polygon id="Path" fill="#000000" points="4159.15 2450.81 4090.97 2450.81 4090.97 2518.88 4159.15 2518.88"></polygon>
            <polygon id="Path" fill="#000000" points="4363.67 2246.6 4295.5 2246.6 4295.5 2314.68 4363.67 2314.68"></polygon>
            <polygon id="Path" fill="#000000" points="4431.85 2178.54 4363.67 2178.54 4363.67 2246.6 4431.85 2246.6"></polygon>
            <polygon id="Path" fill="#000000" points="4500.02 2178.54 4500.02 2110.47 4431.85 2110.47 4431.85 2178.54"></polygon>
            <polygon id="Path" fill="#000000" points="4568.2 2042.41 4500.02 2042.41 4500.02 2110.47 4568.2 2110.47"></polygon>
            <polygon id="Path" fill="#000000" points="4704.54 1974.33 4704.54 1906.26 4636.37 1906.26 4636.37 1974.33"></polygon>
            <polygon id="Path" fill="#000000" points="9204.07 1906.26 9204.07 1838.2 9135.89 1838.2 9135.89 1906.26"></polygon>
            <polygon id="Path" fill="#000000" points="4772.72 1906.26 4772.72 1838.2 4704.54 1838.2 4704.54 1906.26"></polygon>
            <polygon id="Path" fill="#000000" points="9135.89 1838.2 9135.89 1770.12 9067.72 1770.12 9067.72 1838.2"></polygon>
            <polygon id="Path" fill="#000000" points="4840.89 1770.12 4772.72 1770.12 4772.72 1838.2 4840.89 1838.2"></polygon>
            <polygon id="Path" fill="#000000" points="9067.72 1770.12 9067.72 1702.06 8999.54 1702.06 8999.54 1770.12"></polygon>
            <polygon id="Path" fill="#000000" points="4909.07 1702.06 4840.89 1702.06 4840.89 1770.12 4909.07 1770.12"></polygon>
            <polygon id="Path" fill="#000000" points="4977.24 1633.99 4909.07 1633.99 4909.07 1702.06 4977.24 1702.06"></polygon>
            <polygon id="Path" fill="#000000" points="11181.13 6330.71 11112.95 6330.71 11112.95 6398.78 11181.13 6398.78"></polygon>
            <polygon id="Path" fill="#000000" points="273.2 6330.71 205.02 6330.71 205.02 6398.78 273.2 6398.78"></polygon>
            <polygon id="Path" fill="#000000" points="886.77 5718.1 818.59 5718.1 818.59 5786.16 886.77 5786.16"></polygon>
            <polygon id="Path" fill="#000000" points="409.54 6194.57 341.37 6194.57 341.37 6262.64 409.54 6262.64"></polygon>
            <polygon id="Path" fill="#000000" points="11317.48 6126.5 11249.3 6126.5 11249.3 6194.57 11317.48 6194.57"></polygon>
            <polygon id="Path" fill="#000000" points="477.72 6126.5 409.54 6126.5 409.54 6194.57 477.72 6194.57"></polygon>
            <polygon id="Path" fill="#000000" points="341.37 6194.57 341.37 6126.5 273.2 6126.5 273.2 6194.57"></polygon>
            <polygon id="Path" fill="#000000" points="1023.12 5581.95 954.95 5581.95 954.95 5650.02 1023.12 5650.02"></polygon>
            <polygon id="Path" fill="#000000" points="8999.54 408.76 8999.54 340.69 8931.37 340.69 8931.37 408.76"></polygon>
            <polygon id="Path" fill="#000000" points="545.89 6058.43 477.72 6058.43 477.72 6126.5 545.89 6126.5"></polygon>
            <polygon id="Path" fill="#000000" points="1091.29 5513.89 1023.12 5513.89 1023.12 5581.95 1091.29 5581.95"></polygon>
            <polygon id="Path" fill="#000000" points="614.07 5990.37 545.89 5990.37 545.89 6058.43 614.07 6058.43"></polygon>
            <polygon id="Path" fill="#000000" points="10363.04 7011.39 10294.87 7011.39 10294.87 7079.46 10363.04 7079.46"></polygon>
            <polygon id="Path" fill="#000000" points="1295.81 7079.46 1295.81 7011.39 1227.64 7011.39 1227.64 7079.46"></polygon>
            <polygon id="Path" fill="#E4E8F4" points="11385.65 5990.37 11385.65 5922.3 11317.48 5922.3 11317.48 5990.37"></polygon>
            <polygon id="Path" fill="#000000" points="682.24 5922.3 614.07 5922.3 614.07 5990.37 682.24 5990.37"></polygon>
            <polygon id="Path" fill="#000000" points="1159.46 5445.82 1091.29 5445.82 1091.29 5513.89 1159.46 5513.89"></polygon>
            <polygon id="Path" fill="#000000" points="750.42 5854.23 682.24 5854.23 682.24 5922.3 750.42 5922.3"></polygon>
            <polygon id="Path" fill="#000000" points="1227.64 5377.75 1159.46 5377.75 1159.46 5445.82 1227.64 5445.82"></polygon>
            <polygon id="Path" fill="#000000" points="818.59 5786.16 750.42 5786.16 750.42 5854.23 818.59 5854.23"></polygon>
            <polygon id="Path" fill="#000000" points="10363.04 3335.7 10363.04 3267.64 10294.87 3267.64 10294.87 3335.7"></polygon>
            <polygon id="Path" fill="#E4E8F4" points="11249.3 6194.57 11249.3 6126.5 11181.13 6126.5 11181.13 6194.57"></polygon>
            <polygon id="Path" fill="#E4E8F4" points="409.54 6194.57 409.54 6126.5 341.37 6126.5 341.37 6194.57"></polygon>
            <polygon id="Path" fill="#000000" points="545.89 3880.25 477.72 3880.25 477.72 3948.31 545.89 3948.31"></polygon>
            <polygon id="Path" fill="#000000" points="9135.89 544.89 9135.89 476.83 9067.72 476.83 9067.72 544.89"></polygon>
            <polygon id="Path" fill="#000000" points="11112.95 3948.31 11112.95 3880.25 11044.79 3880.25 11044.79 3948.31"></polygon>
            <polygon id="Path" fill="#000000" points="1295.81 3267.64 1227.64 3267.64 1227.64 3335.7 1295.81 3335.7"></polygon>
            <polygon id="Path" fill="#000000" points="9885.81 3471.83 9885.81 3403.77 9817.64 3403.77 9817.64 3471.83"></polygon>
            <polygon id="Path" fill="#000000" points="10976.61 4356.72 10976.61 4288.66 10908.44 4288.66 10908.44 4356.72"></polygon>
            <polygon id="Path" fill="#FFFFFF" points="10022.16 2110.47 10022.16 885.24 9681.29 885.24 9681.29 817.17 9476.76 817.17 9476.76 749.1 9340.42 749.1 9340.42 681.04 9204.07 681.04 9204.07 612.97 9135.89 612.97 9135.89 544.89 9067.72 544.89 9067.72 476.83 8999.54 476.83 8999.54 408.76 8931.37 408.76 8931.37 340.7 8795.01 340.7 8795.01 272.62 8658.67 272.62 8658.67 204.56 8181.44 204.56 8181.44 1429.79 8658.67 1429.79 8658.67 1497.85 8795.01 1497.85 8795.01 1565.93 8931.37 1565.93 8931.37 1633.99 8999.54 1633.99 8999.54 1702.06 9067.72 1702.06 9067.72 1770.12 9135.89 1770.12 9135.89 1838.19 9204.07 1838.19 9204.07 1906.26 9340.42 1906.26 9340.42 1974.33 9476.76 1974.33 9476.76 2042.41 9681.29 2042.41 9681.29 2110.47"></polygon>
            <g transform="translate(8350.000000, 671.000000)" fill="#0B084D" fill-rule="nonzero">
                <path d="M62,432.14 L247,432.14 L247,123.6 L308.67,123.6 L308.67,493.83 L62,493.83 L62,432.14 Z M247,61.89 L247,0.19 L308.67,0.19 L308.67,61.89 L247,61.89 Z M0.32,432.14 L0.32,370.42 L62,370.42 L62,432.14 L0.32,432.14 Z" id="Shape"></path>
                <polygon id="Path" points="373.12 609.77 373.12 239.53 434.79 239.53 434.79 301.24 681.47 301.24 681.47 424.65 681.47 486.36 619.79 486.36 434.79 486.36 434.79 609.77"></polygon>
                <path d="M691.97,657.32 L691.97,595.61 L938.64,595.61 L938.64,657.32 L691.97,657.32 Z M630.3,595.61 L630.3,410.49 L938.64,410.49 L938.64,533.91 L691.97,533.91 L691.97,595.61 L630.3,595.61 Z" id="Shape"></path>
                <path d="M1212.16,827.15 L1212.16,765.44 L1027.15,765.44 L965.49,765.44 L965.49,703.74 L965.49,580.32 L1027.15,580.32 L1273.83,580.32 L1273.83,827.15 L1212.16,827.15 Z M965.49,888.86 L965.49,827.15 L1212.16,827.15 L1212.16,888.86 L965.49,888.86 Z M1335.5,827.15 L1335.5,703.74 L1397.16,703.74 L1397.16,827.15 L1335.5,827.15 Z" id="Shape"></path>
            </g>
        </g>
    </g>
</svg>