<?xml version="1.0" encoding="UTF-8"?>
<!DOCTYPE svg PUBLIC "-//W3C//DTD SVG 1.1//EN" "http://www.w3.org/Graphics/SVG/1.1/DTD/svg11.dtd">
<!-- Creator: CorelDRAW 2019 -->
<svg xmlns="http://www.w3.org/2000/svg" xml:space="preserve" width="41.2774mm" height="43.8014mm" version="1.1" style="shape-rendering:geometricPrecision; text-rendering:geometricPrecision; image-rendering:optimizeQuality; fill-rule:evenodd; clip-rule:evenodd"
viewBox="0 0 4127.74 4380.14"
 xmlns:xlink="http://www.w3.org/1999/xlink"
 xmlns:xodm="http://www.corel.com/coreldraw/odm/2003">
 <defs>
  <style type="text/css">
   <![CDATA[
    .fil2 {fill:none}
    .fil1 {fill:#B3B3B3}
    .fil0 {fill:white}
    .fil3 {fill:#E31C23;fill-rule:nonzero}
   ]]>
  </style>
    <clipPath id="id0">
     <path d="M3728.56 369.71l-928.66 927.04 -246.64 -433.42 -641.76 372.47 -1024.14 -146.27 -418.97 -516.69 -466.84 -85.2 29.71 -161.89 466.26 49.13 532.76 -371.52 2698.28 366.35zm-442.01 1782.28l-445.81 -783.47 739.67 105.66 148.15 -1104.47 400.71 901.62 -842.72 880.66zm-486.65 -855.24l928.66 -927.04 -148.15 1104.47 -739.67 -105.66 -40.84 -71.77zm-57.8 57.7l57.8 -57.7 40.84 71.77 -98.64 -14.07zm0 0l-830.6 -118.65 641.76 -372.47 246.64 433.42 -57.8 57.7zm0 0l-760.14 758.78 -392.49 -690.54 322.03 -186.89 830.6 118.65zm544.45 797.54l-804.63 840.86 -323.21 -568.65 -176.74 -310.97 760.13 -758.78 98.64 14.07 445.81 783.47zm-804.63 840.86l804.63 -840.86 612.13 1075.74 -147.89 630.97 239.88 427.34 -154.08 97.5 -270.34 -417.22 -641.93 -195.14 -442.4 -778.33zm-499.95 -879.62l-1228.52 1226.35 836.02 -1916.89 392.5 690.54zm-0.01 0l176.76 310.96 -687.4 1624.74 -717.87 -709.35 1228.51 -1226.35zm-510.64 1935.7l687.39 -1624.73 323.21 568.65 -1010.6 1056.08z"/>
    </clipPath>
      <mask id="id1">
  <linearGradient id="id2" gradientUnits="userSpaceOnUse" x1="2082.48" y1="2093.31" x2="1753.66" y2="2279.03">
   <stop offset="0" style="stop-opacity:1; stop-color:white"/>
   <stop offset="0.439216" style="stop-opacity:0.501961; stop-color:white"/>
   <stop offset="1" style="stop-opacity:0; stop-color:white"/>
  </linearGradient>
       <rect style="fill:url(#id2)" x="1440.71" y="1422.44" width="1041.45" height="1765.79"/>
      </mask>
 </defs>
 <g id="Слой_x0020_1">
  <metadata id="CorelCorpID_0Corel-Layer"/>
  <g id="_-249396944">
   <path class="fil0" d="M3728.56 369.71l-928.66 927.04 -246.64 -433.42 -641.76 372.47 -1024.14 -146.27 -418.97 -516.69 -466.84 -85.2 29.71 -161.89 466.26 49.13 532.76 -371.52 2698.28 366.35zm-442.01 1782.28l-445.81 -783.47 739.67 105.66 148.15 -1104.47 400.71 901.62 -842.72 880.66zm-486.65 -855.24l928.66 -927.04 -148.15 1104.47 -739.67 -105.66 -40.84 -71.77zm-57.8 57.7l57.8 -57.7 40.84 71.77 -98.64 -14.07zm0 0l-830.6 -118.65 641.76 -372.47 246.64 433.42 -57.8 57.7zm0 0l-760.14 758.78 -392.49 -690.54 322.03 -186.89 830.6 118.65zm544.45 797.54l-804.63 840.86 -323.21 -568.65 -176.74 -310.97 760.13 -758.78 98.64 14.07 445.81 783.47zm-804.63 840.86l804.63 -840.86 612.13 1075.74 -147.89 630.97 239.88 427.34 -154.08 97.5 -270.34 -417.22 -641.93 -195.14 -442.4 -778.33zm-499.95 -879.62l-1228.52 1226.35 836.02 -1916.89 392.5 690.54zm-0.01 0l176.76 310.96 -687.4 1624.74 -717.87 -709.35 1228.51 -1226.35zm-510.64 1935.7l687.39 -1624.73 323.21 568.65 -1010.6 1056.08z"/>
   <g style="clip-path:url(#id0)">
    <g>
     <polygon id="1" class="fil1" style="mask:url(#id1)" points="1440.96,1763.19 2295.15,3187.98 2481.91,2992.85 1589.46,1422.69 "/>
    </g>
   </g>
   <path class="fil2" d="M3728.56 369.71l-928.66 927.04 -246.64 -433.42 -641.76 372.47 -1024.14 -146.27 -418.97 -516.69 -466.84 -85.2 29.71 -161.89 466.26 49.13 532.76 -371.52 2698.28 366.35zm-442.01 1782.28l-445.81 -783.47 739.67 105.66 148.15 -1104.47 400.71 901.62 -842.72 880.66zm-486.65 -855.24l928.66 -927.04 -148.15 1104.47 -739.67 -105.66 -40.84 -71.77zm-57.8 57.7l57.8 -57.7 40.84 71.77 -98.64 -14.07zm0 0l-830.6 -118.65 641.76 -372.47 246.64 433.42 -57.8 57.7zm0 0l-760.14 758.78 -392.49 -690.54 322.03 -186.89 830.6 118.65zm544.45 797.54l-804.63 840.86 -323.21 -568.65 -176.74 -310.97 760.13 -758.78 98.64 14.07 445.81 783.47zm-804.63 840.86l804.63 -840.86 612.13 1075.74 -147.89 630.97 239.88 427.34 -154.08 97.5 -270.34 -417.22 -641.93 -195.14 -442.4 -778.33zm-499.95 -879.62l-1228.52 1226.35 836.02 -1916.89 392.5 690.54zm-0.01 0l176.76 310.96 -687.4 1624.74 -717.87 -709.35 1228.51 -1226.35zm-510.64 1935.7l687.39 -1624.73 323.21 568.65 -1010.6 1056.08z"/>
   <path class="fil3" d="M1250.59 408.19l-78.65 -10.94 -29.03 -93.5 -28.68 30.49 -7 53.99 -67.83 -9.45 30.34 -233.78 67.83 9.44 -12.51 96.45 76.93 -87.48 64.54 8.99 -70.19 77.17 54.25 158.62zm103.35 -71.94l-11 84.81 -73.09 -10.17 30.34 -233.8 100.02 13.94c24.96,3.48 43.54,8.99 55.82,16.51 12.19,7.54 21.37,17.68 27.46,30.55 6.08,12.78 8.17,26.52 6.27,41.13 -2.89,22.31 -13,39.22 -30.31,50.79 -17.32,11.57 -38.92,15.52 -64.87,11.89l-40.64 -5.65zm5.46 -50.29l23.9 3.34c21.06,2.94 32.63,-3.47 34.67,-19.24 1.94,-14.84 -6.81,-23.61 -26.33,-26.34l-26.29 -3.66 -5.95 45.9zm320.01 125.25l-7.23 55.72 -176.4 -24.57 30.34 -233.79 176.4 24.57 -7 53.99 -105.77 -14.74 -4.42 33.99 85.4 11.91 -6.75 51.86 -85.38 -11.89 -4.96 38.21 105.77 14.74zm161.21 -11.45l65.19 13.05c-6.81,28.15 -20.25,48.57 -40.34,61.31 -20.06,12.73 -43.3,17.28 -69.71,13.6 -31.81,-4.43 -56.11,-18.51 -72.87,-42.21 -16.85,-23.69 -22.85,-54.08 -18.06,-91.01 4.75,-36.63 17.84,-64.89 39.26,-84.81 21.41,-19.9 48.72,-27.54 81.84,-22.92 30.99,4.32 53.71,16.17 68.13,35.55 14.37,19.36 20.86,43.34 19.36,71.81l-67.58 -5.74c2.03,-15.6 0.49,-27.23 -4.58,-35.01 -5.08,-7.79 -11.71,-12.22 -19.8,-13.34 -22.55,-3.15 -36.78,18 -42.68,63.51 -3.31,25.47 -2.65,43.23 2.04,53.16 4.72,10 12.37,15.7 22.98,17.17 18.92,2.65 31.2,-8.74 36.82,-34.12zm203.93 -61.86l-23.07 177.7 -68.16 -9.49 23.07 -177.72 -48.5 -6.74 7.28 -56.09 165.14 23 -7.27 56.09 -48.49 -6.75zm274.74 -18.83l-30.34 233.78 -72.03 -10.03 11.77 -90.78 -54.45 -7.59 -11.79 90.78 -72.03 -10.03 30.34 -233.79 72.03 10.03 -11.2 86.25 54.47 7.59 11.2 -86.25 72.03 10.04zm139.95 257.51l-6.98 -47.71 -63.76 -8.88 -19.78 43.98 -58.32 -8.11 102.82 -223.71 76.01 10.59 43.39 244.06 -73.38 -10.22zm-51.05 -105.96l37.48 5.22 -10 -70.31 -27.48 65.09zm356.83 148.56l-78.65 -10.96 -29.03 -93.48 -28.68 30.49 -7 53.98 -67.83 -9.44 30.34 -233.8 67.83 9.46 -12.51 96.44 76.93 -87.47 64.54 8.99 -70.19 77.17 54.25 158.62zm103.35 -71.96l-11.02 84.83 -73.07 -10.19 30.34 -233.79 100.02 13.93c24.96,3.5 43.54,9.01 55.8,16.53 12.21,7.54 21.39,17.67 27.48,30.54 6.08,12.79 8.17,26.53 6.27,41.13 -2.9,22.31 -13,39.21 -30.31,50.8 -17.32,11.57 -38.94,15.5 -64.87,11.89l-40.64 -5.67zm5.46 -50.27l23.88 3.34c21.08,2.93 32.65,-3.48 34.69,-19.26 1.92,-14.82 -6.81,-23.61 -26.33,-26.33l-26.29 -3.65 -5.95 45.9zm320.01 125.25l-7.23 55.72 -176.4 -24.57 30.34 -233.79 176.4 24.57 -7 53.98 -105.77 -14.74 -4.42 34 85.38 11.89 -6.73 51.87 -85.38 -11.88 -4.96 38.21 105.77 14.74zm161.21 -11.45l65.19 13.05c-6.81,28.15 -20.25,48.57 -40.34,61.3 -20.06,12.72 -43.3,17.29 -69.71,13.59 -31.81,-4.41 -56.11,-18.51 -72.87,-42.21 -16.85,-23.67 -22.87,-54.08 -18.06,-90.99 4.75,-36.65 17.84,-64.9 39.26,-84.81 21.41,-19.92 48.7,-27.54 81.84,-22.92 30.99,4.31 53.71,16.17 68.13,35.55 14.37,19.36 20.86,43.32 19.36,71.8l-67.59 -5.73c2.02,-15.6 0.5,-27.24 -4.57,-35.01 -5.08,-7.79 -11.71,-12.23 -19.8,-13.36 -22.55,-3.13 -36.78,18.01 -42.68,63.53 -3.31,25.47 -2.65,43.22 2.04,53.16 4.72,10 12.37,15.7 22.98,17.16 18.92,2.64 31.2,-8.73 36.82,-34.11zm124.82 7.22l10.93 -78.59 -48.48 -6.75 7.28 -56.09 150.89 21.03 -120.62 120.4z"/>
  </g>
 </g>
 <g id="Слой_x0020_1_0">
  <metadata id="CorelCorpID_1Corel-Layer"/>
 </g>
</svg>
