<?xml version="1.0" encoding="UTF-8"?>
<!DOCTYPE svg PUBLIC "-//W3C//DTD SVG 1.1//EN" "http://www.w3.org/Graphics/SVG/1.1/DTD/svg11.dtd">
<!-- Creator: CorelDRAW 2019 -->
<svg xmlns="http://www.w3.org/2000/svg" xml:space="preserve" width="43.9418mm" height="20.065mm" version="1.1" style="shape-rendering:geometricPrecision; text-rendering:geometricPrecision; image-rendering:optimizeQuality; fill-rule:evenodd; clip-rule:evenodd"
viewBox="0 0 4394.18 2006.5"
 xmlns:xlink="http://www.w3.org/1999/xlink"
 xmlns:xodm="http://www.corel.com/coreldraw/odm/2003">
 <defs>
  <style type="text/css">
   <![CDATA[
    .fil0 {fill:white;fill-rule:nonzero}
   ]]>
  </style>
 </defs>
 <g id="Слой_x0020_1">
  <metadata id="CorelCorpID_0Corel-Layer"/>
  <g id="_-101450464">
   <path class="fil0" d="M-4.24 1266.06c0,0 568.56,13.87 568.56,13.87 0,0 124.8,-568.56 124.8,-568.56 0,0 -693.36,0 -693.36,0 0,0 0,554.69 0,554.69z"/>
   <path class="fil0" d="M3444.36 20.86c0,0 326.85,0 326.85,0 0,0 -229.7,421.19 -229.7,421.19 0,0 181.9,0 181.9,0 0,0 -13.38,88.75 -13.38,88.75 0,0 -330.62,0 -330.62,0 0,0 230,-420.16 230,-420.16 0,0 -179.21,0 -179.21,0 -0.01,0 14.16,-89.78 14.16,-89.78z"/>
   <path class="fil0" d="M4078.62 20.86c0,0 91.71,0 91.71,0 0,0 144.25,509.94 144.25,509.94 0,0 -105.49,0 -105.49,0 0,0 -30.69,-108.5 -30.69,-108.5 0,0 -229.7,0 -229.7,0 0,0 -65.85,108.5 -65.84,108.5 0,0 -116.95,0 -116.95,0 -0.01,0 312.71,-509.94 312.71,-509.94zm73.07 311.31l0 0c0,-0.01 -46.31,-167.95 -46.31,-167.95 0,-0.01 -101.94,167.95 -101.94,167.95 0,-0.01 148.26,0 148.25,0z"/>
   <path class="fil0" d="M1349.55 841.79c0,-0.01 -79.09,64.59 -79.09,64.59 -17.06,-17.31 -37.92,-30.62 -62.59,-39.98 -24.67,-9.36 -51.44,-14.03 -80.29,-14.03 -40.41,0 -79.13,9.11 -116.11,27.36 -36.99,18.24 -65.82,42.35 -86.38,72.37 -20.56,30.03 -31.03,62 -30.89,95.93 0.19,46.18 17.69,84.56 54.39,115.16 36.69,30.61 81.26,45.89 139.72,45.89 58.46,0 113.75,-15.47 156.88,-46.45 0.18,0 64.17,74.53 64.22,74.53 -65.88,40.87 -142.08,61.42 -228.68,61.37 -60.87,-0.04 -112.62,-10.07 -155.26,-30.55 -42.64,-20.47 -76.89,-49.81 -102.73,-89.65 -25.84,-39.85 -38.75,-80.86 -38.75,-128.46 -0.01,-47.6 15.27,-96.49 45.83,-141.25 30.57,-44.76 71.98,-80.87 124.19,-106.73 52.21,-25.86 109.15,-39.02 170.81,-38.98 86.58,0.05 161.51,26.27 224.73,78.88z"/>
   <path class="fil0" d="M1750.24 762.92c79.48,-0.01 145.06,22.54 196.76,67.6 51.7,45.06 77.54,102.27 77.54,171.6 0.01,53.17 -15.27,103.26 -45.85,150.29 -30.57,47.03 -71.24,83.12 -122.01,108.31 -50.77,25.2 -109.09,37.81 -174.94,37.82 -82.4,0 -148.17,-21.51 -197.37,-64.49 -49.2,-42.98 -73.84,-99.63 -73.83,-169.87 0.02,-79.72 29.38,-148.3 88.2,-205.56 65.56,-63.83 149.4,-95.69 251.5,-95.7zm-3.95 90.51l0 0c-41.47,0.07 -79.33,8.59 -113.54,26.55 -34.21,17.96 -61.96,42.35 -82.84,76.39 -20.87,34.04 -31.81,64.9 -31.45,103.49 0.36,38.58 13.59,77.48 43.87,105.73 30.29,28.25 67.57,43.81 126.48,43.54 58.91,-0.27 117.21,-19.6 160.24,-58.97 43.03,-39.37 66.55,-86.98 66.13,-143.18 -0.34,-46.48 -15.47,-83.67 -46.67,-111.62 -31.21,-27.95 -71.81,-42.03 -122.22,-41.93z"/>
   <path class="fil0" d="M2161.46 775.75c0,0 94.87,0 94.87,0 0,0 208.77,346.66 208.77,346.66 0,-0.01 53.79,-346.65 53.79,-346.66 0,0 106.06,0 106.06,0 0,0 -78.71,509.95 -78.71,509.95 0,0 -92.84,0 -92.84,0 0,0 -211.53,-350.47 -211.53,-350.47 0,0 -54.38,350.47 -54.39,350.47 0,0 -104.32,0 -104.32,0 -0.01,-0.01 78.3,-509.95 78.3,-509.95z"/>
   <path class="fil0" d="M2682.61 775.75c0,0 353.43,0 353.43,0 0,0 -12.57,90.82 -12.57,90.82 0,0 -120.69,0 -120.69,0 0,0 -65.03,419.13 -65.03,419.13 0,0 -107.9,0 -107.9,0 0,0 65.03,-419.13 65.03,-419.13 -0.01,0 -125.65,0 -125.65,0 0,0 13.38,-90.82 13.38,-90.82z"/>
   <path class="fil0" d="M3089.55 775.75c0,0 311.34,0 311.34,0 0,0 -13.32,90.49 -13.33,90.49 0,0 -202.02,0 -202.02,0 0,0 -16.6,105.39 -16.6,105.39 0,0 203.08,0 203.08,0 0,0 -13.25,89.78 -13.25,89.78 0,0 -203.97,0 -203.97,0 0,0 -21.32,135.21 -21.31,135.21 -0.01,0 205.35,0 205.35,0 0,0 -13.11,89.08 -13.11,89.08 0,0 -315.26,0 -315.26,0 0,-0.01 79.08,-509.95 79.08,-509.95z"/>
   <path class="fil0" d="M3515.38 775.75c-0.01,0 94.84,0 94.84,0 0,0 208.77,346.66 208.77,346.66 0,-0.01 53.79,-346.65 53.79,-346.66 0,0 106.06,0 106.06,0 0,0 -78.7,509.95 -78.7,509.95 0,0 -92.85,0 -92.85,0 0,0 -211.53,-350.47 -211.53,-350.47 0,0 -54.38,350.47 -54.38,350.47 -0.01,0 -104.33,0 -104.33,0 -0.01,-0.01 78.33,-509.95 78.33,-509.95z"/>
   <path class="fil0" d="M4036.53 775.75c0,0 353.43,0 353.43,0 0,0 -12.6,90.82 -12.6,90.82 0,0 -120.69,0 -120.69,0 0,0 -65,419.13 -65,419.13 0,0 -107.9,0 -107.9,0 0,0 65,-419.13 65,-419.13 0,0 -125.62,0 -125.62,0 0,0 13.38,-90.82 13.38,-90.82z"/>
   <path class="fil0" d="M-4.23 558.84c0,0 3209.79,13.86 3209.79,13.86 0,0 127.22,-568.55 127.22,-568.55l-3337.01 0c0,0 0,554.68 0,554.69z"/>
   <path class="fil0" d="M2088.32 1461.47l102.75 0c62.53,0 108.99,5.47 139.35,16.39 30.37,10.94 54.87,27.92 73.49,50.98 18.6,23.07 27.92,47.96 27.92,74.67 0,22.32 -6.57,43.38 -19.75,63.17 -13.15,19.79 -32.11,36.36 -56.92,49.71 59.2,33.27 88.82,77.45 88.82,132.55 0,28.66 -9.38,54.88 -28.13,78.66 -18.76,23.8 -41.95,41.33 -69.56,52.62 -27.61,11.29 -67.53,16.94 -119.75,16.94l-228.71 0 90.49 -535.69zm50.88 440.65l0 0 74.54 2.19c37.43,0 64.67,-5.96 81.73,-17.86 17.08,-11.88 25.61,-28.15 25.61,-48.8 0,-15.05 -5.29,-28.51 -15.86,-40.41 -10.57,-11.9 -24.64,-20.28 -42.19,-25.13 -17.58,-4.86 -51.21,-7.4 -100.93,-7.64l-22.9 137.65zm37.92 -227.97l0 0 22.26 0c33.25,0 55.82,-2 67.68,-6.02 11.88,-3.99 21.98,-11.47 30.3,-22.39 8.31,-10.92 12.47,-23.06 12.47,-36.42 0,-12.37 -3.69,-23.06 -11.06,-32.03 -7.37,-9 -17.04,-15.06 -28.98,-18.21 -11.95,-3.16 -36.2,-4.73 -72.74,-4.73l-19.93 119.8z"/>
   <path class="fil0" d="M2618.64 1461.47l123.89 0 -55.39 330.67c-4.82,28.9 -7.21,49.28 -7.21,61.18 0,20.16 7.72,35.87 23.19,47.16 15.46,11.28 37.91,16.94 67.35,16.94 23.72,0 44.45,-4.26 62.16,-12.76 13.22,-6.31 23.81,-16.8 31.77,-31.49 7.95,-14.68 15.67,-43.89 23.19,-87.59l54.75 -324.11 125.28 0 -53.54 319.75c-11.13,65.79 -25.67,113.01 -43.69,141.67 -18.01,28.63 -44.04,50.43 -78.11,65.36 -34.08,14.91 -75.58,22.39 -124.52,22.39 -66.04,0 -117.51,-14.22 -154.42,-42.61 -36.94,-28.41 -55.39,-67.25 -55.39,-116.53 0,-21.36 3.6,-52.93 10.81,-94.69l49.88 -295.34z"/>
   <path class="fil0" d="M3220.12 1461.47l115.02 0c70.99,0 120.95,4.98 149.9,14.94 36.11,12.37 63.33,29.53 81.66,51.49 18.36,21.98 27.53,47.99 27.53,78.08 0,37.14 -13.64,68.97 -40.88,95.56 -27.27,26.57 -68.44,45.06 -123.54,55.49l144.16 240.13 -128.76 0 -141.35 -233.8 -10.18 0 -39.74 233.8 -124.32 0 90.5 -535.69zm88.47 214.14l0 0c67.29,-0.25 111.08,-5.88 131.38,-16.94 20.3,-11.04 30.46,-27.61 30.46,-49.71 0,-12.62 -4.08,-23.17 -12.23,-31.67 -8.13,-8.5 -19.91,-14.44 -35.29,-17.84 -15.41,-3.4 -46.64,-5.1 -93.71,-5.1l-20.61 121.26z"/>
   <path class="fil0" d="M4051.65 1448c90.93,0 165.96,23.67 225.1,71.01 59.11,47.34 88.69,107.44 88.69,180.26 0,55.85 -17.49,108.48 -52.46,157.86 -34.96,49.41 -81.48,87.35 -139.55,113.81 -58.07,26.47 -124.79,39.7 -200.13,39.7 -94.24,0 -169.48,-22.57 -225.77,-67.74 -56.27,-45.15 -84.41,-104.63 -84.41,-178.43 0,-83.76 33.61,-155.74 100.84,-215.96 75.03,-67 170.94,-100.51 287.69,-100.51zm-4.5 95.06l0 0c-47.42,0 -90.73,9.28 -129.89,27.86 -39.17,18.56 -70.75,45.27 -94.76,80.11 -24.03,34.84 -36.03,70.83 -36.03,107.97 0,43.93 16.68,81.21 49.98,111.8 33.31,30.58 81.18,45.88 143.61,45.88 72.33,0 133.78,-20.63 184.35,-61.9 50.58,-41.28 75.87,-91.42 75.87,-150.41 0,-48.79 -17.77,-87.88 -53.35,-117.25 -35.56,-29.37 -82.17,-44.06 -139.78,-44.06z"/>
   <path class="fil0" d="M-4.24 1994.03c0,0 1858.52,8.29 1858.52,8.3 -0.01,-0.01 126.15,-568.56 126.15,-568.56l-1984.67 -19.32c0,0 0,579.58 0,579.58z"/>
  </g>
 </g>
 <g id="Слой_x0020_1_0">
  <metadata id="CorelCorpID_1Corel-Layer"/>
 </g>
 <g id="Слой_x0020_1_0_1">
  <metadata id="CorelCorpID_2Corel-Layer"/>
 </g>
</svg>
