<?xml version="1.0" encoding="UTF-8"?>
<!DOCTYPE svg PUBLIC "-//W3C//DTD SVG 1.1//EN" "http://www.w3.org/Graphics/SVG/1.1/DTD/svg11.dtd">
<!-- Creator: CorelDRAW 2019 -->
<svg xmlns="http://www.w3.org/2000/svg" xml:space="preserve" width="106.243mm" height="116.757mm" version="1.1" style="shape-rendering:geometricPrecision; text-rendering:geometricPrecision; image-rendering:optimizeQuality; fill-rule:evenodd; clip-rule:evenodd"
viewBox="0 0 10624.3 11675.7"
 xmlns:xlink="http://www.w3.org/1999/xlink"
 xmlns:xodm="http://www.corel.com/coreldraw/odm/2003">
 <defs>
  <style type="text/css">
   <![CDATA[
    .fil0 {fill:white}
   ]]>
  </style>
 </defs>
 <g id="Слой_x0020_1">
  <metadata id="CorelCorpID_0Corel-Layer"/>
  <path class="fil0" d="M3275.05 351.9c-17.72,681.55 -399.63,5732.53 -345.1,5877.21l781.55 193.94 -74.66 311.06 -1061.47 -256.24 362.17 -5816.21c-496.17,214.39 -1100.33,793.44 -1470.22,1215.13 -2446.77,2911.94 -1830.21,8152.75 1754.82,9805.3 4.9,-75.21 246.06,-1147 287.32,-1312.17 394.78,-1580.16 817.44,-2787.15 2193.9,-3765 1032.57,-733.53 887.1,-1503.19 971.61,-2578.4 211.19,-2688.77 752.68,-366.7 727.56,19.75 12.63,-310.09 -140,-1251.49 27.85,-1331.46 207.59,-63.92 249.45,439.41 275.25,603.84 17.67,112.72 122.3,737.52 114.07,777.76 26.87,-295.47 -156.85,-1268.69 32.79,-1424.66 168.55,-60.5 257.96,458.47 280.11,567.72 39.5,194.91 91.82,553.74 151.76,707.21 -6.38,-278.35 -192.55,-1111.7 21.42,-1278.86 333.25,16.37 731.17,1520.12 821.69,1944.82 590.94,2772.67 -1718.97,2802.05 -1245.98,6598.86 79.79,-36.17 406.8,-303.56 483.86,-377.75 764.25,-735.66 1318.23,-1617.81 1655.51,-2626.37 620.03,-1854.17 363.37,-4055.42 -696.81,-5705.43 -76.09,-118.45 309.9,-859.53 384.74,-1056.8 216.88,50.56 562.72,224.33 911.01,-36.45 -606.94,-143.71 -463.37,-618.73 -585.39,-768.27 -14.66,-17.9 -524.79,-228.17 -580.76,-252.08 -120.49,227.75 -593.99,1370.08 -601.3,1457.63 -979.88,-998.38 -1618.5,-1431.22 -3035.57,-1738.21 -693.39,-150.23 -1934.98,-155.45 -2539.97,134.79l-1.76 109.34zm1448.2 4853.44c-544.17,157.44 -266.79,856.71 260.08,707.68 521,-147.32 283.72,-865.04 -260.08,-707.68zm-3927.02 -5.05c-527.34,155.37 -279.51,861.71 267.06,709.35 183.22,-51.06 355.83,-250.09 264.16,-483.44 -66.74,-169.98 -295.15,-295.47 -531.22,-225.91z"/>
 </g>
</svg>
