<?xml version="1.0" encoding="UTF-8"?>
<!DOCTYPE svg PUBLIC "-//W3C//DTD SVG 1.1//EN" "http://www.w3.org/Graphics/SVG/1.1/DTD/svg11.dtd">
<!-- Creator: CorelDRAW 2019 -->
<svg xmlns="http://www.w3.org/2000/svg" xml:space="preserve" width="104.431mm" height="40.3504mm" version="1.1" style="shape-rendering:geometricPrecision; text-rendering:geometricPrecision; image-rendering:optimizeQuality; fill-rule:evenodd; clip-rule:evenodd"
viewBox="0 0 10443.12 4035.04"
 xmlns:xlink="http://www.w3.org/1999/xlink"
 xmlns:xodm="http://www.corel.com/coreldraw/odm/2003">
 <defs>
  <style type="text/css">
   <![CDATA[
    .str0 {stroke:white;stroke-width:169.33;stroke-linecap:round;stroke-linejoin:round;stroke-miterlimit:22.9256}
    .fil0 {fill:none;fill-rule:nonzero}
    .fil1 {fill:white;fill-rule:nonzero}
   ]]>
  </style>
 </defs>
 <g id="Слой_x0020_1">
  <metadata id="CorelCorpID_0Corel-Layer"/>
  <polyline class="fil0 str0" points="5499.35,-8.86 3911.34,2837.4 4249.76,3358.04 4495.78,3521.72 3824.56,4026.22 "/>
  <path class="fil0 str0" d="M-10.94 2872.1c304.03,711.71 1187.46,666.81 1371.06,-99.79"/>
  <path class="fil0 str0" d="M687.79 2477.5c80.96,0 146.58,65.64 146.58,146.58 0,80.96 -65.62,146.59 -146.58,146.59 -80.97,0 -146.58,-65.63 -146.58,-146.59 0,-80.94 65.61,-146.58 146.58,-146.58z"/>
  <path class="fil0 str0" d="M4207.74 3293.41c-153.45,82.82 -173.46,378.18 -3.05,447.11"/>
  <path class="fil1" d="M5740.41 2872.58c-50.48,0.06 -98.07,-9.56 -142.74,-28.91 -44.68,-19.39 -83.71,-45.68 -117.06,-78.98 -33.39,-33.28 -59.77,-72.24 -79.25,-116.86 -19.49,-44.63 -29.25,-92.49 -29.31,-143.63 -0.06,-50.48 9.56,-98.22 28.95,-143.23 19.35,-44.99 45.64,-84.17 78.95,-117.53 33.27,-33.39 72.24,-59.78 116.86,-79.28 44.62,-19.46 92.18,-29.21 142.66,-29.27 51.11,-0.07 99.03,9.56 143.71,28.91 44.67,19.39 83.7,45.68 117.05,78.99 33.35,33.26 59.77,72.37 79.25,117.32 19.5,44.96 29.25,92.68 29.31,143.16 0.07,51.14 -9.56,99.03 -28.95,143.7 -19.35,44.67 -45.68,83.7 -78.95,117.05 -33.27,33.39 -72.24,59.79 -116.86,79.28 -44.62,19.47 -92.51,29.21 -143.62,29.28zm-0.29 -610.53l0 0c-32.35,0.04 -62.43,6.71 -90.59,19.99 -27.94,13.32 -52.54,30.96 -73.53,53 -20.99,22.03 -37.46,47.77 -49.72,77.25 -12.26,29.43 -18.38,60.05 -18.34,91.74 0.05,32.35 6.25,63.09 18.57,92.2 12.33,29.08 28.87,54.82 49.92,77.09 21.06,22.31 45.68,40.08 73.66,53.28 28.2,13.25 58.28,19.85 90.64,19.82 32.36,-0.05 62.43,-6.72 90.55,-20.04 27.97,-13.28 52.57,-31.11 73.57,-53.47 20.99,-22.34 37.46,-48.1 49.72,-77.22 12.25,-29.14 18.38,-59.89 18.34,-92.25 -0.05,-31.69 -6.25,-62.29 -18.57,-91.69 -12.34,-29.45 -28.86,-55.15 -49.92,-77.13 -21.05,-21.99 -45.68,-39.56 -73.7,-52.8 -28.16,-13.21 -58.25,-19.82 -90.6,-19.77z"/>
  <polygon class="fil1" points="6739.41,2267.56 6536.54,2267.82 6537.29,2858 6401.4,2858.16 6400.65,2267.99 6196.82,2268.25 6196.67,2147.89 6739.26,2147.19 "/>
  <polygon class="fil1" points="7267.24,2857.07 6968.82,2534.2 6969.23,2857.45 6833.35,2857.62 6832.45,2147.08 6968.33,2146.9 6968.79,2508.01 7250.82,2147.5 7417.74,2147.29 7126.05,2514.6 7446.82,2856.84 "/>
  <path class="fil1" d="M7862.31 2145.78c34.97,-0.05 67.81,6.55 98.56,19.76 30.77,13.23 57.46,31.18 80.15,53.78 22.67,22.62 40.68,49.3 53.96,80.02 13.32,30.73 20,63.55 20.04,98.48 0.04,34.97 -5.75,67.33 -17.37,97.1 -11.6,29.8 -28.74,55.87 -51.34,78.2 -22.61,22.37 -51.24,39.87 -85.85,52.54 -34.58,12.66 -74.52,19.02 -119.83,19.08l-158.23 0.2 0.27 211.6 -135.88 0.17 -0.91 -710.54 316.42 -0.39 0.01 0zm0.48 376.62l0 0c20.07,-0.03 37.52,-3.46 52.42,-10.27 14.88,-6.8 27.01,-16.03 36.36,-27.7 9.38,-11.64 16.32,-24.93 20.81,-39.83 4.53,-14.87 6.75,-30.43 6.73,-46.61 -0.02,-16.17 -2.94,-32.17 -8.79,-48.01 -5.82,-15.88 -14.27,-29.92 -25.29,-42.19 -10.99,-12.27 -24.6,-22.32 -40.8,-30.07 -16.19,-7.73 -34.95,-11.59 -56.33,-11.56l-165.96 0.21 0.31 256.25 180.54 -0.22z"/>
  <path class="fil1" d="M8204.91 2855.88l-0.9 -710.54 135.88 -0.17 0.35 277.61 192.2 -0.24c30.41,-0.05 59.03,3.48 85.9,10.56 26.89,7.08 50.36,18.87 70.44,35.35 20.09,16.48 35.97,38.14 47.63,64.99 11.7,26.83 17.58,59.67 17.62,98.48l0.02 13.61c0.05,38.81 -5.75,71.65 -17.37,98.52 -11.6,26.87 -27.41,48.56 -47.47,65.1 -20.04,16.54 -43.47,28.38 -70.35,35.54 -26.85,7.15 -55.46,10.74 -85.87,10.78l-328.08 0.41zm135.48 -312.74l0 0 0.24 192.2 192.2 -0.25c11.63,-0.01 22.64,-2.78 32.97,-8.29 10.38,-5.52 19.44,-12.97 27.16,-22.34 7.77,-9.41 13.92,-19.76 18.41,-31.1 4.53,-11.34 6.76,-22.83 6.74,-34.46 -0.01,-11.66 -2.26,-23.14 -6.82,-34.47 -4.53,-11.3 -10.71,-21.67 -18.49,-31.02 -7.75,-9.38 -16.83,-16.81 -27.21,-22.3 -10.35,-5.49 -21.37,-8.23 -33,-8.21l-192.2 0.24zm638.16 311.77l0 0 -135.93 0.17 -0.9 -709.59 135.93 -0.18 0.9 709.6z"/>
  <polygon class="fil1" points="9637.85,2263.89 9434.98,2264.15 9435.73,2854.33 9299.84,2854.5 9299.09,2264.32 9095.26,2264.59 9095.11,2144.22 9637.7,2143.53 "/>
  <path class="fil1" d="M10063.78 2867.1c-50.48,0.07 -98.08,-9.55 -142.75,-28.91 -44.67,-19.38 -83.7,-45.68 -117.05,-78.98 -33.4,-33.27 -59.78,-72.23 -79.25,-116.86 -19.5,-44.62 -29.24,-92.48 -29.31,-143.62 -0.06,-50.48 9.56,-98.22 28.95,-143.23 19.34,-45 45.64,-84.18 78.95,-117.53 33.26,-33.39 72.24,-59.79 116.85,-79.28 44.62,-19.47 92.2,-29.21 142.68,-29.28 51.11,-0.06 99.03,9.57 143.7,28.91 44.67,19.39 83.7,45.68 117.05,78.99 33.35,33.27 59.78,72.38 79.24,117.33 19.51,44.96 29.25,92.67 29.32,143.15 0.06,51.14 -9.56,99.03 -28.95,143.7 -19.35,44.67 -45.67,83.71 -78.95,117.07 -33.27,33.38 -72.24,59.77 -116.85,79.27 -44.63,19.46 -92.53,29.21 -143.63,29.27zm-0.3 -610.53l0 0c-32.35,0.04 -62.42,6.72 -90.58,20 -27.95,13.31 -52.54,30.95 -73.53,53 -21,22.03 -37.47,47.76 -49.72,77.24 -12.26,29.44 -18.37,60.05 -18.34,91.74 0.04,32.36 6.26,63.09 18.57,92.21 12.33,29.08 28.87,54.81 49.92,77.09 21.05,22.31 45.69,40.07 73.66,53.28 28.2,13.24 58.29,19.85 90.64,19.81 32.36,-0.04 62.44,-6.72 90.55,-20.04 27.98,-13.28 52.57,-31.1 73.56,-53.46 21.01,-22.34 37.48,-48.11 49.73,-77.22 12.26,-29.15 18.38,-59.89 18.33,-92.26 -0.04,-31.69 -6.24,-62.28 -18.57,-91.69 -12.32,-29.44 -28.86,-55.14 -49.91,-77.13 -21.06,-21.98 -45.69,-39.56 -73.7,-52.8 -28.15,-13.21 -58.24,-19.81 -90.61,-19.77z"/>
  <path class="fil1" d="M5740.41 2872.58c-50.48,0.06 -98.07,-9.56 -142.74,-28.91 -44.68,-19.39 -83.71,-45.68 -117.06,-78.98 -33.39,-33.28 -59.77,-72.24 -79.25,-116.86 -19.49,-44.63 -29.25,-92.49 -29.31,-143.63 -0.06,-50.48 9.56,-98.22 28.95,-143.23 19.35,-44.99 45.64,-84.17 78.95,-117.53 33.27,-33.39 72.24,-59.78 116.86,-79.28 44.62,-19.46 92.18,-29.21 142.66,-29.27 51.11,-0.07 99.03,9.56 143.71,28.91 44.67,19.39 83.7,45.68 117.05,78.99 33.35,33.26 59.77,72.37 79.25,117.32 19.5,44.96 29.25,92.68 29.31,143.16 0.07,51.14 -9.56,99.03 -28.95,143.7 -19.35,44.67 -45.68,83.7 -78.95,117.05 -33.27,33.39 -72.24,59.79 -116.86,79.28 -44.62,19.47 -92.51,29.21 -143.62,29.28zm-0.29 -610.53l0 0c-32.35,0.04 -62.43,6.71 -90.59,19.99 -27.94,13.32 -52.54,30.96 -73.53,53 -20.99,22.03 -37.46,47.77 -49.72,77.25 -12.26,29.43 -18.38,60.05 -18.34,91.74 0.05,32.35 6.25,63.09 18.57,92.2 12.33,29.08 28.87,54.82 49.92,77.09 21.06,22.31 45.68,40.08 73.66,53.28 28.2,13.25 58.28,19.85 90.64,19.82 32.36,-0.05 62.43,-6.72 90.55,-20.04 27.97,-13.28 52.57,-31.11 73.57,-53.47 20.99,-22.34 37.46,-48.1 49.72,-77.22 12.25,-29.14 18.38,-59.89 18.34,-92.25 -0.05,-31.69 -6.25,-62.29 -18.57,-91.69 -12.34,-29.45 -28.86,-55.15 -49.92,-77.13 -21.05,-21.99 -45.68,-39.56 -73.7,-52.8 -28.16,-13.21 -58.25,-19.82 -90.6,-19.77z"/>
  <path class="fil1" d="M8204.91 2855.88l-0.9 -710.54 135.88 -0.17 0.35 277.61 192.2 -0.24c30.41,-0.05 59.03,3.48 85.9,10.56 26.89,7.08 50.36,18.87 70.44,35.35 20.09,16.48 35.97,38.14 47.63,64.99 11.7,26.83 17.58,59.67 17.62,98.48l0.02 13.61c0.05,38.81 -5.75,71.65 -17.37,98.52 -11.6,26.87 -27.41,48.56 -47.47,65.1 -20.04,16.54 -43.47,28.38 -70.35,35.54 -26.85,7.15 -55.46,10.74 -85.87,10.78l-328.08 0.41zm135.48 -312.74l0 0 0.24 192.2 192.2 -0.25c11.63,-0.01 22.64,-2.78 32.97,-8.29 10.38,-5.52 19.44,-12.97 27.16,-22.34 7.77,-9.41 13.92,-19.76 18.41,-31.1 4.53,-11.34 6.76,-22.83 6.74,-34.46 -0.01,-11.66 -2.26,-23.14 -6.82,-34.47 -4.53,-11.3 -10.71,-21.67 -18.49,-31.02 -7.75,-9.38 -16.83,-16.81 -27.21,-22.3 -10.35,-5.49 -21.37,-8.23 -33,-8.21l-192.2 0.24zm638.16 311.77l0 0 -135.93 0.17 -0.9 -709.59 135.93 -0.18 0.9 709.6z"/>
  <polygon class="fil1" points="9637.85,2263.89 9434.98,2264.15 9435.73,2854.33 9299.84,2854.5 9299.09,2264.32 9095.26,2264.59 9095.11,2144.22 9637.7,2143.53 "/>
  <path class="fil1" d="M10063.78 2867.1c-50.48,0.07 -98.08,-9.55 -142.75,-28.91 -44.67,-19.38 -83.7,-45.68 -117.05,-78.98 -33.4,-33.27 -59.78,-72.23 -79.25,-116.86 -19.5,-44.62 -29.24,-92.48 -29.31,-143.62 -0.06,-50.48 9.56,-98.22 28.95,-143.23 19.34,-45 45.64,-84.18 78.95,-117.53 33.26,-33.39 72.24,-59.79 116.85,-79.28 44.62,-19.47 92.2,-29.21 142.68,-29.28 51.11,-0.06 99.03,9.57 143.7,28.91 44.67,19.39 83.7,45.68 117.05,78.99 33.35,33.27 59.78,72.38 79.24,117.33 19.51,44.96 29.25,92.67 29.32,143.15 0.06,51.14 -9.56,99.03 -28.95,143.7 -19.35,44.67 -45.67,83.71 -78.95,117.07 -33.27,33.38 -72.24,59.77 -116.85,79.27 -44.63,19.46 -92.53,29.21 -143.63,29.27zm-0.3 -610.53l0 0c-32.35,0.04 -62.42,6.72 -90.58,20 -27.95,13.31 -52.54,30.95 -73.53,53 -21,22.03 -37.47,47.76 -49.72,77.24 -12.26,29.44 -18.37,60.05 -18.34,91.74 0.04,32.36 6.26,63.09 18.57,92.21 12.33,29.08 28.87,54.81 49.92,77.09 21.05,22.31 45.69,40.07 73.66,53.28 28.2,13.24 58.29,19.85 90.64,19.81 32.36,-0.04 62.44,-6.72 90.55,-20.04 27.98,-13.28 52.57,-31.1 73.56,-53.46 21.01,-22.34 37.48,-48.11 49.73,-77.22 12.26,-29.15 18.38,-59.89 18.33,-92.26 -0.04,-31.69 -6.24,-62.28 -18.57,-91.69 -12.32,-29.44 -28.86,-55.14 -49.91,-77.13 -21.06,-21.98 -45.69,-39.56 -73.7,-52.8 -28.15,-13.21 -58.24,-19.81 -90.61,-19.77z"/>
 </g>
 <g id="Слой_x0020_1_0">
  <metadata id="CorelCorpID_1Corel-Layer"/>
 </g>
</svg>
