<?xml version="1.0" encoding="UTF-8"?>
<!DOCTYPE svg PUBLIC "-//W3C//DTD SVG 1.1//EN" "http://www.w3.org/Graphics/SVG/1.1/DTD/svg11.dtd">
<!-- Creator: CorelDRAW 2019 -->
<svg xmlns="http://www.w3.org/2000/svg" xml:space="preserve" width="98.5596mm" height="33.5414mm" version="1.1" style="shape-rendering:geometricPrecision; text-rendering:geometricPrecision; image-rendering:optimizeQuality; fill-rule:evenodd; clip-rule:evenodd"
viewBox="0 0 9855.96 3354.14"
 xmlns:xlink="http://www.w3.org/1999/xlink"
 xmlns:xodm="http://www.corel.com/coreldraw/odm/2003">
 <defs>
  <style type="text/css">
   <![CDATA[
    .fil1 {fill:none;fill-rule:nonzero}
    .fil0 {fill:white;fill-rule:nonzero}
   ]]>
  </style>
   <clipPath id="id0" style="clip-rule:nonzero">
    <path d="M319.01 2050.61l0 777.43 -329.19 0 0 -777.43 329.19 0zm998.11 0l1064.63 0 139.63 777.43 -343.93 0 -85.87 -562.25 -486.2 0 -81.91 562.25 -347.85 0 141.5 -777.43zm1484.11 0l329.28 0c-22.42,130.12 -50.17,255.16 -83.2,375.17l497.5 0 0 -375.17 330.64 0 0 375.17 173.7 0 0 939.31 -312.04 0 0 -537.05 -847.78 0 0 537.05 -312.01 0 0 -939.31 134.9 0c34.94,-119.68 64.6,-244.72 89.01,-375.17zm1500.58 0l502.32 0 -210.41 777.43 -291.91 0 0 -777.43zm761.9 0l330.68 0 0 777.43 -330.68 0 0 -777.43zm680.97 0l329.21 0 0 777.43 -329.21 0 0 -777.43zm577 0l355.23 0 278.1 777.43 -364.99 0 -268.34 -777.43zm806.24 0l1064.62 0 139.63 777.43 -343.92 0 -85.88 -562.25 -486.19 0 -81.92 562.25 -347.85 0 141.51 -777.43zm1547.27 0l325.92 0c-22.85,266.55 -69.44,460.27 -140.05,580.93 -75.55,130.78 -201.17,196.5 -376.78,196.5l-96.17 0 0 -402.26 28.93 0c92.73,0 158.96,-43.14 198.21,-128.81 25.9,-56.96 45.89,-139.1 59.94,-246.36zm674.5 0l330.68 0 0 777.43 -330.68 0 0 -777.43z"/>
   </clipPath>
    <mask id="id1">
  <linearGradient id="id2" gradientUnits="userSpaceOnUse" x1="5229.03" y1="2439.32" x2="5229.2" y2="2064.54">
   <stop offset="0" style="stop-opacity:1; stop-color:white"/>
   <stop offset="0.611765" style="stop-opacity:0.501961; stop-color:white"/>
   <stop offset="1" style="stop-opacity:0; stop-color:white"/>
  </linearGradient>
     <rect style="fill:url(#id2)" x="-10.18" y="2050.61" width="9690.55" height="1314.48"/>
    </mask>
   <clipPath id="id3" style="clip-rule:nonzero">
    <path d="M319.01 2050.61l0 777.43 -329.19 0 0 -777.43 329.19 0zm998.11 0l1064.63 0 139.63 777.43 -343.93 0 -85.87 -562.25 -486.2 0 -81.91 562.25 -347.85 0 141.5 -777.43zm1484.11 0l329.28 0c-22.42,130.12 -50.17,255.16 -83.2,375.17l497.5 0 0 -375.17 330.64 0 0 375.17 173.7 0 0 939.31 -312.04 0 0 -537.05 -847.78 0 0 537.05 -312.01 0 0 -939.31 134.9 0c34.94,-119.68 64.6,-244.72 89.01,-375.17zm1500.58 0l502.32 0 -210.41 777.43 -291.91 0 0 -777.43zm761.9 0l330.68 0 0 777.43 -330.68 0 0 -777.43zm680.97 0l329.21 0 0 777.43 -329.21 0 0 -777.43zm577 0l355.23 0 278.1 777.43 -364.99 0 -268.34 -777.43zm806.24 0l1064.62 0 139.63 777.43 -343.92 0 -85.88 -562.25 -486.19 0 -81.92 562.25 -347.85 0 141.51 -777.43zm1547.27 0l325.92 0c-22.85,266.55 -69.44,460.27 -140.05,580.93 -75.55,130.78 -201.17,196.5 -376.78,196.5l-96.17 0 0 -402.26 28.93 0c92.73,0 158.96,-43.14 198.21,-128.81 25.9,-56.96 45.89,-139.1 59.94,-246.36zm674.5 0l330.68 0 0 777.43 -330.68 0 0 -777.43z"/>
   </clipPath>
     <mask id="id4">
  <linearGradient id="id5" gradientUnits="userSpaceOnUse" x1="5229.03" y1="2439.32" x2="5229.2" y2="2064.54">
   <stop offset="0" style="stop-opacity:1; stop-color:white"/>
   <stop offset="0.611765" style="stop-opacity:0.501961; stop-color:white"/>
   <stop offset="1" style="stop-opacity:0; stop-color:white"/>
  </linearGradient>
      <rect style="fill:url(#id5)" x="-20.18" y="2040.61" width="9710.55" height="1334.48"/>
     </mask>
 </defs>
 <g id="Слой_x0020_1">
  <metadata id="CorelCorpID_0Corel-Layer"/>
  <path class="fil0" d="M1220.3 844.96c0,287.84 -42.2,498.74 -126.62,631.45 -84.82,134 -222.71,200.65 -412.07,200.65l-197.24 0 0 321.74 -329.19 0 0 -1987.86 526.43 0c188.42,0 326.26,67.98 412.07,203.22 84.42,132.71 126.62,342.97 126.62,630.8zm8625.45 1153.84c-1022.18,0 -19.4,0 -1005.21,0 16.57,-122.22 24.96,-278.13 24.96,-467.87l0 -1519.99 980.25 0 0 1987.86zm-1487.86 0l-1064.63 0 374.66 -1987.86 320.35 0 369.62 1987.86zm-1515.66 0l-602.99 0 0 -676.87 477.38 -1310.99 347.81 0 -479.79 1292.39 257.59 695.47zm-602.99 0l-329.2 0 0 -1987.86 329.2 0 0 1987.86zm-679.5 0l-1092.58 0 0 -1987.86 329.17 0 0 1677.63 468.58 -1677.63 294.83 0 0 1987.86zm-1518.94 0c-1074.22,0 -271.99,0 -1074.22,0 56.85,-293.31 85.19,-614.73 85.19,-964.08l0 -1023.78 989.03 0 0 1987.86zm-1493.69 0l-1064.63 0 374.62 -1987.86 320.35 0 369.66 1987.86z"/>
  <g style="clip-path:url(#id0)">
   <polygon class="fil1" style="mask:url(#id1)" points="-10.18,2050.61 9680.37,2050.61 9680.37,3365.09 -10.18,3365.09 "/>
  </g>
  <g style="clip-path:url(#id3)">
   <g id="_-1961940080">
    <path id="1" class="fil0" style="mask:url(#id4)" d="M319.01 2050.61l0 777.43 -329.19 0 0 -777.43 329.19 0zm998.11 0l1064.63 0 139.63 777.43 -343.93 0 -85.87 -562.25 -486.2 0 -81.91 562.25 -347.85 0 141.5 -777.43zm1484.11 0l329.28 0c-22.42,130.12 -50.17,255.16 -83.2,375.17l497.5 0 0 -375.17 330.64 0 0 375.17 173.7 0 0 939.31 -312.04 0 0 -537.05 -847.78 0 0 537.05 -312.01 0 0 -939.31 134.9 0c34.94,-119.68 64.6,-244.72 89.01,-375.17zm1500.58 0l502.32 0 -210.41 777.43 -291.91 0 0 -777.43zm761.9 0l330.68 0 0 777.43 -330.68 0 0 -777.43zm680.97 0l329.21 0 0 777.43 -329.21 0 0 -777.43zm577 0l355.23 0 278.1 777.43 -364.99 0 -268.34 -777.43zm806.24 0l1064.62 0 139.63 777.43 -343.92 0 -85.88 -562.25 -486.19 0 -81.92 562.25 -347.85 0 141.51 -777.43zm1547.27 0l325.92 0c-22.85,266.55 -69.44,460.27 -140.05,580.93 -75.55,130.78 -201.17,196.5 -376.78,196.5l-96.17 0 0 -402.26 28.93 0c92.73,0 158.96,-43.14 198.21,-128.81 25.9,-56.96 45.89,-139.1 59.94,-246.36zm674.5 0l330.68 0 0 777.43 -330.68 0 0 -777.43z"/>
   </g>
  </g>
  <path class="fil1" d="M319.01 2050.61l0 777.43 -329.19 0 0 -777.43 329.19 0zm998.11 0l1064.63 0 139.63 777.43 -343.93 0 -85.87 -562.25 -486.2 0 -81.91 562.25 -347.85 0 141.5 -777.43zm1484.11 0l329.28 0c-22.42,130.12 -50.17,255.16 -83.2,375.17l497.5 0 0 -375.17 330.64 0 0 375.17 173.7 0 0 939.31 -312.04 0 0 -537.05 -847.78 0 0 537.05 -312.01 0 0 -939.31 134.9 0c34.94,-119.68 64.6,-244.72 89.01,-375.17zm1500.58 0l502.32 0 -210.41 777.43 -291.91 0 0 -777.43zm761.9 0l330.68 0 0 777.43 -330.68 0 0 -777.43zm680.97 0l329.21 0 0 777.43 -329.21 0 0 -777.43zm577 0l355.23 0 278.1 777.43 -364.99 0 -268.34 -777.43zm806.24 0l1064.62 0 139.63 777.43 -343.92 0 -85.88 -562.25 -486.19 0 -81.92 562.25 -347.85 0 141.51 -777.43zm1547.27 0l325.92 0c-22.85,266.55 -69.44,460.27 -140.05,580.93 -75.55,130.78 -201.17,196.5 -376.78,196.5l-96.17 0 0 -402.26 28.93 0c92.73,0 158.96,-43.14 198.21,-128.81 25.9,-56.96 45.89,-139.1 59.94,-246.36zm674.5 0l330.68 0 0 777.43 -330.68 0 0 -777.43z"/>
 </g>
 <g id="Слой_x0020_1_0">
  <metadata id="CorelCorpID_1Corel-Layer"/>
 </g>
 <g id="Слой_x0020_1_0_1">
  <metadata id="CorelCorpID_2Corel-Layer"/>
 </g>
</svg>
