<?xml version="1.0" encoding="UTF-8"?>
<!DOCTYPE svg PUBLIC "-//W3C//DTD SVG 1.1//EN" "http://www.w3.org/Graphics/SVG/1.1/DTD/svg11.dtd">
<!-- Creator: CorelDRAW 2019 -->
<svg xmlns="http://www.w3.org/2000/svg" xml:space="preserve" width="94.9256mm" height="18.4428mm" version="1.1" style="shape-rendering:geometricPrecision; text-rendering:geometricPrecision; image-rendering:optimizeQuality; fill-rule:evenodd; clip-rule:evenodd"
viewBox="0 0 9492.56 1844.28"
 xmlns:xlink="http://www.w3.org/1999/xlink"
 xmlns:xodm="http://www.corel.com/coreldraw/odm/2003">
 <defs>
  <style type="text/css">
   <![CDATA[
    .fil0 {fill:white}
    .fil1 {fill:white;fill-rule:nonzero}
   ]]>
  </style>
 </defs>
 <g id="Слой_x0020_1">
  <metadata id="CorelCorpID_0Corel-Layer"/>
  <path class="fil0" d="M1243.88 894.99c-111.75,199.45 -432.33,854.04 -595.47,946.76 0,0 282.78,7.27 803.79,0.03 116.67,-3.74 159.32,-40.83 221.24,-138.2 0,0 202.47,-355.73 467.47,-808.59 -494.95,0 -223.5,0 -897.03,0z"/>
  <path class="fil0" d="M990.35 1167.87c0,0 -165.06,-269.67 -502.59,-821.13 -41.88,-68.4 -78.88,-109.08 -65.21,-196.49 0,0 -129.65,229.01 -388.92,687.03 -47.87,93.55 -47.87,176.38 0.01,248.44 0,0 140.73,225.23 422.18,675.68 62.92,91.18 168.04,16.36 220.61,-57.13 52.21,-73.01 148.36,-230.25 313.92,-536.4l0 0z"/>
  <path class="fil0" d="M716.39 550.5c588.53,0 333.63,0 1225.5,0 0,0 -0.3,-1.72 -215.92,-345.74 -81.35,-119.9 -127.01,-201.14 -256.77,-204.03 0,0 -281.87,8.81 -845.58,26.4 -117.72,2.72 -161.75,101.15 -102.47,198.01 0,0 -22.03,-30.66 195.24,325.36z"/>
  <path class="fil1" d="M3195 805.04c0,28.19 -3.37,50.71 -10.31,67.55 -8.53,20.68 -23.78,39.09 -45.68,55.2 -16.13,11.61 -34.34,19.85 -54.65,24.68 -16.11,3.75 -35.37,5.69 -58,5.69 -6.33,0 -12.54,0 -18.75,0 -6.21,0 -12.63,0 -19.17,0 -2.61,0 -4.61,0 -5.88,0l-220.87 0c-35.49,0 -63.16,-2.76 -83.17,-8.46 -24.65,-7.15 -49.17,-21.2 -73.8,-41.88 -16.11,-14.06 -27.91,-38.74 -35.37,-74.23 -6.31,-29.9 -9.37,-65.6 -9.37,-107.14l0 -129.64c0,-49.9 5.04,-89.73 15.27,-119.64 8.52,-25.28 21.17,-45.02 37.78,-59.44 13.8,-12.46 34.34,-22.03 61.59,-28.55 27.16,-6.68 59.27,-9.93 96.34,-9.93l237.19 0c16,0 33.9,1.31 53.57,4 32.11,4.09 54.12,10.64 65.91,19.72 23.26,16.95 39.37,38.25 48.22,63.79 7.57,21.54 11.36,49.77 11.36,84.87l0 36.68 -147.07 0c0,-3.37 0,-5.81 0,-7.24 0,-10.19 -0.84,-18.65 -2.52,-25.18 -1.59,-6.67 -5.07,-12.62 -10.32,-17.93 -6.85,-7.14 -14.63,-11.63 -23.15,-13.56 -8.54,-1.81 -20.02,-2.78 -34.44,-2.78l-164.75 0c-5.27,0 -9.48,0 -12.85,0 -10.74,0 -20.42,0.71 -28.95,2.29 -8.52,1.45 -15.9,4.71 -22.21,9.69 -18.32,13.56 -27.48,33.28 -27.48,58.97l0 126.61c0,16.72 1.16,30.05 3.37,39.85 2.31,9.79 7.38,20.19 15.26,31.22 4.95,6.78 13.9,12.73 26.85,17.91 12.95,5.09 23.68,7.63 32.22,7.63l179.06 0c7.16,0 12.33,0 15.27,0 8.54,0 15.8,-0.85 21.9,-2.54 6,-1.69 12.32,-5.31 18.96,-11.02 15.05,-13.19 22.63,-31.09 22.63,-53.75 0,-2.29 -0.43,-6.03 -1.04,-11.36l147.05 0 0 67.92zm642.51 -278.82l-211.07 0 0 430.49 -164.76 0 0 -430.49 -217.4 0 0 -146.97 593.23 0 0 146.97zm641.02 68.04c0,61.48 -4.09,104.34 -12.3,128.44 -8.12,24.09 -21.06,43.34 -38.86,57.76 -11.79,9.45 -27.36,15.96 -46.74,19.72 -14.11,2.65 -33.27,4 -57.47,4l-41.38 0 -241.09 0 0 152.53 -155.39 0 0 -577.46 433.42 0c22.97,0 41.28,1.2 55.06,3.64 13.79,2.53 28.54,8.57 44.22,18.39 26.96,16.59 44.53,43.57 52.65,80.99 5.25,23.35 7.88,60.66 7.88,111.99zm-154.95 14.53l0 -32.81c0,-11.77 -0.65,-20.35 -1.9,-25.78 -1.37,-5.46 -4.95,-10.91 -10.85,-16.11 -5.9,-5.32 -13.05,-8.73 -21.38,-10.18 -8.42,-1.58 -18.21,-2.29 -29.36,-2.29l-221.3 0 0 140.9 225.3 0c2.94,0 5.06,0 6.42,0 10.42,0 18.63,-0.71 24.54,-2.27 5.88,-1.48 11.78,-5.22 17.68,-11.28 4.31,-4.59 7.16,-10.05 8.62,-16.46 1.48,-6.4 2.23,-14.27 2.23,-23.72zm902.74 93.08c0,43 -2.64,79.08 -7.9,108.49 -8.21,45.65 -22.12,78.91 -41.79,100 -18.42,19.98 -39.06,33.15 -62,39.57 -15.71,4.49 -38.75,6.78 -68.86,6.78l-29.05 0 -284.35 0c-31.8,0 -57.39,-3.15 -76.76,-9.56 -22.63,-7.61 -45.58,-21.65 -68.85,-42.38 -13.78,-12.08 -24.43,-31.46 -32.01,-58.21 -5.89,-21.55 -9.69,-45.16 -11.58,-70.96 -1.78,-25.79 -2.63,-55.44 -2.63,-88.98l0 -49.77c0,-34.61 0.85,-64.02 2.63,-88.38 1.89,-24.3 6.23,-47.57 13.06,-69.82 8.53,-26.76 20.84,-47.85 36.95,-63.21 17.69,-16.94 39.48,-27.74 65.39,-32.19 14.73,-2.69 40.84,-4 78.2,-4l270.57 0c39.38,0 68.12,1.93 86.12,5.69 27.9,5.57 52.01,17.67 72.33,36.07 23.57,21.56 39.9,48.31 48.74,80.25 7.79,28.23 11.79,67.46 11.79,117.58l0 83.03zm-167.82 33.67l0 -138.88c0,-12.45 -1.46,-23.49 -4.63,-33.05 -3.15,-9.54 -8.31,-17.9 -15.46,-25.05 -7.27,-7.14 -15.48,-11.74 -24.86,-13.81 -9.38,-2.06 -20.42,-3.13 -33.26,-3.13l-193.82 0c-5.26,0 -9.47,0 -12.74,0 -10.85,0 -20.52,0.71 -29.05,2.29 -8.52,1.45 -15.9,4.6 -22.12,9.58 -11.15,8.58 -18.42,19.11 -21.89,31.58 -3.48,12.49 -5.16,28.59 -5.16,48.57l0 106.03c0,23.36 0.94,39.1 2.94,47.08 1.91,8.13 6,16.38 12.33,24.59 4.84,6.78 14.11,12.47 27.47,16.97 13.48,4.45 25.15,6.78 34.96,6.78l207.6 0c23.91,0 42.64,-5.82 56.1,-17.46 7.81,-6.78 13.38,-15.37 16.75,-25.79 3.27,-10.29 4.84,-22.38 4.84,-36.3zm231.94 -356.41l156.86 0 0 435.59 273.6 -435.59 249.41 0 0 577.58 -156.97 0 0 -417.53 -263.72 417.53 -259.18 0 0 -577.58zm1327.1 147.09l-211.07 0 0 430.49 -164.76 0 0 -430.49 -217.4 0 0 -146.97 593.23 0 0 146.97zm579.13 430.49l-531.35 0 0 -577.46 526.4 0 0 142.37 -374.37 0 0 79.9 356.69 0 0 127.13 -355.22 0 0 85.69 377.85 0 0 142.37zm814.1 0l-222.35 0 -166.22 -211.61 -161.93 211.61 -212.44 0 255.71 -290.66 -242.96 -286.8 211.07 0 154.96 204.21 153.91 -204.21 209.1 0 -238.05 285.11 259.2 292.35z"/>
  <polygon class="fil0" points="5550.87,215.84 5554.19,427.89 5685.6,215.74 "/>
  <path class="fil1" d="M2847.26 1491.4c0,11.48 -1.62,20.62 -4.97,27.46 -4.08,8.41 -11.42,15.9 -21.95,22.43 -7.74,4.72 -16.5,8.09 -26.26,10.05 -7.74,1.53 -17,2.31 -27.89,2.31 -3.03,0 -6.03,0 -9.01,0 -2.99,0 -6.07,0 -9.21,0 -1.26,0 -2.22,0 -2.82,0l-106.18 0c-17.06,0 -30.37,-1.14 -39.98,-3.45 -11.85,-2.89 -23.63,-8.61 -35.47,-17.03 -7.76,-5.69 -13.42,-15.73 -17.02,-30.14 -3.02,-12.16 -4.5,-26.67 -4.5,-43.54l0 -52.7c0,-20.29 2.44,-36.47 7.34,-48.62 4.1,-10.29 10.17,-18.3 18.17,-24.15 6.62,-5.08 16.5,-8.96 29.6,-11.61 13.06,-2.71 28.5,-4.03 46.31,-4.03l114.02 0c7.69,0 16.3,0.54 25.75,1.61 15.44,1.67 26.02,4.34 31.69,8.01 11.18,6.9 18.92,15.56 23.17,25.93 3.64,8.78 5.47,20.24 5.47,34.49l0 14.92 -70.69 0c0,-1.38 0,-2.37 0,-2.94 0,-4.15 -0.41,-7.58 -1.23,-10.24 -0.75,-2.71 -2.42,-5.13 -4.95,-7.28 -3.29,-2.9 -7.04,-4.74 -11.14,-5.52 -4.1,-0.73 -9.61,-1.13 -16.54,-1.13l-79.2 0c-2.53,0 -4.56,0 -6.17,0 -5.17,0 -9.84,0.3 -13.92,0.95 -4.1,0.57 -7.65,1.92 -10.69,3.93 -8.8,5.51 -13.19,13.52 -13.19,23.94l0 51.47c0,6.79 0.55,12.2 1.61,16.19 1.11,3.98 3.55,8.23 7.33,12.71 2.38,2.73 6.69,5.16 12.91,7.27 6.23,2.06 11.39,3.1 15.49,3.1l86.08 0c3.43,0 5.93,0 7.35,0 4.08,0 7.58,-0.36 10.51,-1.04 2.89,-0.67 5.92,-2.16 9.11,-4.46 7.24,-5.39 10.89,-12.66 10.89,-21.86 0,-0.94 -0.22,-2.45 -0.52,-4.62l70.7 0 0 27.59zm309.17 -113.29l-101.47 0 0 174.94 -79.2 0 0 -174.94 -104.5 0 0 -59.79 285.17 0 0 59.79zm307.83 27.63c0,25 -1.97,42.41 -5.93,52.22 -3.89,9.78 -10.12,17.62 -18.66,23.45 -5.68,3.85 -13.17,6.5 -22.47,8.04 -6.79,1.08 -16,1.62 -27.63,1.62l-19.89 0 -115.89 0 0 61.98 -74.69 0 0 -234.67 208.34 0c11.04,0 19.84,0.48 26.48,1.47 6.61,1.03 13.7,3.5 21.25,7.49 12.94,6.73 21.4,17.69 25.3,32.91 2.52,9.5 3.79,24.63 3.79,45.49zm-74.5 5.93l0 -13.36c0,-4.77 -0.29,-8.26 -0.9,-10.46 -0.66,-2.23 -2.38,-4.44 -5.21,-6.55 -2.84,-2.18 -6.28,-3.55 -10.27,-4.12 -4.06,-0.65 -8.75,-0.95 -14.13,-0.95l-106.37 0 0 57.27 108.29 0c1.42,0 2.43,0 3.1,0 5,0 8.94,-0.3 11.78,-0.93 2.84,-0.6 5.67,-2.12 8.51,-4.58 2.07,-1.88 3.43,-4.08 4.14,-6.7 0.71,-2.6 1.06,-5.8 1.06,-9.62zm433.95 37.82c0,17.45 -1.25,32.14 -3.78,44.07 -3.94,18.55 -10.63,32.09 -20.09,40.66 -8.86,8.12 -18.78,13.48 -29.82,16.09 -7.53,1.81 -18.62,2.74 -33.09,2.74l-13.96 0 -136.69 0c-15.28,0 -27.59,-1.27 -36.89,-3.88 -10.89,-3.09 -21.93,-8.81 -33.09,-17.23 -6.63,-4.91 -11.76,-12.79 -15.39,-23.66 -2.84,-8.75 -4.67,-18.35 -5.58,-28.83 -0.85,-10.49 -1.26,-22.52 -1.26,-36.16l0 -20.23c0,-14.07 0.41,-26.02 1.26,-35.9 0.91,-9.89 2.99,-19.33 6.28,-28.39 4.11,-10.89 10.03,-19.43 17.77,-25.68 8.49,-6.89 18.97,-11.28 31.42,-13.1 7.08,-1.07 19.65,-1.61 37.61,-1.61l130.05 0c18.93,0 32.75,0.78 41.39,2.31 13.41,2.26 25,7.17 34.77,14.64 11.34,8.77 19.18,19.65 23.43,32.64 3.75,11.46 5.66,27.4 5.66,47.76l0 33.76zm-80.67 13.67l0 -56.42c0,-5.08 -0.69,-9.54 -2.22,-13.44 -1.51,-3.89 -3.99,-7.28 -7.43,-10.17 -3.5,-2.92 -7.45,-4.78 -11.95,-5.63 -4.49,-0.83 -9.81,-1.27 -15.98,-1.27l-93.18 0c-2.52,0 -4.56,0 -6.12,0 -5.2,0 -9.86,0.3 -13.95,0.95 -4.11,0.57 -7.65,1.87 -10.63,3.87 -5.38,3.48 -8.87,7.77 -10.53,12.85 -1.68,5.05 -2.5,11.6 -2.5,19.72l0 43.1c0,9.51 0.46,15.89 1.44,19.14 0.89,3.3 2.87,6.64 5.91,9.98 2.32,2.76 6.78,5.08 13.21,6.91 6.47,1.8 12.09,2.73 16.81,2.73l99.78 0c11.49,0 20.51,-2.34 26.98,-7.07 3.75,-2.75 6.42,-6.24 8.05,-10.49 1.57,-4.18 2.31,-9.08 2.31,-14.76zm111.49 -144.84l75.41 0 0 177.02 131.52 -177.02 119.9 0 0 234.73 -75.47 0 0 -169.68 -126.76 169.68 -124.6 0 0 -234.73zm638.25 59.79l-101.46 0 0 174.94 -79.2 0 0 -174.94 -104.5 0 0 -59.79 285.16 0 0 59.79zm278.08 174.94l-255.41 0 0 -234.67 253.04 0 0 57.85 -179.96 0 0 32.47 171.45 0 0 51.66 -170.73 0 0 34.83 181.61 0 0 57.86zm278.64 0l-83.24 -183.02 -88.21 183.02 -82.28 0 120.6 -234.73 103.78 0 109.97 234.73 -80.62 0zm318.98 -93.32c0,-3.85 -0.35,-7.1 -1.07,-9.66 -0.7,-2.61 -2.06,-4.86 -4.1,-6.68 -2.87,-2.45 -5.71,-3.99 -8.54,-4.56 -2.84,-0.66 -6.79,-0.94 -11.8,-0.94l-111.38 0 0 57.21 106.37 0c5.37,0 10.07,-0.31 14.12,-0.88 4.01,-0.66 7.44,-2.04 10.28,-4.15 2.84,-2.16 4.55,-4.32 5.21,-6.59 0.61,-2.21 0.91,-5.7 0.91,-10.43l0 -13.32zm74.48 5.96c0,20.84 -1.25,36 -3.73,45.49 -3.94,15.2 -12.4,26.17 -25.36,32.92 -7.53,3.99 -14.63,6.46 -21.25,7.48 -6.62,1 -15.43,1.47 -26.47,1.47l-208.35 0 0 -234.73 74.7 0 0 62.09 135.78 0c11.64,0 20.85,0.55 27.63,1.58 9.3,1.53 16.8,4.23 22.46,8.06 8.56,5.8 14.78,13.65 18.68,23.48 3.94,9.78 5.91,27.2 5.91,52.16zm346.37 87.36l-80.63 0 0 -84.62 -157.03 0 0 84.62 -79.9 0 0 -234.67 79.9 0 0 81.38 157.03 0 0 -81.38 80.63 0 0 234.67zm388.3 0l-86.08 0 -24.11 -41.92 -149.23 0 -20.59 41.92 -84.61 0 127.67 -234.67 106.88 0 130.07 234.67zm-136.19 -94.46l-48.47 -91.81 -48.5 91.81 96.97 0zm231.82 -45.99c0,5.8 2.28,10.95 6.84,15.39 2.99,2.6 6.17,4.29 9.46,5.07 3.34,0.74 7.49,1.13 12.55,1.13l118.73 0 0 -54.45 -119.69 0c-4.55,0 -8.44,0.32 -11.69,1.11 -3.25,0.81 -6.27,2.23 -9.11,4.39 -3.49,2.76 -5.51,5.2 -6.18,7.33 -0.6,2.17 -0.91,5.51 -0.91,10.14l0 9.89zm-73.07 95.64c0,-6.16 0.55,-11.43 1.77,-15.75 1.16,-4.37 3.44,-8.85 6.73,-13.48 4.1,-5.5 10.63,-10.22 19.65,-14.23 7.07,-3.09 12.34,-4.6 15.82,-4.6 -1.56,0 -5.26,-1.09 -11.13,-3.21 -7.07,-2.6 -12.85,-5.45 -17.26,-8.52 -5.66,-3.97 -9.67,-8.96 -12.05,-14.95 -2.36,-5.95 -3.53,-12.93 -3.53,-20.9l0 -34.25c0,-10.43 2.08,-19.54 6.27,-27.26 4.15,-7.72 10.58,-14.9 19.24,-21.5 6.32,-4.77 15.33,-7.97 26.97,-9.65 7.44,-1.08 17.56,-1.62 30.52,-1.62l209.25 0 0 234.73 -71.6 0.24 0 -61.63 -124.4 0c-5.87,0 -10.73,1.51 -14.67,4.62 -3.34,2.45 -5.68,5.95 -7.1,10.58 -0.96,3.19 -1.41,7.03 -1.41,11.46l0 34.73 -73.07 0 0 -44.81zm757.36 44.81l-110.67 0 -110.66 -88.84 -29.57 0 0 88.84 -76.42 -0.24 -0.19 -234.43 74.69 0 0 87.36 32.91 0 96.95 -87.36 111.39 0 -137.65 116.61 149.22 118.06zm349.3 -103.56c0,17.45 -1.26,32.14 -3.8,44.07 -3.94,18.55 -10.63,32.09 -20.08,40.66 -8.86,8.12 -18.78,13.48 -29.82,16.09 -7.53,1.81 -18.61,2.74 -33.09,2.74l-13.96 0 -136.69 0c-15.29,0 -27.59,-1.27 -36.89,-3.88 -10.89,-3.09 -21.93,-8.81 -33.1,-17.23 -6.62,-4.91 -11.74,-12.79 -15.39,-23.66 -2.84,-8.75 -4.65,-18.35 -5.56,-28.83 -0.86,-10.49 -1.27,-22.52 -1.27,-36.16l0 -20.23c0,-14.07 0.41,-26.02 1.27,-35.9 0.91,-9.89 2.98,-19.33 6.27,-28.39 4.1,-10.89 10.03,-19.43 17.77,-25.68 8.49,-6.89 18.97,-11.28 31.41,-13.1 7.09,-1.07 19.65,-1.61 37.61,-1.61l130.05 0c18.94,0 32.75,0.78 41.4,2.31 13.41,2.26 25,7.17 34.77,14.64 11.34,8.77 19.18,19.65 23.42,32.64 3.75,11.46 5.68,27.4 5.68,47.76l0 33.76zm-80.68 13.67l0 -56.42c0,-5.08 -0.69,-9.54 -2.21,-13.44 -1.52,-3.89 -4.01,-7.28 -7.45,-10.17 -3.49,-2.92 -7.44,-4.78 -11.95,-5.63 -4.49,-0.83 -9.81,-1.27 -15.97,-1.27l-93.18 0c-2.52,0 -4.55,0 -6.12,0 -5.21,0 -9.86,0.3 -13.96,0.95 -4.1,0.57 -7.65,1.87 -10.63,3.87 -5.37,3.48 -8.85,7.77 -10.52,12.85 -1.68,5.05 -2.49,11.6 -2.49,19.72l0 43.1c0,9.51 0.46,15.89 1.42,19.14 0.91,3.3 2.88,6.64 5.91,9.98 2.34,2.76 6.78,5.08 13.22,6.91 6.47,1.8 12.09,2.73 16.81,2.73l99.78 0c11.49,0 20.51,-2.34 26.98,-7.07 3.75,-2.75 6.42,-6.24 8.05,-10.49 1.57,-4.18 2.31,-9.08 2.31,-14.76zm507.6 89.89l-74.76 0 0 -179.34 -91.48 179.34 -56.79 0 -94.59 -177.25 0 177.25 -78.49 0 0 -234.73 131.48 0 69.27 153.1 66 -153.1 129.36 0 0 234.73zm104.74 -173.31l0 173.31 -73.78 0 0 -234.73 313.3 0 0 234.73 -73.79 0 0 -173.31 -165.73 0zm629.9 173.31l-86.08 0 -24.1 -41.92 -149.24 0 -20.59 41.92 -84.61 0 127.67 -234.67 106.89 0 130.06 234.67zm-136.19 -94.46l-48.47 -91.81 -48.5 91.81 96.97 0zm476.01 94.46l-80.62 0 0 -84.62 -157.03 0 0 84.62 -79.91 0 0 -234.67 79.91 0 0 81.38 157.03 0 0 -81.38 80.62 0 0 234.67zm30.36 -234.73l75.4 0 0 177.02 131.52 -177.02 119.89 0 0 234.73 -75.46 0 0 -169.68 -126.77 169.68 -124.58 0 0 -234.73zm432.53 94.28c0,5.8 2.27,10.95 6.83,15.39 2.98,2.6 6.16,4.29 9.45,5.07 3.34,0.74 7.49,1.13 12.55,1.13l118.73 0 0 -54.45 -119.69 0c-4.55,0 -8.44,0.32 -11.68,1.11 -3.25,0.81 -6.28,2.23 -9.12,4.39 -3.49,2.76 -5.51,5.2 -6.16,7.33 -0.62,2.17 -0.91,5.51 -0.91,10.14l0 9.89zm-73.09 95.64c0,-6.16 0.55,-11.43 1.78,-15.75 1.15,-4.37 3.43,-8.85 6.72,-13.48 4.1,-5.5 10.64,-10.22 19.65,-14.23 7.07,-3.09 12.34,-4.6 15.82,-4.6 -1.56,0 -5.26,-1.09 -11.13,-3.21 -7.07,-2.6 -12.85,-5.45 -17.24,-8.52 -5.67,-3.97 -9.67,-8.96 -12.05,-14.95 -2.37,-5.95 -3.55,-12.93 -3.55,-20.9l0 -34.25c0,-10.43 2.09,-19.54 6.28,-27.26 4.15,-7.72 10.58,-14.9 19.23,-21.5 6.32,-4.77 15.34,-7.97 26.97,-9.65 7.44,-1.08 17.56,-1.62 30.52,-1.62l209.26 0 0 234.73 -71.61 0.24 0 -61.63 -124.39 0c-5.88,0 -10.73,1.51 -14.68,4.62 -3.34,2.45 -5.67,5.95 -7.09,10.58 -0.95,3.19 -1.4,7.03 -1.4,11.46l0 34.73 -73.09 0 0 -44.81z"/>
  <path class="fil1" d="M8212.13 379.13l38.1 0 24.77 78.39 23.91 -78.39 38.31 0 0 129.08 -26.29 0 0 -96.61 -29.88 96.61 -11.96 0 -30.67 -96.61 0 96.61 -26.29 0 0 -129.08zm-115.94 0l94.42 0 0 26.6 -32.66 0 0 102.48 -29.09 0 0 -102.48 -32.67 0 0 -26.6z"/>
 </g>
 <g id="Слой_x0020_1_0">
  <metadata id="CorelCorpID_1Corel-Layer"/>
 </g>
</svg>
